<mxfile host="www.draw.io" modified="2019-11-10T14:20:00.294Z" agent="Mozilla/5.0 (Windows NT 6.1; Win64; x64) AppleWebKit/537.36 (KHTML, like Gecko) Chrome/77.0.3865.120 Safari/537.36 OPR/64.0.3417.92" etag="HafrGftPp4PXMNMVen9S" version="12.2.3" type="github" pages="1">
  <diagram id="wKon949N6FFr8qLKLFwA" name="Page-1">
    <mxGraphModel dx="2532" dy="2739" grid="1" gridSize="10" guides="1" tooltips="1" connect="1" arrows="1" fold="1" page="1" pageScale="1" pageWidth="827" pageHeight="1169" math="0" shadow="0">
      <root>
        <mxCell id="0"/>
        <mxCell id="1" parent="0"/>
        <mxCell id="yXWUyt9PTgUI9yi-nkLO-1" value="" style="shape=image;verticalLabelPosition=bottom;labelBackgroundColor=#ffffff;verticalAlign=top;aspect=fixed;imageAspect=0;image=data:image/png,iVBORw0KGgoAAAANSUhEUgAAAggAAAGZCAYAAADsLskYAAAgAElEQVR4Xuy9B3RcV37m+auEKhRQyDnnRJAACUYwB5FUoLK61bLa3c7hOI8n2DM7Z3d2z6ztmePx7B57PPZ0r7vd7m61AiUqUBSTmMEERoDIOadCAZXjnvsKIEGKEgskAALkvedQpID37rv3u+m7/6hq7RgNIItEQCIgEZAISAQkAhKBGQioJEGQ80EiIBGQCEgEJAISgXsRkARBzgmJgETgqUIg4PfS3V6Pk3jyctPQqlWLov/D7ZfoDWRSmZe8KNojGyERkARBzgGJgETgqULA65rki3f+B+NxG3jxmfUYteB2ewigRqvT4Pd48AMqlRqdTovP68HnD6DRhqHTqvG5fQTUPrw+0OnCUKv8+H0qNDo1Po8XlVqFz+vF5/ej1ugI02nwulx4AwFUai1hOh3gw+9XodGo8Hp9aLRaPNZRbEQSGxmGx+PC5wsE3w/TsTgozFM1TWRnxRqQKgY5DyQCEoGnCQHHyAWOHWnGFZvMpnXVOLsO8t67F7H7I1mxezWuuovcbBsnZXkVVflxXL55C5Xfjykxj83bl1PzX97HvsaEdchD6Zq9LE8d58IZD2u3x3Lqg/Pkbl3DwI1TNPeNE55QxHPPrqPjwH5qx62owpPZ+tw+0lTNXL6sY+PWWD75/Abrnt2LoeUTLgTWsynRzKFjhxl3WPB6ivj2b3+XZMPTNEKyr4sFAUkQFstIyHZIBCQCC4CAk7r3/pKr2nWEW3vRl+9huaaWYyf7UJl0FFbtpHqZjkM/vkr5d7bSd+403uQK1uZGcf3SSQKxkTT98Cx5f/5HFE7e4ly7i7LMANdOjhJdYKXrmofKF/eS6Wnh/K0uPIEIKqrW4Kg/Sb09wPjAOLnrtrMsdpDa+xEE/1pWmwap7Z4gL93KpcNW9kqCsADzQn7ifghIgiDnhURAIvDUIBAYvcB//puTrN65EsNEJ18OZPJmtZ/unigSDU20Bkp4dXtGkCC8tY3BM18yaiphY2EsdbVnCEtL4tY/fkbC7/wRJY56age1VOS4+ewfT5H3rZ1EdY8StWI1+Qk6LJZh6q5eIS42js8OdfHyb+2k79JFDLmVFEcPcvGCig2bYzn4RR1r9z5LRMdnXGA9m5PGOVFTR3Sik/ZrWl6QBOGpmZ+LraOSICy2EZHtkQhIBOYNgbGbBzgwupJf3pqJ2jPIwZ+cIHZ1Eu1n63EbY6jYtIPKXA0XDrWQt3sdxsFmDp0+j9PtIzYln6o1WRz/v/ajeSYFz5iK0qptZEcNcfZ4P6ufX4v5ZhPquEi6G68wOOHGlJjL2srltNe8S9OkHlRGKtZuJss0wOfvnsVn0jI2MkZc8W62F1hp9ZeQo+1nyBNDRZGXU/s7qHhpN3Fh8waJrFgi8LUISIIgJ4dEQCIgEQgZgT7e+7PPWPl//zr5Ib/zzQ/aB69w+IKLPfvWI00N5ghUWc2cIKBqk4GS5gRIWYlEQCLwNCDgZXLUhiE+GuGLMBfF73VhdwWIiDBIb4W5AFTWMWcISIIwZ1DKiiQCEgGJgERAIvDkICAJwpMzlrInEgGJgERAIiARmDMEJEGYMyhlRRIBiYBEQCIgEXhyEJAE4ckZS9kTiYBEYJ4R8Pl8eDxuXC4nbrcbAqDWqDEYjErEQ61Wh0ol4x7O8zDI6hcIAUkQFgho+RmJgERg6SIQCASYnJygs6OV7u4ORkYGsdlsiJ+LcMxxsQmkpGWQl1tIUnIqGo1m6XZWtlwiMIWAJAhyKkgEJAISgQcgMDIyxIkvD9PR3szExDhCkjCzCKmBwRBOSmo6VavWs7yiSpIEOauWPAKSICz5IZQdkAhIBOYLASEhcDjs/OAf/4aRkeGvEIN7vyuIQkREJC++/G1KS1dIdcN8DYysd0EQULV1jgYW5EvyIxIBiYBEYIkhMDlp4ZMD71Nfd1VRJ4RaomNi+fab3ycrOy/UV+RzEoFFh4AkCItuSGSDJAISgcWAgM/n5eqVixz8bD9Oh2OWTVJRUlrOK6+9pUgUZJEILEUEJEFYiqMm2ywRkAjMOwJB6cG71Nddn5X0YLphJlMUz+97g2XlFVLVMO+jJT8wHwhIgjAfqMo6JQISgSWPQH9fD++9+88MDvQ9VF+0Oh3VG7exbfsewsL0D1WHfEki8DgRkAThcaIvvy0RkAgsWgRaWxr4cP/PMY+NPlQbhatj+YqV7N7zItHRsQ9Vh3xJIvA4EZAE4XGiL78tEZAILFoEbtXf4OOP3mFiwvJQbVSrNRQVlyoEQcRGkEUisNQQkARhqY2YbK9EQCKwIAi0tzXz4f6fMToy/FDfExKE0tJydux6boogyAiLDwWkfOmxISAJwmODXn5YIiARWMwIDA32894v/pm+vu6HaqYIu1xRWcWWLbuIT0gCGYL5oXCULz0+BFTtnWOhO/c+vnbKL0sEJAISgQVFwG638cXnH3H5cg1+v3/W3xZeDJs276B8+UpiYuIAKUGYNYjyhceKgCQIjxV++XGJgERgsSIgAiPV113jow9/js1mnVUzVSo1ubn5bN32DCmpGURGRs3qffmwRGAxICAJwmIYBdkGiYBEYFEiIIjB6VPHOHvmGF6vN6Q2inDLSUmprFu/kYyMbBKTUqWbY0jIyYcWGwKSICy2EZHtkQhIBBYVAoIknDpxmJqak3g8nm9sW5AcJLN6zQaSklKIj08mOiYOtVq9qPokGyMRCAUBSRBCQUk+IxGQCDzVCHi9Hi5eOMPxY59/rbpBkIOc3HzWrKnGaDQSERlFSkqGJAdP9cxZ2p2XBGFpj59svURAIrBACDidDiXdc8Otm4yODmG1WpXsjuFGI6ZIE6mpGaSlZ2AwGAg3RpKQkIJWq12g1snPSATmHgFJEOYeU1mjREAi8IQiICQJdpuVMfMIHe0tWK0TZGRkKQmZwsIM6PUGjBGRRESY0GgkOXhCp8FT0y1Ve5d0c3xqRlt2VCIgEXhkBIR3g8/rpaWlgQnLOCVlyxVJgSAEWo0WtUYjkzM9MsqygsWAgCQIi2EUZBskAhKBJYWAIAltrY1MTkxQvmKVVCUsqdGTjQ0VAUkQQkVKPicRkAhIBKYQkARBToWnAQFJEJ6GUZZ9lAhIBB4ZAeHu6LDbiI1LUDwT7pUg+H0+Bgf7iYmJJdwY8cjfkxVIBB43ApIgPO4RkN+XCEgElgQCI8ODNDfVU1G5RiEA9xIEs3mUq7XnqVy1jtjY+CXRJ9lIicA3ISAJgpwfEgGJgEQgBAQcDjvnzn5JaekKUlLT7yIIInPjrfrrSubHdRu2EBYWFkKN8hGJwOJGQBKExT0+snUSAYnAIkFA2B3cuH6ZsdFhtm7fexdB8Pt9nDl9jJycAnLzChdJi2UzJAKPhoAkCI+Gn3xbIiAReIoQEGqEAx/+nFdffxuRDjroxbCSocEBGhtvsqF6GwZD+FOEiOzqk4yAqkPGQXiSx1f2TSIgEZhDBETa5yNffEJsXByxsQlMTk5QumwFV2svEGkyUbasArVK5l2YQ8hlVY8RAUkQHiP48tMSAYnA0kNgeHiQL48dpKR0hRIwKTsnnzOnjyrSg7j4RBkkaekNqWzx1yAgCYKcGhIBiYBEYBYICFuEg5/tV3IuCG8FlVqNeWyELVt3I4wVZZEIPCkISILwpIyk7IdEQCKwYAjU112j7uZV0tOzGB4eoGpNNRkZ2Qv2ffkhicBCICAJwkKgLL8hEZAIPFEICDXD4S8+RgRHSkhMZueu59HpdE9UH2VnJAKSIMg5IBGQCEgEZomAiIlw9PCnNDXV88qrb0nXxlniJx9fGghIgrA0xkm2UiIgEVg0CARwOp2crzlBZ2crzz77GvEJSUr4ZVkkAk8SApIgPEmjKfsiEZAIzBsCwsXRZptgYKCf7r46zJO9eH12jGGpJMVnkZ6WR0JCMnq9QXoyzNsoyIoXEgFJEBYSbfktiYBEYEki4HK7aGy4Tkf3LdT6SWKTIT4lAm2Ymgmzk+EeB5PDGkzGNIqLV5CZmYNGo12SfZWNlghMI6Dq6B4LSDgkAhIBiYBE4G4EAn4/doedzs426m6dQx1mJ6MgnKR0E/pwDaimng8E8Hp9WMac9LROMNzjJyk5kfKizSQmpRCmC0elnn5YoiwRWDoISIKwdMZKtlQiIBFYIATsdguNzddpaW7Apx6loDyelCwTWq2a4I1K/DcQ/Hfgzr8VNcSEi9a6UQa7HCQl5rCsdC2ZGYVotVKisEDDJz8zRwhIgjBHQMpqJAISgaWNgDjcLROjdHQ20Nl5C792nIzcGFKyotAbtEE6EJgiBV9DEKaJg98fYHzEQW/HBOMDAaJMiRTmrCUtPROjMQKVDMe8tCfLU9J6SRCekoGW3ZQILAYEnJOj9A2PkpKRjzFscUQd9Pm8WCxjdHQ00dF9HVWYk+yiGJJSIxUbA9WUdmA2BEERKhDA5/Njm3TT2zbBSI+XqIg08nKWk5VVQHi4UXo+LIZJKdvwtQhIgiAnh0RAIjAvCPh9TibMDoxxUfisEzgCegxM0tU/TEZuKZH6x0sQvF4vY2MDtHe0MDjcjDbcoagRhI1BmF6tCAOC8oJppULoEoRpghCkCcE6JswuBromGesLoNfEk52xjMysPGJi4uaBKMzW5kGaos3LIljilUqCsMQHUDZfIrBYEXDZerl4qpXCbatx1l+i3Z1CZZ6Km01dlK7cSnzE49HJi1wKY+YRrl+7QE//LZIyDGTmxxATb0SrU00ZHyrsYE4JgvhuwB/A5fIy3Gunp9WO12qiIG855ctXYTRGzqF75GwJwrRdxWKdTbJdjwMBSRAeB+rymxKBpwABl62D/f/wY5omnXhtUPHiL7OjQMX1hk6Wrd5BwgISBHE4C1WCzTZJY8NN6hrPkpJppLgyhQhTGGrFy0Dc9adv0vNDEILDHkC0x+PxMzZgp6F2HK9LzcrKTeTnrCAiIgq1WvOIZEEShKdgic17FyVBmHeI5QckAk8nAi5bNzXHWyjeuQ5n3XlaXamsWmiCEACHw8bI6BD9/e1099ej1bsoqkghPilSIQbisL59cC8UQZj+juIi6ae/00p3k4UwXTRZqZWkp+YSH5eC3mCY9eTx+zxYLePYnW4CKjV6gxF8TlxuH1p9JLGxJnwOBwGtDpXXhlttwhQupDlSzTBrsJ/wF1Sd3WY5K57wQZbdkwgsNALiJu51mWlrHCK5NBdPXzsjnmiyklT0DIySll1CpF6N6nYwgblvocNppaOzka7OLnyqESJj/SSkRRCXFIFGcycs8uMmCNM2Ci6HD/Owg7EBD65JAxHabAqLikhPy0ev14cMkMc1QUfTVS6dvEX48mLyE1IJOEcZn7BhnbBRsH4zgdYmvHGJ2Pvq0RZsoTIzZh5HIuSmywcXGQKSICyyAZHNkQg8CQhMW/wLK361iB3g9xMIqBDpCoQLYFCELtT9DyMK/2aEhLtiZ08dZ88cJ6C2U1aVQlxSOIbwsCAxuOeTC0IQWps4PBRPQYwbQ1wUyUlTB77iNjnDEFJRPfhw2rwM9brouOEgISaHjRt3kZSUFtLU8Af8+DxDHP7bL0j6nW9R5hrn7OH3OVnbyKRLz75f+Q1M7Sf57Gw7Rdtf5NmtVUTrtfMwEiE1Vz60iBGQBGERD45smkRgqSJwR5f/zT2YK4Lg9/twu12Mmoe4cu04PT3tlFWlUVierAQ3+mrx0X2mkZaELLYVGhm40c4ts5bVW9LRu33Koa1Sq9FoVeDz4vEGFGKh0ajwe/34An4lOqL4vfh/tVY1RYIAlbAxAGHW4POL58DvsXLkf1zGkpDC1udzSIyeMtC8hyCIdgYCfqW5gjY47R4aa8fobbNRlLueihVriY6OU/I9fF1yqKBIeIzD//1zUv7gTZKar3G128rKqnLaaz7Cl7YBQ08r3sQkehrryNv+EpXpUoKwVNfafLZbEoT5RFfWLRGQCMwrAuL2L2IY9Pa1MzjUidneTnySkayCeEzR36S/FwShgSseEyvS9Yy29DOsi2HNuhh6awew+/zoIiLIK4lnpKmbgUk/BFRklcYxerYPS6wOvU5P7ooohi9OkrY9BX+vmbEJMBp82NQGUmN9dNyaIL7YRN8XY2S8nIrt1gjO6AhyMyMUAhEMvHRHgnAvQRA0we/zYxl10dtqVVQPsVGZZKQVkZaaRZQp/itBl4IEYYIL79QQ/+1nSBhs52pdPT50DPR3s3zdM4QN9eJNzsQ0Vk9HxAq2lKVKCcK8ztSlWbkkCEtz3GSrJQJPPQI26yQ36msY6O8lPMZJXIqO+ORIIiL1qDUPUl0IgnCLc6MaCpPCMHeO4ohNZMP6WG5+epXWPidenZHNO7O4dKqfyt1ZjNUNEFcQQ9MPbtCbbiQuIY7NexKo/fsGXCXR+IfsmHJTyY7xMqqJIt7eQV2bgYpn4rj+V10U/XkuPZ+2o1uexYZVcQjhRCgEIagCEUQhwKTFjXnIycSQBp89itzcYkqL1hARYbo9H4IEwYfNbEMbG0WYz8OkZQyb04NaH0l0pBE8bgI6PWG4sPp0RBv1kiA89SvqqwBIgiAnhURAIrBkEBCHpd1upbnlJleunicy1kPZqlRiEsLR6TSzSIoUVDE0x2awRagYbnbQaNGRn+Tmyk0PK9eY6LoxSNKyHFTNDXxycRyDPpzqfTm0/6CTjN8rwdM8SExOOO37R8h8Kw9/4wBjrnCSot30tpsZjIyh2AhxxUau/FU7Ua+b8A1piC6MZ8WymFkThKDaIRhLwe3yMT7sovWajYA7ksqKagoLKggPf/hYCg+iVEtmksiGzhkCkiDMGZSyIomARGC+EPD5fFitk3R0NNDUfJ1AmJnSilRSsqIf8pM+es410xafweYCIwN1HTSadeQmuTh/2UxSvIaBHisVG7Np/LKXkteX46zvQJ8cQdOPWlDvTEFrdZNXGU3ngXFKf7cEf10PnYMq4kxWTh1zsvt385m8PkxEroFr/+0qqt3LKUn0M6EzUFYS/VAE4XaCqKm8EMJFcqDDTkfDJGEkUVa8mpzsMqKiYtBoHm+kyoccGPnaIkJAEoRFNBiyKRKBJx0BIQFQTSc3CKGzPp+H4ZE+Ojs6GBhuQWO0kpEbTUJKJHqDLoQavu6RAE6LHYfWQIxRjcvqwO5RERGpZqRziEmvGkNkOPGRGsbsftKTw7Fa7KjCNNh7LZjdPvQmI0mpemz9LiIyI8DqxOEGncaH3achNkqDfdKFNlzNRKeV8NxotA43bpX4zpTXQAg2CNMqhmBPZiSLmkocJX7vdnoZHXQx1OVC5UwkPaWI3JxSklPSUT9iYqjZjtkjDIp8dZEhoOrskXEQFtmYyOZIBJ4cBALCkt+H3Wajt6dT8QQoLin/ZpIQAI/XzdhYv5JyWRADU6yWrPxYYpOMaLVBF8m5Kgvi5jgVPfHOIT8VfmYOCMJ0BEhhquBz+xgfdTPQ4cY5ZiIjtZjCguUkJCaj04XNipyJtgqX0drLNWRl5RIfn4hGo/2Km+hcjYOsZ/EhIAnC4hsT2SKJwBOBgEiGZB4boae7k+GRISV7YV5eIekZWV/bP4/HzcBgN80tVxk19xIVD5n5ccQkGBUbg/koTwpBCAoYgl4RXrefCbObgXYnTksEyfF55OeXkZ5ahE4XuuRFYHP9+mWGB/uJT0giN7eQ6JjYWRON+Rg3Wef8IyAJwvxjLL8gEXiqEBC3ztGRIW7eqMViGSctPYu8/CLi4hK+3nc/EGBkZJDzFw4zNt5HRn4kucXxREQZ5v0wehIJwu0MlAE/NouX3hY7fe0ukmNKqFqzkYy0gpBtFMR4TljGqa+/rniMFJcso6h42ayIxlO1AJ6gzkqC8AQNpuyKROBxISAOWafDwcBAHx3tLQoxyMrKJjungMhIkyKWFhIFYWzoU/724vX58Ho8OJx2Gptq6evvJLfURE5xghLDYGY45Fn3S+jlHQ6GeyfxasJIyo4l/F4BRCCAX8Q/uq2ueIRkTQE/dqsTl1+NJuBBawxn2kRiOs7BfYnIQ6oYAn4f430TTLrAlBhBtGkqGNS9kRmDKSkRES0d1iBRGGpXkZpURGnxGmVshOpBF6YL/q0TiavUU5gEgZm2GfF4PAwP9XPzxhU0Wh3FxWUkJac+lOpi1uMpX3gsCEiC8Fhglx+VCDw5CIyPm+nsaFVUCWNjw4pPfnZ2LmH6cPxKFEIPXuWPV9Fpiz8i9HLw3+L49CuGiFqDk9zSSBJSTUSY9FMZFh8GpwC2gVEabvUzNupDF2Vi+dZ84u9JZ+A0j9M8oqK8IGrqI49GEPoau6lvtKEz6ijekENSRPCAnQ+C4LFauX6mH4vdi9YUw6otiRiF5uBrCIIItuSweTEPuelv8eO3xxEXk0p4eDharU6RJoi/RYRGXZggCkHCEBYWht4QTpguDK1Oi1ajVaJDtrU2MTjQR2xcPBkZ2Yp9gnhPlicLAUkQ5nE8gz7bNuXWJItE4ElEQBws/f29XLtykf6+HsL0YSQnp5GSmk5UVLRi1KYcNlOHjjhg1BqtciBN/xE3VofTpoivu3tvMensJz45jKzCeIwRIRjW+bwMtA/S2T2JJiKS4uXJ9F1oobF7AlOSieTCbMpyjTjMFprrB7G5VaQWZZKkneBCr44tFSZGe62EJ4Zj7R1Dk5JMmHmAGw3j6GNMFC1LRucbp75mCAdh5KxLI8pjx+7UEhsXoPOWnaRlkYw3W/CHq3Ga3ejTYkhPDEPl8dDTOkJvvw1NRDi5JbF4esboHHSg0upIL04gPspPx+VBxpw+VBodqQUxGFxeSDESFfAyNurGlGhANTrG9UYHEUmRZOcaATXYLVw6OkLBnnxSBM/5Sm4HP/ZJH/3tDsxDHsLJICO9iMyMAiVks5AOCOImpAMiVLWQAom/xf8rf9xuvD63IoEIJsQOFkEehL2IeWwUn9dDcmq6Yp8QaZomW0/ibH+8fRLrxGAQhG4qTPcCNEcShHkEWWyap04dUxagLBKBJxEBfZieNWurKSgqxWG3KWShq7NNOTiSklMoKV1OZmYOYSFkI1Tc9dwuhob7uVx7lP6BTpavyyC/NOlr8ikEEZ3oGeDC5WFS8uKxt3VgM6XCQAcDYSmsL1Jx5riFLb+2Gk1zJ41jAbLCR+h05rAm18oHDZF8d5eJ68e6SczUUHvDRvWeNC7ub8ZUmYWqow97eharsyxcOGxHr3fhqyik2D9I30gYWks/J2sCvPRnBXQfHCZjczSXf9iAcWcp21fGoPb5sJjtTEy6GesZQR0VT0aqFqvVg2NwjB6nnuUrdFx4p5/0bWn4esdwh0WgMztQbUglpruX2qseNryawM2/ayP6xXwyEnTExocx2THE4QNdGMuy2bUzgTChQplBEIR0pqfJRtOVSWKj0igpriI/ZxkRkdHKIXM/d9NpNcidv/23CYTYx4RKyO1xMzlhYXR0SFEpjQwNMjExrkgfAqgUyZAsc4+AINcrKlaxdv0mhSgsRFF1STfHecHZ6XTy0YfvcPXKxRn55uflU7JSicBjRWBl1TpeeukN5YCYPnREGOTm5gZaWxtxu1ykpmWQnZ2nBPAxhIcrHg1fl2xIdEYcMh2dDZw5cwRtuJuiFQlKjgV9uA7NXcmXAgy39dE2ChUVqTh7ujh/YwyNR0V0WR6rSyO58u5x/Ou2ECmIS2wClaY+alqTqMq18l5DJN97xsSJH9dwvU/NuheWUZVk5cC1AC/tycLS1MbnjQH2Vnl55782YEuPY88rFcS5+6m/bEVdoMNy0kvV72fS8WEf6nQf5g4fMaVprF0VK+74mBvb+fBAJ9qYCNY/U0JYRzuf1Yzgc3qJK8pi5zMmrnw8yopvF+Bt7mVgXItqzIanNAb7lXb8MSksT7Hzo6MafuOPsghqLvyMNgzQbQ+jrCIWrXoqwLLXj0gbPT7kpu2GHfdEJFXrKinMXU1MTPw3Yn6/SeR0OnC5nHg9XoUYjJtHGR4eUsjB5MSEooJITEpRpBFXrlygtaXxsc7FJ/3jBYUlvPzKmyQkJC5IVyVBmCeYHQ47H+3/BdeuXZIEYZ4wltUuDgRKy5aze88LREREKkZvIpXzdBHGiMJgURwqwuVRGChGxcRQWFga0i3I6bTT1t5Ad08LXtUYkbEBkjOiiY4Nv00ULD0DXKsfIy4pGvfQII6oROJ8k/RN6MhKU9NyfZzszTmMtw6RsSyHRGfzPQQhimtHu0gsiaT5whC561NovDBAYn4CvsERJuJSWZVp4dxBO9GJTjrDM9mUNMK5005WvpRE2zujlPxWOvU/bIAVaaR63UxERisEAeHqOTSJZcLDaO8AvkAk5q4JolYmED5hYWRST8W68PsQBDMdVhUZqxIJG3WQlgqHPhymbE86ibF6EpINuIcsDNrVZOZEohKeBmY3I71O7ONqtL4k0tJzKMipVEjZw8RAEFIE4bkwPj52W7cgbq5CjRBlilL+NhojFFWRiHK5/4OfUXfz2uKYlE9oK7Kyc9m7dx/pGdkKIZ/vIgnCPCEsmLcgCFevSgnCPEEsq10kCBQUFlNdvUUhByJy3/02LnHYCLIgJGsiNbMwZAw1FLB412abUAwZhadD98BVYhOMFC5PITJKj8/loq9jlPEJN6jVpOSnYlLZ6Wodx+UJYEyJJz7Sh9nsIzUrFq1jlD6LkeRoD02jOpZlhzHUOYExJRLX4BjemBhUw8P0jHnQ6bSk5CUSqZmgqXYcn15LfH4iMVgZHlaRWmBg8NoksRWRjNSNE5EVQ5jdgVUdRmqynoDHw1C3mdFxNyqNmoS0aPwWC8MWL34ChEdGkJahZbDVQWJJDH6zFZtT5Hl2YlaFk5WhZXLYRWScDnPzMCMeLaY4AymZRsSDE041Wg10NUxis3hIMBWTnp5Hemo+0VHxhIXpH8lN1GweU2wPbtuQaHX3lUIIgvDh/ncUDwdZ5g+BtPQMNm3aRk5uAXFx8y9FkMnmGzoAACAASURBVARhnsZSiEjPnPmSo4c/UzZGxVpb5JBXqR5pwYp6H7WOeepyyNWKPnyTeDnkih7Tg0/CGAjD2VAP6G+CWeiyV6xYSWlZuaI2SEnJwBAuDOjmvgRJho9xyxA154/S0dlEZXUGucUiwp9KMaBT1oZapRxqirdEQHAGIegPiuAVFYiipxfPCP+J4N+Kzl2xwhPHtvK2kj1R/FNEKlaJb0/VpxKZIgNTenbxT59fsRcUSZQUnYKoX3GfDHpFiJ+L+pWvihzPgaD3RrA9wW8Irw7xO+W5qeyNShtFHYovZvDnynuiTaoAHqePlhuTtF63kZlWRHn5SjIz8jBGmJTwyrMJaf2ooyVsR06ePMrZ018qxo1irxMlOAaBh5proq9iuBayH4+Kw/3en6u1JuZxYWExlZVVpKRmKqqd+S6SIMwjwmJhCOMdIaJrbKij4dZNSkqXERsb/1BfFUZC7e0tZGZmYTDMzyb8UA2bxUtCn1lff4MVK1Y91KYxi0/Ny6Pi9tvS3EhySirR0bHz8o35rlS4HDY01Ct+7LOJqne/dmk1GsWmQJANcVtNSclU/n++i9h0O3pucuXiNXyaYTLyokjODLpHzjZ+wlIKlOT1+LBaPAz1uBho9RERlsKyZasUQ1CT6fEmaBLzSkgSPB4v/X1dWCxmOjraEG6wa9ZsmNV6F8Sis7ON2Ng4ZZ0tVZIgLoe1tRepqFilrI9HKYIgBN1StcTFJSnhs+e7SIIw3wgDw8ODHD96kK6uDqqrNysuYA9TBDO/efOqor+NjIx8mCoe+zsiVe+F82fZtHm74ne91Io4mK5dvURmVg6JC7BA5wMft9vN5UvnqVq99pE3rZntE/7yiYkpc1rng/rv9rjo6m6iq7sZi60HU4ya9LxYYuMjUIubfghlKRAEn9fP2KCToW4njnE9kfp0srMKyUjPxRQVNUX0QutvCJA88iPtbU1KiOauznZMpmi2bN0h5CUh1yuI+K36myQlpZCYNP8HYcgNm+WDgjR9efwwGzdtUyRsc1EEWYqLTyY6OmYuqvvGOiRBmGeIBRO+UntBOVQmJy1s274HobN9mCI29ppzpxQRU9QCTI6HaeOD3pmcnODI4U95Yd/rj3x7fdC35uP3giCcPnmUwuIy0tIy5uMT816ny+Xi+LHPlbloMMydoZMgfI+q836YzgtxtujT8EgX7Z1NdPXWkZAaQeGyJCKihA7+m8XUi5kgKCqVYRdtNydEyAPSEsrIzSlWRMzC5kPEmVhst2uhbvjy+BcMDPRit9spLChhffXmWQ2tIAiXLp5TgjClpWfO6t3F9LC41O1//6c8v+91IiIi5qRpYrz1+qDUbr6LJAjziLDQMnZ3tnPhwhn0ej1m8ygrV61l+fJVD/VVsQmeOnmE1Ws2EBMT91B1PO6XhEX7Z598wGtvvK24SC21ItQ8x44epLRsBZmZ2Uut+Up7hQHtoYMH2L1335zdahYLEOLGNjzSy426GoZGuknNNpJVEEdUbPjXHqSLkSD4vAHGR510NVmZGFKTmlBIQX4ZySkZszLwXMhxETgKderJE4cxGiMV24Peni7WrNtIeXnlrJoiiNG5sycQVvsik+RSLYIs/exffqjsd0rI8SVWVF2949PBsZZY0xd7cwMMDw1x6OBHlK9YqdgiTExYSE3NpGr1uodq/JNDEN7ntTe+u3QJwpHPKF0mCELOQ43j434pSBA+YvfeF584gjCNrbiB9g200VDXwMBII0mZenKK4oiKCUetmcpbMPXwYiIIXo+fsWEHnbesTI75SIkro6i4jNSULCIUF9K72/6459L09wWGI8ODXKk9r6iZhMtrd3eHol7dun0PqbNUqwrd/bkzJ8nKEQRBrLPQ1ROLBRPRjiBB+IGy30mCsJhG5jG3RUQaO3f2JGkZmUQYIxgc7FdCkwp/5PUbtjxU6yRBeCjY5vQlRYIgCcKcYjqflQkR79jYCLduXWFotI3YFBWZeTFEx4ffTkr02AlCIIDH42N00EFvqw27WUdqUj55uaUkJQmJQaQSW2KxqRJmkoPR0WFuXLusWNYLG6kTxw8Rn5hEX18PW7c+M2uVqCQI87kqQq9bShBCxyrkJ4WtwK3664hgSatXb1AMC4W+SLBJu83G5q27Qq5r5oOSIDwUbHP6kiQIcwrnglUmDhyhE29suIl5soOYJDXJmRHEJUbMiMz4CMmaplIyBd0pg26Ot1Mu3/7ZtLB2yv0xEMBl9yrEQBgf2i1a4qNyKCgoITk56ytBpxYMrFl8SEhq+vv7qLtxheSUNCUVdHNTA329XZSUltPS3MCGjduUgEqzKZIgzAat+XtWEoR5wFaw5sZbNxXVQmxMHCdPHqGoqJRxy7iSAW3nrudC/urMmAH3Iwji9rNYbxYzbxjTbQzaINxRMUzf3hZzH2a28X4EYamNwf1UDEs9NkWoC0pJMGQepb29gd6BBrRGB3mlIoyzuKVPZ16cOtyVTMnBAz/4E/GD4E9uEwHln1OkYObPH0AQPB4/Pa0W+jutqNzRpCTlkJVVQlKiyLAYqVwoFvOaEF1VXE07Wrl18xpFJWXk5hVinZzko/0/Y+9zryghmoUNQtWaasUG60Fl5jr7OoIQjCWzONUswakQjFcxrQq6n4phKa01SRAeNGtn+Xuv182nB96jpKyCwqJSxSDsyBcfs33Hs8oNRqRJ3fPsyyHVKibS0S8+URZYXHyCYqk900jROjlBa2uTItIzzpGFbEgNm8VDQopSe+mc0gcRpvVegjA02Kf4Sq9Zu3FRbohisYvocMIfOyMzR0lcM1PFIA6cq7UXyMsvJn6B4qPPAn7lUbGRiz5kZGQRn5A0ZaR4xwZBzKMvPv+Il1/7pUWr455tnx/0vMBE+Ow31F/nQu1hMvOiKV+TRkR00OtBIQDzQBCEu+Jgt5VrZwfRqvUUF64kJ2sZiUlpt3NZLHZiMI2tsKm6dOGMkpBL5NoQ0oSasyfR6nTKehaxX8T6WFZeGZLFfWdHm/J8Xn6REmjpXhsEoaZtb21i3YbNi5YkDA0N0NbayOo1G5V4BfcSBJHdd/97P+HNX/r1kDB50Dye799LgjDHCJ85fRyX08GWbbuVCVJ38yqDA/1s27Fb8Qm+cb2WfS99K+SvCpc6EWGteuN2hOpiJkEQgUR6ujpYLRj6HLqrhdy4EB4U6WKPH/+cgsJS8vIK7yIIIkiPkCZkZuWyoqIqhNoezyNNjfU0N9/i2edeUSLDzSQIQ4P9ihvr+uotizZwkiA5tZdqFBIpNnNxs5s2UhSk7dLFs4yODLP3udCI6+MZhfn7qtU6wZnTRxgcaSenNJLkjAiMJl0wg+Q0WXhICYIQJPh9ftwur+Ku2NU0wWgfFJVlU5i9nti4JMXGYKmQgntHYVp6Jv4eHhpQktNt3b4bkXnwxo0riv2VyPQZSv86O1qV7JAVlasVF+iZBEFEVTx/7iQi1saqqocz8p6/GXSnZhEU6tSJL9i0eRexcfF3EQQxzg23bnCr7jqvvvH2QjTnkb8hCcIjQ3inArFIhIRA+O2KoBh+n4/33/sJlavWKrf83t4uZZK/+nrok0Ns3OJAevaFVxUDx2mCEBkZxdUrFxTRnWDoMxPkzGGXHrkqcaAK4yWb3cratZuw2W23VQxiY/7g3Z/wre98X0kos1iLEJt+8P5PePb51xRJwjRBEDfy+pvXmJiYYPXa6kUd16GjvZXenk6q1mxQYJ4mCGLOfv7Zh2zavIOk5NTFOgTz3i4hGerv76KtvYlJWw9hkQ4S04zEJRsJ0wf9zWerYhC3YOuEm6FeK+Z+P157BAnxaeTlFRMfnzqV6Eg7731biA+INND19dcU8Xr58lXK3nf92mVFqpadkx8SQRCGjkI1W1K2XAkCNE0QhLeQZdyMuHxt2LiVuLiEhejSQ31DzKOacyeVfULsyzMlCIL0nD51TPFKWSoeUJIgPNQ0CO2lsdFh3nv3J3z3e79JeHiE4vLz5bHPefW1X0KjDW1jEAvu0MEPyS8oUXyCT508qsRBEAFSTp04wqrV60lJSQutQY/pKaFaEQepOESFujZog/A2165cVFw/d+x6LqQN5DE1X9n0xMIW8fKrN23j2JGDipujwL3m7Akls5oQiy7mMmEZ59y5E0oMDqGumiYIQiQqxmbPsy89NeqFbxonocYbHx+lt6+Njq6bBLQWiiuSiE+OmBVB8Lh8tNaNMtDpwKhPJik+m6ysAuLjE6dCUy++AEePMn+F11bt5RpFQiXCkIukXCI4nAh0lJ6RFVLVQh0r1HXpGZmkpWfdJgiCiIsskWIOr9uwRZHMLuYibNDqb1xl09adypqadnMU6gUhQd6ydZdy2VsKRdUt4yDM2ziJ/OhCvbD32ZeUb4gb8+FDnygqhtlMciHe7unuYs3aas6dO6nENR8cHKCl+ZZStyALi7kI1cjFC2cUyYpg/59+8j7Pv/AqR48c5JndL2AyRS3m5ittE4v7/ff+hRf2vcbF82cUgiBIn5DibKjeqoiJF3MRkpzTp44SboxQgtYc+vyAYixbX3edqKgoJfCTLHcQEKRQ6MMvXT6lRP4sWZlE1RaRZ0L7jUaKAue+zglOftxGpDGGNVXblEA/SUmpIV8KluI4iAPcbB5RXLhFRE2xXurqrpGfXxTyjV9gLuajkDauXLmGmnOnyc7JJTk5lSOHP2NFRTDnxGIvwsDy6NGD5OYWkJ2dx0//5QfKpVAYbAoSJFQoizWexb3YSoIwT7NNbC4ik6MQM4m4/aLca+Ea6qdF0pMLNadZUbGa6zdqWbVqLRcvnFUmX2nZ8lCreWzPCVHrrfobittnfkGxEklRbCTCAlqE+10qi+XIF5+SmpZOT3enQhCEcZ8wdFtVtX5WhO9xDYSwWRGGYxuqtyjkbOPGbcq4CJGuiHkvy1cRUBKuWcycv3iMMcsAcWmQmG4gOlaPTqgeVCAMD+2TLkYH7PS1O3BaDOTmlpCfV0JMTKxCypbKHH+YOSC8Qg59/pFiiC0O8+nyMN49QsoqIiiKfeHa1csKQRBFEJDtO/bOaWjwh+lrKO8ohs03ryo2GcJYU6iZ9734Bu1tzYpdQl5e0aKWmM7soyQIoYz4Qzwj9GniEN++Y49infwoRTBSkYNBZIHs7esmOztXYdq7nnl+yUTnEsZH9XXXKFtWwReHPqasTNzAw5X/D8WA6VHwm6t3m5rqGejvVfShy5ZX0t7WohheitzsS6EPQS+Yw4rHhdAPC0mCcLsVaqq5SiQzV1gvtnqE18PQUB9dPc2MjPbgVveTlB6JwahlqGeSyTHQEUtSQjZZmXnECVWCiJe/yMXhj4rzdN4FoXOvWr3hkYmQCJUtpAVC2mgZHyctPYOuzjaSk9MoW7Z0pFxm85iiciksLOPYsc94Zvc+RAIroYJJSEh6VNgX7H1JEOYBasEgBVscGh5kzZrqOXFnaWwMHk5Op12xEDZGmli7duOc1D0PEHylSiE9EEZGQkQoRN2FRWXk5RcqOsqlUgTpEwercLdatqySlpYGRUwfFRW9VLrAtWuXMI+NKdEFxVgIw6nlSzT19kKDLta1OMBsNhv9g21cu3GOccsAhblVxMUlk5yUQWxsgpKwSkgMlgJpfFQMhRRQePE89/wrj3wRmm5LW1uzIjEVrpNhej1i3W3ZsmtJrTOhahI2GMJosa7uKtXV2xQyLvJSCM+hpVIkQZiHkRKbiBAxhRuMisXqXGwU5rFRxTp2eGQQg96gRGNMSUmfk7rnAYKvVCk212vXLtPX2634CQtjuZVV65bUohfugWIzvH6tVknZHRsby6bNO5fMGIhBESJcYdwqCIKI67B8xUrS00MzIluIebJUviHms7g9C9//YAbLICGYi7W+VDAQ+nShDhAqVBH9ca6KkJj+/Kf/pJBXtUaj5GIQ0omFyF44V30Q9QhjxRs3aulsb1WCSAmpiJCcLqU5IgnCXM6IqboUa9UbV0hPy1QseOdiQojNSNzAL186pyzG3Xtfwmicm/zi8wDBfasUN4GP9r+jZHzbuGmH4s8sNoGlUsRh0NBQp6RKVqvUvPLqdxSisJSK2NSFAVX9zavKZiX0usZFbmC5lPB9mtra1dWhkP116zYTPsd7kYjNcfLEUcUjYseOvYo0YakVITU9e+ZL5VIhklU998Kripp4KRVJEOZhtITRjtC3CzF0TOz90zIL0ZO4kQrdZkglEECoGc6cPqZYwYrDdTYhR0VqZWELMRdkRbR3+gYlPBTuJLv55p6IgDHCmGlwsI+t23YrVr5TYeseCIE4kPUG/Zy6BwnshV7e5/VMWaY/sBmIwEjHjx0iLEzHiy+/OatbjbgBCV3/XBmsBUXewXkkRJqhlOnIkOdrTrFq1TpFihPqnFChIkwfNnVjXprZ9ULBSD7zYAQE0bx8uUZx2ywuXvbAOSSMtsVaC3WeivgvBz56h5zcQjZu2j6rzK9iPou9bi7TyYt2i/aLfoRahFt0Y6O4UBxSQu1v3/lsyGtf7BFir3jcUhNJEEId7Vk8J9xZhG5OiMUMMyIcupx2hoYGGejvZNw8gtvtgUAIG/tUXHdxEExMjisudcbw6eQnM7N1z/j3XbHgQaXWYNDriYqOIz2rkITEZHRCNDqLNKricJmcHKe/r4ehwW4l7rrf5w0NmWD2GiXttdPlJCY6RjloguVOEpvblc1of/AJleIpEG7QE52QRU52LqaoGDTa2UkgvB4Xo6Oj9PV2Yh4bVNyOxEIOqUzpoIVXiXAtFRbqd7d/Zl+mu3Uncr/YuESfIyKjSc3IJyU5GYMx6oGb68y2iWA9TruN/oE+hga6FINJodKayg70gG4EwweLPot5ZIqMmmGc+HVjcKdP4gm1RqvMI1NMEtk5hYqaRRe2dHSqIY2zfOiBCLS2NCqJmKo3bb+vm7LwXLLbrPT39zI82K3koVH2iql94Js/EMDr8zI+Nqoc9JEm04x96pvn6fRvxb5g0IcRm5BOZlYe0dFxaGcZe0CoOsbNo0qAu7GRPux2sVeEcqELrjNRxJ5tHh9V9myx3kLZ78Srgn5rxV4REUlyWh5pqSkYI+NmtVc8cBBDeEDV3Tc+84QJ4RX5yIMQuHypRjnMhPGXYIJKGNLhAa5fPo3bOUledirZGUnERJvQau+flCV4KxcTTRxeU38H/Pj8PjRi9gT8U4Fb/FOLznc7aQxM/Ux516+wdqfTzfiEnd5BC539Exhj0llT/SwRIeZw8Hm9tLc3UX/9HDEmI/k5qaSnJhAebkDzNTnqg32Y0ZapvogDTSs6Ifpwu59i4QWT4QTfmdFv/Hh9fqxWB2aLjdYeM2MWH7nFVRSVrQpZqiBcEuuuX2Cwr52s9ERyMpNJiItBr9fdd+HdadvdbRIbh1olFrFIzHJPW6fbfc8YBP3qPZgtdgZHJ2nrNuNThVOxdjepaZkhSYNEHUKCce3yKVQBF3nZKWSkJRFtilDm0f3K7T6I9ihEKIixz++9M4/uavP0fJqee3f6J1QsNocbi8VG14CFrgEriSn5lK/cpJA1WZ4OBMQt+vjRQ2Rl51BcUn7ftdPT3U799fPoND5ys5LJSE0kMtKIVvOAeXp7PfmVaIwiL4Zqai0pa005eafm5Mz9ZcbPxB5ps7sYt1hp77MwMOIgLaec8kqRNCo0jzKX08mtust0tNSRnpZAbmYySYmxGAx61MFkHXeVO+tsag+bsS8IKZ+yPG/vd9NrbObeId6b2gPx4/F4sUzaGR6z0to9zoTVTfmaPeTmFS+oVEEShDle02KifPTBO6xdv1ExShFFeB9crDlGUU4CVRXFmCKND2SCdxGEqYNeOTxv/zt4+AcPqJmL5m5CEXzmznti0QmicPJiG91mHdufeVlxu/kmMbOY4CJccvOtS+zeVkVBbvoDxXd3L5jpBX33oR9cMF9t73R2PBS2Hvz97YM4ECQ87T2jnL7SS3zGSlatfrCniIjsVnPmGGFMsnn9CmWxhyJav5sATJOwu/tz55l7+3ln0c+sR9xC7E4X9c2D1NSNsbr6WcWI6ZvaI/Ds7mrn1JefsX5VISuXFxMZ8eCb+10k7TZJmIm5bwZJm96w7iU9wY3r9jwK+JQxGDFbqbnWgzWQxIbNe2ad0neOl56sbgEQEHNASA6E66HIN3OvDZH4vUggd/HsYTatLWN5WT7G8Acfyl+9TEwflgGRzGJqr/vmfW76UjFznnp9PgaHJzh5qRN1VAHrNmx7oEuv3W6n5uxxfM4Rdm1ZRUpSAhrNgzNI3v+ycPf+fP/97pue8eFwuunpH+fIhT6KV2ymuHS5EoxqIYokCHOMsrASF9ESX339LcWdxW6b5MzJQxRkRrG2ahm6EP2i54sgKIto6pA9fr6VbrOR6q3PEh0jbCW+yozFrVG4bDberOGFZ9aSkhSakc18EoRpiUr/sIV3P79B2crdlK2o+tqIkh6Pi9pLZ3FaenjumWqio0KPejgfBGF6DETdN5v7OXN9nPVbniclLftrJRmDA72cOXGQzWtLqCj/ZjIxc0rPF0GYTnc8aXVw6HQjAWM+1Zt3o9U9OK3vHC85Wd0CImCzWRXpQfnySnJy8+/6siCNQnJw5OD7vP7iNkoKQ3dhni+CML1XmCdsfHi4jpi0StZWb0ervX+oYyHdvH71AhOjHTy/a/0j7BUzyfYdYvMwBGFa6tfaNcKZ62MsX72LtMy7sZ+vKSAJwhwje+L4F8pBtWnLjmAM/+OfoFPb2bN9HRHGB9/4ppsz3wRBTDqH08WXF7tQmwpZVrnpvqL68bFhLpw9TNXyHOU2EGpZCIIgDtqufjMHvmxlw7ZXFNuKe2/hoh1NDVepu3qWb728k6SEabuB0HoynwRBSEeEdObc1S56x42s3fy8Yp9wb3HYbVw6f5z0BD0b1iyblYhxvgmCEIuOmm384uANCldsZlnFppANsUIbAfnUYkKgvv46vT3dbN6y8ytRDS3jY1w8d4SVZRmUl+aFJKG7e7+bqY6cGwnCbZWE38/gyAQfn2ilaMVmCkvX3HeeDvZ3c/PKCbZvrFDUd7Mp8yVBmCYIQkVZW9dD62CATc+8hV4f+nkym37MfFYShIdF7j7vCeOvn/3LD9n34uuKEeDw0CC/+Ok/8Ie//QZJ8bM9mGbYIMyhimH69qqIjP0+WrpGOVtnY+X6Z0m+J+mTOFxEsA/neAfPPbNeMfoJtSwUQRCL8kxtBy2jsWzZtoeISNNdTRR2Bwc/fZ+9W5ZRXDB7f//5JghiPCasDj493U1KXjUlZSu+snF1d3XQ1VLLzs3LiYuZXd6K+ScIfmUe9Q6M85Mvenn+pTdJTEye1eEQ6pySzz1eBIT04MtjhxQPKuHeO5OMC+lBU2MdtrF29mxfRdgs3ZfnVYIwpVoTa7m+ZZDDtTb2PPeaEvb43j6IVM2psQE2rav4WruerxuF+SYIgoxb7S7+af8Viir3KGH8tbPEebYzSBKE2SL2Dc/3dHcoWf/efOtXlafOnjyEyjfOay9s++pbAWE46MLjCxq1aPXhhIfd0XMthARBHE7C6O/Y+TaMSSspr9www7MAhDHeqWMHWFGcQnnpfaQHfg+TVheKxZ5aS0S4MOAJdnWhCIK4hfcPT/LZmW6Wr9lLZnbBXamv21sbaKqv4e3XnkGnu5PUSrg2Ol1uAmjQG8LQfY2OcSEIglDjnL7cSb/VxOrq54m8J3mVMKwM849RvXb57T4oRo8uFy6vP+hZYAgLGh3eUxaCIEyTzh/sv05mwVpKlq8N2RhsDpefrGoeERDzSEQ3FL7923bs+cqXPG43N66eJS1eTWV5EerpjWDqSUEiHQ4XYrsTlofCuFk745mFIAhir5iYdPLe0RZyS6spLFl5l9RUxJr58J2/5/UXd9xHehBA9NHhEgbKKlTKmtOhmWGwuBAEQay1o+fbaO51sHnXW0pI77lym77f9JEEYY4WlWDQIrOfsD5dt36TYsT16cfvs35FqqIz/kqx9/FP//Pn1Foiiba1o135Xf7g5WwCPg1x4X5GJjzodWrsVhveAJhMRnDbmLS7ha8ZcbFG8DgYH7fhU+uIj9MyMTSJRzHq0xIdpcLjVhGhD2CxOgiPjMSo/aqxoHC1/OJsC3ZtHvmFZaSkZt5OPCT8fk8c/ZBdG8vuL24bPM2v/tGHxBVnMemL40/+9DUy1W48qjDwuPDr9Oi8DiZsLjRhOqLD1VgmbIpHQphBT4xJtNmMIwCG8DC0Xhc2l4hJEFA8CzQqvxJqVee1M+bwExsdjk71VaNGh8PNO4dbic9cqfhkB+0pgiTl5o0r2M1tvLhHhKWeImC+CY7vP8y59iGM0amUb6yiIk6P8HBWq7Xow9Q4nR7FJMNgNBJtUDFinlDUAYZwI9FGNRPjNgIqHw6PnyiTkTC/E6tXpTxrtVoR4S1cSowIPzqdBjV+NOFGIlQuJuweIiL06DVB49Hpm83pejflK6vJysq7TdREH2ovnSY5yktVRUmwDwE/Q53NfPLpCQYCESTEJrN2exUpKg9CMKtSGQg3+LA7hPujhtikGLRuG2MWq7JBR8dEoQ84sUw48Pq9eNVhpMbqcdhsBDQ69H47I1YPOjVMx7kQm6H4riFcj99pxYGO+AjtlIV5cF4drumg15qguPcKCdp8blxztGxlNSEiMDIypBCEylVrSbtP0CJhBHy99jTF2SbF9uBeVZ994BZ/8Tf7sUcm4LXaef5Xf5nN6VocPg3agBeHKhyTxoFl3I5PoyMx1oDNYsbu8qPS6kiI1eO0TDLp9KAN02FQi9u0U/FpCAvToPJ50UVGYvA7mHT5MEXo7+wVM4xz3W4vX5zrYlKVofQlLi7xNgJC2vjhL/6B3/r+y0Sb7rFT8to5deBD/u7ECFV5kVj9Rt781h5itD4iomPwuxzoDFpclknsHi9h4UZMej8Wi1XZ73RigozNhwAAIABJREFU3zCIxF9WXF4feuH95XVid3kUA2CD4kkVwGgIw2OfxKXRExuuQaWs6GnPCGEk7WdgZJK//sk1Xnzl26SnZ89roDNJEEJcIA96TDBrEQpZHFDCe0EcriJq4C+9tI7EhPu4gNn7+NH/epd2TQ5J5lp64p/l1TVero9G8avFo/zPM342VOUwNjBIf0cz6qwKlsV56ekfpb1zlPJtG8jXjFHf0MP1djOr9q7GU3udq0M2sjMLKMsco64rnKIYN0cud7Hppb2sFQn77nHLE7fXLy+0021NoEAQhJSM2zdYEbPg3KmDvLJnLTHR9zHsGzzNb/6bzyhYt4zeHg+/8scv4r50jD5DDt6+bsJLqyjWmWnp7Kd33EVlZRH20SHM4zYmvBo2r82h91Y3g5ZxxtV6iuMiaG+sp8Mbw9bKNEYH+kkqKMFdf5GzZgNvvrKRrIivEgThmfHO4RZ00cXk5RcpUdfUao0ShOrSxXNEh02yfdPK25uWo/0E/+ovjvPyH/4hO/O0dI+O01d7nRPNg2QWLieBQW6Oqck12nAbMliRpuKzm2aKY/xYvGqqK1L58kAt6uxUfBMjRGcXU6Ib4vxYLLtyvRw6fYukrFwiLZ0c73CycW0Rto521BWbKLXWcaTFyd5dqyiI09wej/ZeMwcvjFNSvpaU5DTipjxLRB9qzhylLNdEWXGu0ge/28ax93/GGUsmv/3dXcQFzDT2jHCr5jLN7kiq8ovxWOsYsGoY6Rhm0/d/ifDWs9QP+9E6RglkLGd97BifHO0gMcNIy5CTl/ftwN5yCY8pBX/bNY72+qlekUvLjToc0RlsLY2muW2I/PICei9dpCe+lN/cmo5OfYd0Xqob4HKHTjFgy84pWFJRMh+0vp/m34s5KIi21+NhRWXVfW2VhPpBuN+uLk8lJ/NORsdp3ARB+Ku/PYgxOx9bZztV3/o2ReOXuDQeQ6R9HEvhJvbEDlJX387F1nG2v7iTiKEmegZGaez38szzq1H1ddPWO0S/zUtRVgrWzlvU9MOmNfkM1TcQselZsgYucHZAw0s7V5BuUvzBg55QiouvH5/Pz5mrfbSORlNauoycGZkVRWjkU0fe4/d/442vZmedIgj/64qffRUxNHWOse+Z5XzwyWmqX3wDR9tN8soLcQ8OMDDQT4fLxPa1uYx0dWMb7ubaRDLf2p1Df2sPlt5mmgNpVKVqOHOhHm1aEdV5elr7Jikvy6Du5Dmsuav4XnUqWtVXCYLb4+Xf/T9n2PvcS6Rn5CjBqkLxyHqYOSwJwsOgdp93xkaHuXrlEuvWbyYiMhKHw8GHH/yc3357BxHG+7j52Pv48Q/3Y05axSZ9A/94FXYui+W6LZ5v+z7iQ91r7M138cGBc3T19ZGzbR8v58HHn56iQ5vGH/7m8+i6LvGjdy7RNGph2+/+Cft0jfz8Qj/7dldjHDjFT2vcmLwWajon+f4f/Ap7c4OxB+6NrfDlxQ7azTEUFJUpIivBqsXtb3xsjAvnDvHGC9X378PgaX7n3x9lx6s7aKi9TO4z3ya+7h2uedKZHLax961duGuO8/6ZBiZUBt745deJvPYFP7sxTu6KlXx/Xy4f/cUHXLBZ0STn8rtvbmPi/Cd84ijkT59L54tPTuMMj6Pj2k36DMn8m997mZKY+7hx+v28e6QFIgvJyswmLT0LvSEcEbvh/PnTpER72bj2jr/20Il/4nd/PsCf/+//llXJKgJ+L/a2q/yf/3KGLS9/B0PjQf7fzxuJ1WsordxAjL+f8aJNfDfPy0df1JBbkMax98+Q/9p3KLXW8mm7js1pdk6NRFFsqeN4v5p9r+5hV+AKv/vhKH/y67u4fuAQw8urMZw5yBV1Gr/3vZ2sTNHeHo+u/nE+OTemEITo6FhS0oKSHEF+hBdMZUkCxQVBq3Cvzcy7P/ifdKTs4o9eXU24FnwOCyc//ZjPLVn82auVfPxPf8vHN8zYx+P5N//9Teo++JycLbvJtFzh7067+c4aDR8cH+bNN6o4/u6neDZ9myrbWdoHfXR39NDqNvCnv/YsFz77hInCbfz+avjHX1zEmBhHfc01VKt38pdvFBI2gyBcbRyipllFSekyMjJEIKulk8RqjraBJ7IaERjs8sUahfglzUjnPLOzImja9dqTrK/Muq+0URCE//oPx8hbuw5/+3kG0rex1X2KA51G1M4Au3/9DaKbj/Hjn52jYcjCi//6P7Jy7CQ//+wy9vSV/Lvvr+b6h4f45EoHdkMUb7/9MitGT/K/nfDwB29X8+VPPsK15VkChz+gKbqIP/3lzRTGConh3QRBSHbPXeuncSiS/IIisrPzlXTconS0t3Dp7EGFIHzlwJ0iCD9qieb3d6VyquYqywrS+dsffcLOt38Lf28Du1+o5MyPPuF0ez/OqEx+5bvP0X3sAGfqOkne+V1+tdzF+++dpKmrF1VmGX/4SiU//8lHRG39Ft/NG+Unh5qICVdz/vwtErY9x398MY8w9VcJgpA4/qu/PqlkiBShqJNT0ufN7VHVIwMlPfKiFmLgttZmhoYGWLsumGFRSBT2f/AOv/PdHff3A7b38c8/+hhV2R5eSW/j3/63Gsqr8jlz/gZqZxq/9h/20PLZKcK3bCKv8SP2W5bxOy+tJtngYv+PfsSt2A2kt5/EVLmOztqzqLf9Kr8U08JPzvby6gubULcc4f/4cRebN2bS0NbPzu+89UCCIDIsRkXFkJiYoqSpFVn/Lp47xOvfQBD+4D+d5s3fe4vmg+/RnLmHdSMH+MfTTra+tJvnVpj46d9/zo7v76Tp5GniKp9hZ2UaqrEefnbwHCbfOD8/Fc2f/1k+X57oYN/z27DXfMh+ezF/9kIa7/1/Bzg6GM3b6zX84orrgQRBFVlIenoGySkZSnQ3oRIQYtGUWC/Va2YEdGk9xlt/cZLv//EfsrMoHLPVT4Kjjf/wwy/Z8cYvo7vxOad0ZbxVMsAPf1CHP8xPyvNv8L0cJ+8eOElGfgrH3j9L0Zvfo8J2kXfqYGumk3c+rielchXZ4UOkr9zKPlUt3393mH/723u49N6nHOn0UF6ejtXl4eUXNn0tQRA2CKmpGYoeX9zezpz8nMqSxNsEAbeVL979KccsOfzrX9lBlMqJxeqlqeYQn5pz+E/fruTTd96BojK6f/YRzWU7yJm4ReW+V8k0X+S/HprkrfU6PvhyhO+/vZ4j//weYxu+w5rBz/nFdQ1/tNfAf/l8jH//O/s4/8kBLCU7+eMqH3/51x/TFZbGsgQbbVHl/MXr9yEITUGCkJCYQlKSEFnJstQREHllJiwW1qyt/tr4J4IgXHsAQfjrfzrLhn3PY2g6xDu92bwRe42/+GSQ9bt38Gvf3sahv/nPmFZs5PLpL0nf9/t8txTCHX38t//1McaCSvpqm3nu7dVcOl5L+c7nWT9+nH911MOffm8jX/zwfc6N6SgvSsSmNfD2vvVfSxBqrg3QOBShZJMVaaTFpUiUdoUgfM7v/8brX0sQfjqUz1+/mcd7732CKSqKH3/4JbroXJ5/ZRflvqv8y//P3nuAxZmlZ6JvUYGioBI55xxFBuUcW+o06u7p7umZntAzszP22Otdr73eWfva17u+19dee2zPXU/qnukw3VIHtVo5IiEQSEggEDnnVBRVBVQO+3wHIRBCUIUAgfSffvqRBH845zvnfP97vvB+19zwvW9E4Fef1uLA4cPIDeFD0noRh/+lEoUZKfAK9cMbsnr8x6sC/Olr+fjot59BvvNNvB05gH/8t3MY8AxHhmIY3X758wAEB/7kH68wgODj4zupK5apQiQHEJZg95ISr6m+zUxvKakZ7IkLAgTjMI5/egbNJgUi3UfRLYpBjp8Jd8YU+GbKIH5xYhz+PkJo+Xzw1e2weicjLUCAEfUY2geGkZKXB0FrOapH+TCoBhC853Xsk3bh1J0h7Ni0DryuMvz+hhUvbAzA2WsNWLdnLzaEzG9BIIDgJZUzxU5EHAsChJFK/NX/V4TglGjoDFZs2r4N1prT6PCIAr+7E6aQaPBaazCuUMA4qkVCWjIcozoYrHporALkhvLw0RcdiM6UYdwgwvN78qGvvoTLxkh8e5Mfzn1VgjH/BOz1H8a/lWjxrde2IUr6aAsCAQTyj9Kml8kVjwYIMKLsq9O4M8yDn48U4rB47A834V+PVSBv13MQNF/FiRYjYqVGWCRRiFfocKXTjhhPE/OVbl6nwL///WewJWQjVKyDIiYVqcIBHCnV4c2XM9BSVQVZQja28Orx0/Oj+PbhQtSeL8YtaxDeLPTCpap+bNqUiUTfaRfDTAuCp6cUQcEhEIslcwMEODDa24qzZ2/B4usLKQQISEmGpOc2ro4F4z/sScCFL46icYyP4X4L9r2+F6a6a2gdd4dQr4IkoRBpqME/vFeD1Jwo9GkteO3wXqhvX0K3WyheCh/FX58ZxHdf2Yyaq0UYj8zHm8lW/PqjG/BOTkGgsQPXzaH4ya7wB1wMzIJwDyB4+/gydxXX1rYExsa0OH/uJNav3zJvYbKFAIJR1YbffHQFPO8ACMw6BK3bjMiRElzTesNnQo2O8EJkDV/E3VEBNH09iDvwBiK1NRhUj6NBZcbO9YmounwTVj8vTGgM2LRrO1LHbuIfyqx469A6XD92AQ0ecTic4Ybi5jHs3ZKOcNnDLgayIMwECL5+/vDzm3SJzAsQbAbcLrqMo3fGkRsjh8ZgR368L949ehGbX/kG9I234O8rQFXlEORhYgwO25Gbnw7rYA/Mmh5U6P2wI8oD9d3DkPLU6DP44NW9aTh1/DykBQfwfNAI3vvsDqJz0iAZuItq90R8n7nw5rIgTAMEb28fBAaFLkj+tNhVyAGExUpuxn3kf7t9q5wh0qnSuQsCBLsV2lENtHoKhuNB6u0LD4cB41Y+fOVuGB6cAF/IY/zfdh4gEYtZYA4LehEIEejtCathDCM6I6P89VAoIOOZoDVYIPUUA+Yx6IyAQuKGUZ0eYqkUXsI5GA0ddky5GFwGCFYD+vo1oDAbgYcXApWeMI5rYOZ7gG82wsgTQGQzQGewgC9wg0wmgVWjhc5ihVjiAW9PGqcGFp4DQpEISpkH7AYdxu1CeHvyMa4dB89dDE+eAYNjVvgoPCdN2jOopxlT5D0XwzRACIJMrpwHIABWswEqlQYmmxDe/gpI+TYMa/XwlMoB0xhUWj3A40Mql0EqsGBwRMc+1hIvLyjsXfjLvzyKsOdfxb4EL8jlnhDZDdAYAV+pABPjE+C7e8ALBvTrzPBWSGDUjcEkFMNbaMXohBlenmKIBdMU2rMBAqWRUbGWOS0ItPYcdoxpNNBMmMDje8A/UA7bxBjGbUL4ysTQqUegobUlkCAk0AuWcR1GNONw8HhQ+igxXHUWPzvWixdf24lwPynCfMWYoNoabkJI+Sb0a83wkXvCMK6DXSiGUuzAiEYPd4kYbuYJjNsF8JMKHwhS5ADCEiiTVfQIWnsXL5yEl5cM+fkbmVXxUW0hgGC3mjEyooHBbIObSAxfbzlg1GHCLoTIYcGoVQQfoQHqMSPcHHZIlN4QmLTQjBkBdzGCFCJo1VqMma0QCviQyzwhto1jaMIOb7kYExodrO4SKPhmaI2TQYr3dcWMGITZAMHH1x/+/k4ABKotMT4OtXYCdvAg9vSCt0SAwREtpN4+sBtIX7vBMDYOAwVhCwTwkoph1GigN1vhLpNBKbBiRDMGM2Vx8PmQS0XQaXXgS6SQCyxQ64yQeLrDbhiHnieCLwsC5gDCKtoSi+vKwEAv7tZUIS9/I2T3/K4LAoQFXrVSaY70oVk0QJhnDCuZ5rgYgODsTM+Z5midQGvrADyDghDoxZ9Rj8E5quXpOJDp610GCE4O4FFpjkadCt3DJoSE+rIYhtmg68E4lYeplqeYFO+PxWEHBxCcnJQ1cBmtG+LfoBLzz7/46oI02gsBhIWGvFJpjosGCAsNgGVNzVWX5fGplmdnMZCsplwMnAXBiYl5kpfQZNXW3oFqeAgbNxGF5yRHNgcQ7hE9zTztzyrAtNhaDEthQXB2zawED8IkI+R0kCK5GBa0IDg5gJXkQeAAgpOTsgYuI9K36yVXEB4RhZjYhAV7zAEEDiAsuEiexQvIDHel6DyCgkKQlJx2XwQcQOAAwmRxranT96NOF5M/5wDCs6g9VueYp6wHVLI+J7dwQesBjYIDCBxAWJ2r+Qn3isg1Ll06w7jJlfcIeiYtCAZ88fnHj85iWKDfJoMediLtEbqBN5tq2WGBfsIIvrs7RHzXqjnOl+Y4HYMQxFLsFgxSXA4XA6UcGk0sE4T8lm5CAdwplm/KfDdH9ceHXAyBwSwbg2rKsywGxawsBhfWzIIWBGKIMxoBYlYj49EDZsbHAAjBofCgVM25shhc6v+MkttLWM2RczG4MAlr7FLi/K+svAmpVIr4hJRHlnOfOSzSg3duPTrNcSEROOdisMNsMsLq4DHWWYq9eshdN6vq6FxpjjODFJ2OQVhoAE/SxcB0hcSJHrp+Ca+nX0sahGuLlEBzUz3z1RH96EzmOGZB+GzxAOH6mWPQ+GZgW0YY3Flg3oxCJvp+fHL0BqJ37UJOIDHrOV/u2SmAEEAAgbIYRnCzdJ40x+UACOMqfHr6Ovyi4qHubEVAZj7WR3i4DhBmBikqLA+mObow1wsChHEVTpwrAS+2APtTFUsLEKaCFK+cfjDN0aX+P0GAEDRZ7pxra0sCquFB3Km6haycfCiVzlVvHR/TLT9AsBhRebUI9W4ReGF9NCQzgnwn9eNUafgp4DBV8GmaKOnhGISA+9wO7e3NqCh5RJqjE1P4xGIQgsOWMYuBAwhOTP3cl9CCKLp8Dv4BwUhJSX/gIuM9C8L3XtsySZPsYutuaYRR4o+oACn4jD55BkCw9OFXf38ZSW+/gPUB7Hh97/dzm7EZOr9vhXjwGuJIv3yjHT1jvoiOTZxMc3ySAMGsR31LFyR8B46fLUPktgM4mOy1egGCWY+m1k7wvEMQ6+fOAYSZaY4cQHBx1z/5y0mnnT5xDCFh4UhLz3KaLptZECquID8jHGEhrlVBpFE7ZUGwWTDQ1QEV5EgIlUPotggLgs2Ga1X9aBuRIyo6Bj6+0wChs6MNN4pP4MfvHGb1FlxtKwUQiM7/v/ysBHv2HoJCMUmqRhlPy9E4C8JjSJVQM+UIb922m1UGm9nITPflsSM4tD0FEWGuE8ac+eiXUAWkwFJ8DWdUwDvffwX2uxfwWbkVf/DTlxHnzoNJP4qvjp5EUU0fhvV2/Pi//SdsC50jDXAegGAyTdZiMItjERAY9hBAuFFKTIqFC5eqtpnQXH4a//jb27B4++PlV17C9hRfFh3v0A/j5NEvUdxqwJh6AA7/FITzO9HtnoD/58c70XrtHD78shoDHuH46fdzceXEJQQnZ6D77h2nAcKR8y2sbDXjQSAXw5QFoZzqGFgeYFKcd8odFjSWXcb/ercYRliRsmU/Xs10x9/95gJLmwxPXYe3no/Hib/9AMVmEfJzkuA+2gFJaj4cVcXQpe7FfsUgTndY8eaBTMip/gUze84fg9DZp8HJskkmRRakSGbD+xYEIkqaZlKc3f+Rxsv407/+Cja5JyZ0Anz97/4CAdVf4OPjt9EpTMA//c0B3DryJSoHxtCrGsf6517Cm+lCHD9yDGfrNBDFZON/vrMFtqEWvPu7i2joHYbALxEvbPLG7QE+3tqbjiCpGyvAw9xd9+IqHggWddhR2TCI8hY+EhOJkdOX1fXg2tqRAH2kW5obUHz1Il5/87sPlXOebyR6/QSjWs6I90N0JFV6dGbcNvTU38a/v3sOvWoVfJO24vsvxOGTT86iY0ADWWQC3nktD7VHj+PzmhEEZ2Zjo0cPmgRhCNR1oVJZgD/NtOKrim5s3pKFGB+qNkt77dEWBKrFcJZqMSAEoaHh8Pbxv29BGB4ewrkTH+BH33kZHmL3uQegqsD3f/w+9Eo5rAY37P6TP8IGUxn+/dfF6HALxh/94X5oii+hcliPtgENUjdswx/sT8DNzz/Av5eqIA6NxV9+/wBk1gF89N5plDcPwiwJx394PREXyzqx77mtSPfng8+ftdem4pkcdvQN6fDPv6/BvgMvMh3BAQRn1toKX0OLsLe3C9VVt7F9x16IPR6szU2/L7l6HnyrGi8dnKOa4wL9PfHezzGsiEF3cTlGfYIRHewPobYVlb0CvPXDV7E+xB2q9kZ8fKYScWEe+Pmnt/Cjv/xz7ApzDSBoxww4V9oGD790KJR+DwCEsTEdSq6cxPO7suGtXKDMcP9tfP+/fYKEfS8i2NCKHmE0diV6Qj1uhlIpRvWVqzCEFeCwogrfPzKMd17ZjGtfFSHxO28jZbAKXQMjOH21GrkHDkJ9+zJC07LRX1/tFEAgkHPkfCtkAamsSNAUQCD//a2KMkjcNNixOcupU4HDYsT1U8dRZEnA5olzuDwRB3/7MAait+KPM2z48IvLiCpIQ+P7F+D75nfxeuQYfvnbL8FLLgAqitATvh5bZSqUjYrx/ZdyoSDuiQUAAoGHxrZhXLlrQEJyDjw8PO8DBEYNW3IBCWGeSE2KnpNzXVV/Af/jN4146+3dOPPJGUR/94dI7ClDT98APjhejH0/+QsYrh6Fe/IWZAvr8LNiK15MNOFSiwjf/1oKPvnF78Hb9yO8rmjBV3c12OTRin8o9cDLW31w5a4ahSnBkIilKMiNgFJEZFtTptsZJziyplV0o21ExihsCTBzAGGFldJjvo5qr9CBJzMrD9HRcxSYm+f5VAmx+vZ1hFA1x7S4h6o5znmrzYK6smKc7RbioKgU/1wTisJ4IZoRhj/ZG4Gjv/sI/NR8iGtuYzRxB763QYlLnx/FDVsogrUdKOUn4Z0UO4qbRrF/XwHifBcGCGPjRnx+qR3ywGRmPSAWRb97PAgmkxFffPJLHD60Ze7idDSI4XL86M9O4+WffBu91y7DuuUFbDLeRX3XKK4UlyJ0x6sI67yAeq9CvJpmxLvnu/Bqvif+5ZMuvPMH+3D3xHHUxh/GnycN49MrzUhWjOO9q3p885UkfHW2GglpCQjy8kB2TjT8PWbstXsAgXTF9apulNRoULBxNyvqxgGEx1z4y3E7Ke47VRWsBGhO3vo5TXEDfd347Mi7+M8/fh1y2RzFjubpGAGEPmEQass6UfhqDprOXYMsJhoinQ6JOw9iW4wYE6pefPJFEcxWM06VtePHf+UaQCD3QnuPGleq1AiJWgeJpxRSmRJ+jElRANr0Vy8dR8G6SMRFL3Aa7LuFb/+3I0g89DoOJssg9JTDyzEOtd4KiciKkvNFcIvdhMPyO3j7wz784Vu7cPaTM4h88+uwnHgfdt9gVFXVInvfIZcBwqjWgM8vtyMkOof1n7jJiUmRQFpjQw0GOmtw+NBWp+q7W/Sj+PLIKVgSNyKy+QjOa6Ihtw7ClvM8vhczgY+PFyM6PxF33zs/B0C4jDrPBGRKdOjg++LHh/OdAwh2Oyru9qKuT4Do+HUQETFMcBjEYoq9cODO7VLI3CeQn5Uy5xhmA4SIb30PpmP/G24+gTh3+Tr2/MFfwFj8KdxTtiBHWId/umLGc+E6XB72wR99LQkf/fxTeLzwLWw216FS5YYNgjr87RV3BhBKmg3YnCjEqbND+P4f7UWaP7lR5gYIR883wuYegZCwKMgVBBBClmPrcc9cBgmQdaz2bhXGdFqs37jNadfCVFeo6FtDXQ3M4z3YtTnTqb1mM+tx7fxldApCsNlwFv9QFYysKDcMKRLxB1uC8ekHRyFKywa/sgLqOQDCpTF/HIwCGtU2HH5+g1MAob51CKfLVUjLKGCVWQkcTFEts8J1F04hMsgdBTmp09VfZ8p7DoDgee5fMShNRHfjLQRvnQQIDbL1eC3NiN+c7cTXUoC/P6PBn/3xAdz+4gTa0w/iLWUHzteMosBPg5+d1TGAcOpSPVLTQlFd2oMX3t6F/DAP8Kb22j2AMKE34aOT1ZAFpiI4JBLu7h4MIIjFc9T7WYJ1wrkYFilE2lCXL55BQmIKyxWeq9EJ9tKpDyCXeeDA7g0Q8PlOv40AQqfNG3dujuE7P92Okt8dhSynENKWRoiyduOFTCV666tx9FIDtmQp8de/uIYf/vc/c8mCQG4QQqO9GncERdDHRwSlty8ospeqIbKAntLLUHqYsG1j1vxmQ6sB1cd/h5+e6Iaflxdy9j+HN3Ykw0vggG2sH598cmpOgBDz1htwv/Q+PqvWgK83YtfXX8awixaEpvZhnL6hRUp6LkvJoo+rp5eUyVqlGsS508fww2/sgWSuolkPzIgFd68V4Vy9Ba+9thPdx/4ZFyzZOJhkwz9/XAae3Yq4rHy8eSgan//Nx/B+Y5YF4VYR1Ml7mIvhTLcD33k+xymAYLFacfJqG/RuIQgLj2bAgMZAQIFaS1M9dKpmbN+YMafpczZAiPz2O3A7+W84XjsKDI1gz5//FUwX30VxuxEWhw35z30NbybZ8cH7R1HRa4Vv2mb85PkgnPm0DCk7tyCy+zz+63kBAwjHTlXCYndDWHI2/vhbmfAlUqU5AAKVDf9/f1eJjKwNUCi84esbCB8/133RTm8Q7sIllYBWM4pbt8qQkpLBLHCLaaOqARRfOY2X9hXAz1e5wCMc6Gu9g89PN2DToT3wrvwl/r42Bt/eH46jn19E/8gYAuPX4TuvZaPq468wkrQL3y2UP2BBuCnLw59m2XDyVi927MxbECDQPnvvWCV8/CPgG5LCrHGhYVH3dQWB8b7uVtTeuYpDezZCqZjDajoHQIiufh+/vNQPmCaw/tW3EdBxDsdrJmB1syN5wzb8yf54HPvVz3G82Q6fmDT8l+9m49QvTyJ48zZkmu/gp5+NMIDw8UeXoDYLEByVhD/5QSGCZlrrHA7Qga6maQBVDf0IS9rBAsnJHRkQFDIVrQIUAAAgAElEQVRnhc3FzOHseziAsEgpUoT/teLL2Ln7ADxmuRdmPpIIR84c/xAb8xKRFB/5cBnRR7x/uZkUrVYbGloHcfGWCjEJ6yBXeLNTAyFq+vtUNTOqcFZ35yoO7iqEv99Cm356MCvFpGi2WPDhiWqIlXEIDY+BUOiO0LDI+x9XRhd77isoJBbs31kIofDRdLFzTcWCWQwPuA9cZ1KkTd/arcbligGExeWyDS/x9EJwcPh9aluqFHr7xmVsyIlBVHiwS6VdaR4cxmF88MEJKNK34WA20crOdEPZ7gWIzR3wNZn1Mg+Tot3GYjPOFDehQyVAetZ68HhuCAmNYO4qrq1+CdBBoLGhFlS1MTu7gNGeL6Yx0ria26iquIpvvbYX3kr53KfwOR7uVJDiAsHYj8pioD2s15twrqQZncPAupxNLI2a9F10TOIDFNJkRSDXsFRkwub16QvHXs0YC9MVZg2Ov/8h+oK24Qd7YqaDy+9lWbBr5krPnDG2B6+5t/fsdvQPaXH+eie8/BPhHzBpnSNdTUHyMzPoFjN3j7qHAwiLlObd6kqo1Sps2rJzXoXNKj22NKKtuRLJsUGIjw5jWQ0L1e9eLoBAHySNTo/algFU1GsRGpnMgnSoP1Q9MIhKJd87uZJoLGYjKsqvwN1Nj+2bsh4dvDNLjisBEAxGE0orO3G3w4S0jDwI3T3h5UUBfuFMAUw1nUaFU18dZSBtXWqcSyBhuQHCyOg4zpW2wyEKRGhkPNz4QlZu28cv4P4asdksqK2+hZHBVuzZmgMf4rF3srF5sBnQ0twJkXcgwn0oVmbpAAJZoWqbB3C+rBeZ2QVw9/RhH5jQsOhHVv5zsuvcZSskAZ1Oi4obpYiNS0BYeNSCumm+blksZpSXXYNB24vM1GjERIVC4vGIgL8HPq4z0nFnB8La6SNpn5HpME/A76wgRZvdhiHVGG7X9aNjGIiJT4enJ7l7eVAovZk7cnYbGRlG5a0SKCV25GQkwM9X8YA+edT4ma6wmdDV0oIJjwAkhZAV8/Gplk1mCzp71aioG4KV74/QCDoIidhhk8CBlIC4c1GhLq8oXi+X5uiy0EgpUnpjWFgEEpNSF7yfru/pbkdnazXMBh3bNJTZQIF/j4qWfeADayeFbpuRzjiLgIchUvr9lOJ/8N+0cM0WK1RqHZo7htAzoIFDIIfUO5K5FBj65PEQEEDWA58Hgvlo22pGVagoL4bMw4LdW/Ph4fSGv8emOBfJ0byI+t599xTDA0F+98ZIvrjyO52o6zQhKi4DUhmdVvis8Ipc6YOZQdT0tK6OFtRVl2NdchjSkqNdsOTMVEYz52Bm3vXU312zIKgIHJQ0Qw8fREYlwV0sZmZDcjO4u08rVeq/ngqCVVyHQdeD3VvzEOA/beWZbwEuJ9Wy1WZDXfMAyu4OwzcoEb7+QWwt0Zry9Q1YtlPNghuOu8AlCVRV3YRapcL6jVuZe+txG+m7tpZ69HTWQcCzIiEuHEEBvlDIpBCJ5rbgLbxOCSDc029TnAezT+P3UrnJImI0mTEwpEFj+xCG1BMQSALg7RfJ3Al0GCL3XWBgyJwskXaHA1qNGi2NdzAy0M4AQkJsBHx9FJDNc7ibHsNMffBgivnD19wDRkzHT+sUsnyOjRvQ0aNCU8cwTGYrRPIYePsG3Z8j0nmk7wRC0QP67nHnb+b9HEBYhDTJvXD9+lXk5W+Ar69zflZatNpRFRoaa9Hd2YIxnQaUz8pSxx7Zh5kcVpN/t9sdIDMYxTNM/uThayZ//ODP6Z8CAR8+vnQ6jWBR5rSwCEnThvHx8WMpP3OZqmhRa7UaXCs+C5h12FiQgfCQAIhEwnlNiNMgZ8aHc5aZ0LlNP5kmSOMmX/eE3ojL5a0Y0rkhMjadsSbSGKQyxeSGmaPqHMm/q6sNVRXFCA2UoTA3jVVUJDnOZ56bc0PfT1mcPh1MWxqmxjoFjqZBBfXBbrPBaDKhvXsERTfaIFGEIjwqiQUZUT/oREA+/Lkauatq7lSgo6UahbnJSIyNgLu7iM3BoyxSD1typvrzMIicNn3OqCDH2BengxJpDugDYDSacKO6G7VtWoQwK1QI67+HxBMB/sEPZfUsYptxt6yABMbHdTh9+kts3LgNQUFLV56b1rlON4q62jvo7miEVqdjFoD5+QVm6SzSdzZae5ixR+fQd+xHD/L90Ude7C6Ej28o/AJD7x0gJuvkkH6gDAa5XDnv3reYTRgeHkDl7TKoh/ugN5jYQX3+DM6Hx2C1WGbppIXHMKW+ZTIpfPzDERAQAJHYi7nvqDFrb3AY+3Mha/TjLCMOILgsPQfa2prR1dmBgsJNLiFu2iAGwwSGBvtZMSdS+Gaz2aUeaDUaDA8PstLSrvid+EQFLBazU/bMBUUnVtoodOqb68M6s3Pka264ewN3aqrhKeZBqfCCt1w2T8SyY3Lbsg/qdG0GcnNM9oF+PrW56YM1k/Vv6t8MFrGASbIaDKvH0TVkQVhYMKKi4iEQEUEIj5kNyVUy0z0yW7Akf416EDdvXkd3VxtCA72hlHvBy1MCntvc256NYKrv9/kkpjb4lMVmso8zxzhZh2FmPQoHLDYbtDo9+oYnMG4WIi0pBjKfCCYLCgr19vZlEdXzzSsDOh2NuFF+HTy7ET7eXlAqpBDPsDg8NO77Ps8ZFp374PLhfk66IKZA5vTvidLaaLaA3CJUCdJDokBqSgJEHhSbwmMpVxTDQm6e5VRaLm0Y7uJHSsBms6Ls+jUyymPDhq3LMmdWq4XpK41mBPqJCRav4mxjNSG6uxjVc3BIqNP9o7UnFAqZLpi5l6Z+rlT6Mp6UmW7I+fqk148znT02poVeb3gIjMx3L1kCbt+6gYx12S653AgIkBVRJBI9MG4Gwj08WabZUlh7FpoLDiAsJKFZv6cJr6y8wZRhWtq6+4jO2cfQoqf0QULuZDamDWSzTZnO5n4K3TOlcInMo6enG+np6+4v8Cm06awbihYfbQ5aYJ5eMmZmc3az0AdqVK1iHBAjqmGMjY+DPhzzNVJAU3YSi9XMwFVUVOysU8H8uJzGRpte6iWBxFPOTqjUZwI4VK+e/Ik0J858mEhJ9fV2gcp0j46OMqA26wAyYzhTYID65wBxQxCoIwraSeUz8/fzrwICIQTSZFIveHrKmK+enkGKjBQW+RIXAmmT320HiLmut6eDVRHV6rSwWhZSvNRPYq+3o7+vD1KpjP0/Cc+m52feEfAmT18SiQfj6ZdIpGwO6H9SWgQyqX4Ej8mFa6tdAoOD/SgrvYpNW3YwcLpcjYAI6TrSeWQ9I6vApOXw4Ua6bEqPka5pbmqAG98NMTEJzNrqqq6jN9B6JD1BpEKkK+hPZ/TEVO+mdfYYJsbHWI0XOuRMWucebLP7N+mOPs8q/U4Fs8/U587JnMdkIBK6syBmL6mM6cKVaBxAcFHKRqMRN8qvISo6jsUgLKZNLSzaOPSxslmtsD9iw9Amqa6qQErqOvZB6e/rRWtLIwrXbwFfwGcAo7mxgQUYORN9TJ85nhv/fpALbRRXNsvUB4pter2ebXzaBPTvub6yk/EXnQgNC2fvnJgYx/XrxdiydSeEAiEoQEqjGWWydKYfU/2lDxXlAFMuM214V6wpU2MgoEb9IYBAZkAyn89uExMTLDfc18+ffQj7+3sxPj6O6OhY9u8RlQoUCOXvPx1UON+amBwjWQx4zMVDII0AmrPgZuazCayaTAbWHxoLraO5FC+5h4jpjmJMSIFVVd5EUHAIY52k9dPa0oy4+ESnZTg1B258PkQiMZO/RCIBWam4tjYkQPv15o1Sticzs3KZBWs5G8umsdtBqYY2OhTNsdeIqGhocIC5bT0kEnZ9VdUtts/oMEatt7eHgdTAIOdSMelgQuuUxjmVubDYcdIYaM+xQ929vTYbIui0GgwO9DOyMHov8eR8/tnv8dyhl5mV08S+HyUMMDgLpOlAR+5hytAiPeeMnlzsGGffxwEEFyWpUg2hprqSlUGdOoG5+AiXLqdF+dmnHzJAEBISxj62jY21jN6ZFDKdIMuuF2P3nucgmsfM7NJLXbiY+dXtUwFED99oNplQVHQeySnpjNpUp9Xi1KljeOnlrzPz2eVL5yCXK5CVlbeQc++Bh9NGIaX2uJuFKS4W3zAVJf3gGCjepKamClnZRIHshfa2FhaPkZq2jvlTK26WQa5QIjExxaX+T4KESUvO4zYaw9Q8zAXSBvp70dRUj9y89QyIXC26gMioGERFxzKFfL30Cg698IrLspxyjbgKzh53vNz9jy+B/r4e3Llzi+kV2n+roRn0elDAZHh4FEJCw9marrhZyvQcsTtShgSllpP1kVysq7FRBkRJcRG2bt8NmUzOgPuH7/8Kh199i7neWluaUFpyBW++9V2X99uTGC8HEFyQOilimuChoX7k5JKyXVy+sAuvZJcS4iS7W05OAfp6u+8DBEKWdXU1mBjXITdvg9MnQFff/zjX06mcTir0QaQPFJnoTxz/lG0Y+t0v//1n+Prrb7MT+mpsdKopuVaEhIRkBIeEoa21CRqtBunpWWzzXy+9yvyLfn4Bq7H7rE9kBSEQsG5dDpTe3rh86Syio+MZSKi9ewfjY2Mo3LB51faf69jSSoBcZKUlRQzY0pp4XJC9VL0j10NNTSU7pa/LzGWPnQkQRkZUuF5ahG3b967I4Wwx4yIQM7W/yKo7EyCQi+FK0XmEhEQgITF5MY9f8Xs4gOCCyBmz4PViKBQKJCWnuRx/4MKrHriUfOXVdyqZWUo9oroPEMh8T7UGCG1HRkazj/BqbF2d7WhqqmOnFTJtfvXlJEAgVwmVlX31699cNUrqYfk5cPfuHfT19mDX7v0sQFWjmQQIfX3d6OhoQ2HhJnYyX62NLCQ3yktZdkRsXPx9BUaBXwTeiAk0IoLWD9eeBQn09nSxD3FBwSYWu7OaGouLuF6MXbsPMPfbTIBA1PbkKlu/TAGVSyMHB4ub6OvrwabN25kLecqCQK6JstJibN+5d1Xri5ly4PUNaB+OtFgaST11TyE0ePrUceQXbEDgIulIFyMUyni4VlzE/HAWq4WxnpGLgYIE6+trmPmbUv1WayOrAQGZhIQUSDw9GUB48eXXcPXqJcTGJiAuLmG1dp31a3RUjS8++z2+9sqbGBoaAGWSkIuBfPnkf2fuhlUemNfcVA+Vapj5m4uvXkJ0TDyUCiWqqyuxLjOHlY3l2tMvATpUEJERzXdKasaqA+bUPyoYFR4egeSUDAZg+QIBUlMzGLClWKzw8MhVPVEU13T1ygXmFvH29sEHvyMXwzeYO7ivrxcFhRuXxLW4EkLgAIILUqYANTIp7z/w4rIVx5irO+TaIF83RcAT4ieAsHnLDjTU14JM4KT0KUp3tTYyGVZVVcBd5I6w8EgGEAhFV96+yU4KK+WqWax8yHJ0+uQxlkZJJnoCCPEJSSw6OSe3AEFroCgRmWcrbl5n7hCKoSGAQPYmOrHRGCiIi2tPtwRIj5AlrLa2mh1yVkvswWypd3W1o/QaxcUcZmuVAALtsarbFdi+cw8D5au5kb6gQHbirCHd/PsP38WLL38dHR2tTAdOWp9Xp7V3tlw5gODCSiP2RMpNLSjcvOIT3NnZzszbFMDT3tbMSJrIN56Skv7IYlEuDG1ZLyXFRJuju6uDnbZPfvUFO7WSZSQ3r3DFXDWPM8iBgT5cuniWfWCNBgN8/fxYfvO+/S+sKFhc7BgmfaPnWCEeyukmtwJFXFPaVFJy6oqv58WOg7tv8RIg997ZMyeYDklJXTkXqas9pg/ssc8/Rlp6JtTqERbtTx9UyhygOKalCOx1tU+uXk+67u7dKhYbdvzYERw4+DJaWhqYK4+CtddK4wCCkzM1GWzya/ZBcDbFxslHO3UZmekp+pUCi+jvkRHRaGi4e99X59RDnuBFVC2uvLyEUVNfOHcS8YkpCAoKZnXn1wqa/vzT3zMLDkUnU7QysVJS4OhaaRSQSCdISqmlVDJyl2Tn5MPfP3CtDIHr5yIlMEk61Ml0yHMHX2IR9au51dffRW9PNwPfpB80o2qkZWStevfClEwpdbq8rIS5okuuXcb2HXtZvFJ2dj6ksjmqRK7SyeAAgpMTQ4F2tLkOv/rmE8n3pgCX66XFzB9OJBmUAUBolE7ka6HRCZb6T/ny5FdMSk5Hckramvo4VVSUscBKyljo6enCcwdfZj7GtdIoPbP46kVG9ESWA7vdiu3b97IaEFx7uiVAxFoXL5xBcnIa47xY7Y0OQRQrQwG2lM5M+mPnrv1z1k5YrWNpqL+LocFBFqCdlZUPs8WE7Bxy561ed/BsWXIAwYnVNZm9cJVFnhL/wZNqzc0NKL9Ovi0bKzqyZ+/BVX8SmJIVnWCo/xR3QFHUtFFIlp6enk9KnC6/l0DBxQunGTEUnQz2H3hh1QcnzhwkKdvi4iLU1lQygJC+LgsZGdlrxoLj8oRxNzAJkP4iXz5ZvSh2aTXHK01NGcUtUXo3ZQSYLWbmSiVq+7VibaRxkLxv3riOpsY6hIZFsJTS6JjYVZttNtd24QCCE0qE0DdFpeYXbIKPz/JRki7UFUrx+fLYEXS0t2LHzn3sA7vao+dnjomiez94/1cY0+lYFgYF8KwFf+LUGOhUc/b0cTQ21eOVV95CXPzqzr6Yaz21tjbhyMfvs3X82uvfYu4Srj3dEiCm0hs3Slhq7kpmXz2uVImU7PSpL2Ew6hlXCjF/rqVGbmmyOlOsGHGovPraN5kFdS01DiA4MVtETkQ+Mcrjd2WCaYFoRkcZd/dSNYaqmxuwd98hVoFxrTUCWpQNQpwOISFrJ1iH5ExunqrKCuZLJOvNSjBpLvX8ErX1mdPH4efnj23b9zz24+k0KpPKuOqNjy3J5XkAWQ/oBEsxQOuycuctZvY4PSALIfnddTrdPdr1x3na5L10oLhy+TzjEti99+CaCAaePWoCOaTzYuOSsGHjlscSCt+NDy9WA8VzxSwpHEBYYMpog1E64cTEGGP3ctZ/RPeVl5eivKzYpQpmC60g4vKe9CF7sQIea60ZDXomD0pVovSlNdUcYGml5GIg14izXOqraYzEb0/MiqzA0hKcZig9Mi9vPYsuJ754rq0uCVBZbnKPRkbGICIyatk+LKSTqMZK1e2bjKtlKZrDPln9luqHEH/KWnIvTI2farxQthbtEyow9ziNKKdTktOwcdN2SDxXxhLB6xvQcURJ88waBccQ2x+dFuPik5w26ROaPvbFJ7hVceORlcseZ7Gs5Xtpo89VCW0tj+lZ7jvxKLzw4qvLXpv+WZbxYsZOe6ylpRFdnW0oXL/VJeunq+8jN+wXn3/MdCXXHpTAUuo74l956eXXmYtwJQATBxAWWM0T4+OsgAhx11N6o7OTQqiRqniRSZr7GHIq42mWQGJSCnbu3AepTM4Y+riqjqtjtilm6egn77N4H+K9cFZ3Lab3FJ/z2acf4W5N1WJu5+5xUgJh4RHYvfs5VmiNqKiXu3EAYQEJEz1mXV01o810xefMWRCWe+lyz18tEoiPT0Th+o3w8pIhKDgUYvHKmD9Xy/hXYz/IxUmsr1rtKPbsPbTswcCcBWFlVkFIaBg2bNjCKlr6rQB/CQcQFphX4rAfVg0jN7fQ6fgDeiSllFGZ4BtlJSx4hwIWOUvCymwivZ58fkKX5mtlevb0vYWCFKmWRmRUNDvRBAWHrXoq3KdvFh4e0UB/H6vguXvvcyyldbkbxeUQnTq5GMgtSzqPqjOu5kb6mDI8yOq1nNaVpZIBxQ2FhUUwHovAwBBG/b7cjQMI80iYFtDF86eYeS4+YXHlOSkSl1D88NDAkgYrLvfCWKvPJ2BGudPePj7w9V29JZjXqnxn9pvo5CnNlvhB2J/uYgQFhXIA4QlPLh1GqqpuQSQUMUrzlWrEXUDAgCide7o7YDAYVurVi3qPxWJCSclVbNy4dfVzQ9Be4/HYXiOg4OPjz1kQFjXrS3gTLfajR97Hcwe/BuVjlEU1GvUYHh6ExWxewt5xj5pLAmRavXPnFgICgtZc3vRan1Gxh4SxTHKFn57sTA4PDaK29g7S0jIZHfiTaEND/ZgYH1vVVlPS71SbYv+B59fUmnVz48HHNwBS6fJzmHAWhHl2T11tNSun/OJLX3c6e2Gux5ElglA152JYflVFpxiiE6aqkTEx8cv/Qu4N9yVAVgSixV0L5tqnddoIINferWKndyIie1JgjdheaS+u5kbW3fd/+0u8/Z0fLhs/xPKMnweBQLAi+4zXP8ilOc41ibS4KW2HigtRLXKurQ0J0LxR1U3K+Y6NXf2c82tDqlwv14oE1GoVY+4jXoq1xJr4JORL3Da//tXP8f0f/CHc3Zc/I+BJjPFx38kBhEdIcHR0BMe+OIJXX32LkXRwbW1IgAMIa2OeuF4uvQSIgOzatcss9oDKwdMpk2uPlgAHEBZeHRxAeISM6utq0NXVzlKEuLZ2JMABhLUzV1xPl1YCnZ3trMDRvv3Pr5kibksrAdeexgGEheXFAYQ5ZEQpO6UlRcyPHR0dt7AUuStWjQQ4gLBqpoLryApKgALuqNIosb3Gxyet4JvX7qs4gLDw3HEAYQ4Z6bQaVFSUITMzF0pvn4WlyF3xRCUwNqZlJD0UHDcbIFBgKDHKUe2HtVT58okKlHv5mpIABSZShdem5nps2bILHo/J+b+mBu9iZ4nxkdWxcXNj9XVmxiBQILnRaGS/59qkBDiAMGsl0Aelr7cHbe3NyMkp4HK6V/lOIeV47uwJFK7fDLlc8RBAoEjlipvXWS15d3fxKh8N1z1OAq5LgNb4zRulCA4OYyQ6XBbJ3DIk3U4BzOkZWawS7myA0N3die6udla1l5MhBxDmXEWT5VHrodePIz0jmwv0cV1frfgdZ898hdDQcCSnpIPmb2YWQ2dHG+7ercLuPQc5ZsUVnxnuhcstAfroUfl3WufrN2zhTr8LCPzKlfNwF3kgv2AD0/FTFgSRSIxTJ79AaEg4MlaQXGq518fjPp+zIMyS4BRlqEwqB1XO4pDk4y6x5b+/q6sDjQ212LhpG2MamwIIVOL29q2bDBgQoxw3l8s/F9wbVlYC9JG7euUSYmLiEBvHWQ8Wkn5/Xy/Ky65h154DRIh/HyCMj0/g5InPcfiVNzmr8QwhcgBh1ooa02lx8+Z1pKRmMDY+rq1+CVCA1rXiIiQlp7Lc7ymAEBgQglu3yhgfAhU54RongadNAnV1Nejt6cKmzdtXpLrfWpcfVdktLbnCXDFUMpksCN975w/QUF8LnU6DLVt3rfUhLmn/OYAwS5z9fT24U30bmzft4PgPlnSpLd/DyMxKhWLsdgcyMjJxpegCI0qSeHiipaUJ2TkF8OS4LJZvArgnPxEJUOwBgWGiVKZ6MVxbWALE8FhbWw2r1cKsLu+9+wt8463v4tatG0hMTGGuSq5NS4ADCLNWQ8XNMpjMRhQWbuai3tfQTqHqddU1lcjOzkNVZQWobrrZbIbJaMK6zGzw+RxpzBqaTq6rC0iAUSrX3gHVXdi4aTtEIhEnMyckQIeJnp4udHW2sQJ8v//oPTz/wmG0t7UiOycfUqnMiac8O5dwAGHGXNOmO/bFJ8jKykNkVMyzswqegpGaTEZcvXoJ/v4BTGn6+QdANTzI/LIR4VEAlR7kGieBp0QC4+M6XDh/ilnHQkMjuPgaF+ZVq9WwQ0R4RCS+/PIotm7dBZvVxrIbKF6Ja5wFYc41QB+Uc+dO4eWvfZ1LiVtju4ROBg0NtejsaGXKUiyWQD0yjF17nuNY5dbYXHLdnV8CtNZv3yoHfeg2b9nJZVq5uGAsFjNuVZRD5O6OokvnkJtXyGKXYmITOKvxLFlyFoR7AqFNR7nEFPBGm45ra08CFIB0+fI5aEdHYXfYERUdi/XrNxPdx9obDNdjTgKPkIBqeAjXii9hw6ZtrLw211yXQFtrM3PRUMXezMw85l54UqWxXe/9yt3BAYR7siYT9amTXyInNx9hYZErNwPcm5ZUAnfu3MKlC2dYgOnLX3sdvr7+S/p87mGcBJ6kBKZOv8QESO4FPp//JLuzZt89Pj7G0hpbW5oYMRJxSLi7u6/Z8SxXxzmAcE+yw8ODKL56CXv3HYJEwlVvXK4Ft9zPVamGcOTj3yEwKBgvvPgaZzJcboFzz19RCQwN9qOmpgrr1uVwJ94ZkqfshInxcRhNRpA1eMHGLMbXmSw3b9mO2NgEp+OU3Nx4kEi8GF/C086twhsY0jkhzQXFvaYvoAXV2FiHnu4ubN22i/PprcHZdDjsoHK3be1NOHnyE3hJvfDCoW/C29uHZTA87Rt5DU4Z12UXJTAZe3CDfQAzs3KfeesBBZVTbYW62kpcLynCiFoDntPuRAc7PEgkEkxMTDwCVDzi0+iYxBIKmRjrcrYwC4S7WPxUZkpxAAGA1WJBWdk1xs+dmJTCfUxcVFxP8nJSEhqNCr39nWjrqIZ2ohch0XIY9BYM9xoR6BuDqIgUBAWGQOql5CwKT3KyuHc/lgQ0GjXKSq8hKzsP/gGBj/WstXwzAaTRUTXaW+sx0N0ApUKKpLhIhIb4Q+wueqT+pkMEmHXBNvmnww6L2QyhkNw09Ds7pq+Z/Df7/97vpv6kgnDjE0YMq8fQ0DYIlVqPwPBkxCXnQaH0eaq+HxxAAED+qNJrV5CVkw9fX7+1vHeemb6TktBoh9Hc1ISuvloIJEYo/fnwC/aE2FMIh92Oca0JQ73j0Kl4gNUTMZHpjFXRy1P+zMiJG+jTIQFa75cvnWWmbQqoe3bT8RxQq0dws/walJ42pCXHIDjAZ0Gr76TbgUDBFEC4BxZmAAAGDtg1s4HBgz+bCSLItTE4rMPd5mEM66XIKdzxVH1DOIAAoLOzA81N9di6jVKGuDzY1a5SabPX1legtPQSlIECxKTK4SkVQSjig+fmoC1+TxEANhYnKXoAACAASURBVJsdZpMVulEjmiq1sJtF2LXjZYSGcMxzq32euf5NS4AqDZ4++SVef+NteEmlz6xoKJi89NolyMUWbF6fAbG7u1MUJ8sFEKasDkajGZfL2zFilGL/828+NVaEZx4g0MKhnFgyVVM+LOerXp26h+bJZNKjf6AXl679HiajBekFoQiOlMHtXhbjpMfQ/gBAmIQLk7+xmK1oq1Oj7tYQwsJDsSHvEPz9gyESEgsdlwq5Omee65XJaMTJk8dYrZGkpNRnWiCdbQ1orivHvp3roZB7OS2L5QQIk24I0k8WfPBVJRIzNiExbeNT8S155gEC5c5fK77Molgpb55rq08CxDnf3dOC5vYq6CYGERAqQWi0grkSps2GUzDg0QCBKQmHA+M6M7paRqFT2eEjD0N8TDZCgqO4Yjerb+qf+R7RwaWlpREd7a3YsXPfMx2YSCme165eQKAS2JCXAT7fzen14SpAcJj1GBidgEwhh6fw0S6GaXfE5DV3mwdQ2mDD/oOvPBXZcM88QBgaGgTVXyhcvwlKpbfTC467cPklQAqhpbkRtXVVsAtVCAgXwz/YCx5eQobO71sH7qU1LWRBuK8kKEzJZse4zoShnnGM9PLgKQjBunV5iIiI5gIZl39quTc4KQGKsCfWxJCQMETHxDl519N52fiYDhfOHMWebdkIDwmAw2FDV30Vrlf3w0JD5rkhKikNOSlhEM+ih3AVIFh66/EvJ+qw7YXnkElhaTPiEuYOZJwECKPaCRw514T8rYcRHhG95ieCNzA09gynOTpQX3cXBBKIKOPZDfxZPet40pVgRF9fD+oabkM73oPAKHeERCogYRYDshRMLtnHAQhT9zrsDoxpTOhp00HTL0CQXxySk7MQGBD8DKRHOlgFTJvN6lzu+BIsE0ot49JOnRWkA91dnWhvb0VmVg6k0mc7uJZx1Vz8Aq+/vBNSLwkcNguKv/oIRR2e2FwQj97LH6MtaD9+9FoebKNq6IwWeMi84S8TQKcZx4TZBLPZBpm3N3wlDowMjUBrsEDsKYGvFx9DKg2MZisEIhG8RUbcru9HQFgIxDDBTShCgFyEEbUWIpkCbiYdjAYLjGYLwHeDj7cXpO5usFgs+ORMHXzCC5CZlbfmKfufaYBAHyNyLxDFZnJymrO7lrtumSRAyLyzsx23b1+HVt+F8Hg5ImK94e4xWYnRwdKNlhYgkMuBRSk4HNCPmdHRqIWq24HQwCTkZG9kTIxPY1wKudZ6ujvQ3dWBUY0WVpt1mWZ1+rEU5UFVB+UyGfwDAhAbl8Kx180jdXIvEHmbn58/EpNSn3nLVntbC+7eLsI3X9vL3AsEEEpOHcFdYyzeOJSLxo/+b5x2bMSBVCGKbg5A6WXGoEGCPZsSUHayCGqZH/jDjTCEF+KVNAnOXe+EwouHMbMNG+J98OsjZQhIDoNpRI+dBRH48lgRNKJApMXLoFWPYVtuHI5/dRUJL74OWVMx1JBB6sFDf0cXQnIL8XJ+ENx5dnx+oR4Wjzjk5BbC29t32ffVcr7gmQYIpCSvFJ1nE8lR8i7nMpv/2VSWub+/G3dqrmNE04vweClCoxTw8KSc5klosNwAYeodNkqP1JjQ1ayDuleAqPAkpKbkwd8v8KlQ0FRrpLWpBrV3qyD1FCIyLAD+vkq4i+bO3pl2y0zlkN/zx85IGbvPXHffDDv7msl76T+93oQRzTh6h8ahHnMgIT4eCWkb4elFAWdcoOjMndLZ2cYCqHdzBceYWFqbm9BQU4xvfX3fpD6YCyCYshHm1oOiFhOSgz2h1dtQsCkTzeWVSNj5PNItJfinz7oRG+mF8tYxpIR4YsLiQGGCD46cuA15ZCD4RgEObA7Cp0cvoVuehn/6QS5uX74CHU+OG+VV8Fu/G4G6FvAcAqjMFuh6uhGQswHf3R0LL4EdX1xsgFEQhYzMHAQEBMHNbe3SYT/TAIHqgtfX1WDLlp2sshfXVk4C9FGxWEwYGVGhoakSXb318AkSIiEjEB6Sydr205SpKwcQmD3h3seMXA9NVWrYDHLER2cgLiYDMpmcpcIutVVhMdWonWGUnTmjxPdx+9Z1jPS3YuuGTMTFhC04jsk5mAIHdsB+jzhmRr74A/njU6Qyc+SU33+W3Q7KH+/oVeN6VQ88lDHIzN0EuVy5cgtwlb9Jr9fji89+j5zcAiQkpqzy3q5M95wCCJZcxIsHUGGOxX9+KQPuQiF4+h788t1zCF6/G8nGMvyuRI91MV64Oe6P/+vVdBB1sni0BX/8j8U48IN9aD93DT4BcpRcLUe7OA5//a0s1JWWwU0WgJJrFbAGJiBBakZ7hw5bv7cdwqtn0aLMxHdmAYTUtAwEBoWu6dT5ZxYgkPmu8vYNlt6YlZ3/TEcHr8z2nn6L1WpBX183mlruQK3ph5ePhcUYKH0lcJsRmfykAQL12GK2YWTQgIHOcbiZ/RHkH4342HT4+dHJwPko6oVkvNwAwaCfQHl5MXgWNbZtyIS3UrYgOJgGaUsPEBjogAOjmgmUVPbCJg5FwcY9ELKU02e7EVNfTXUluns6sW/vIQiEHDfLnBYEuxV1FdfQaQ7Etvx49BZ9jAqkYX0ED6eut0Apk8DDywepsRIc++AUJvxiECwagzgqEzvCeThW3AAfmRhiLxnSQt1x/EIN3H1kELh5YEOiDCeOX0Rprwi7CiMgcHNDYUowikvvIHTDNohabuB28zgUEd7gT2gRGJ2A7ZlBEPOnLQjJKekICg5b07FtzyxAMJtNOH/2FJJT0xEZGe2Usny21dbSjJ6406+WnIBK1YegaDFCo5WM5GiulKXVABBYxIPDAZvVAZ3aiN42A3QDYrZmNuTvh9jDY0kEs9wAoaH2Fvq7G7BzczYDB8625bIgTAEEYrxUa8fx+bl6JKfnIC5t+4KseM72fa1eN6oewbVrRcgv2Ah/f66c89Q8zrYg0M9tVgtsDjdGl2y3mGCFACI+D2azBTa7Azw3N9h0nfjVB5cRt/UAtiYoIBDyIXKjYGgzC9Ala6BQQIcBCysTTxYFEd+O+uuX8c9XjPiv39uMAC8+3AU8mC1muPH54NkssNps7IDJ4zkg4LtBQJ4EBwcQ1uq+e6DfOp0Wp04eY9UbFQrOtLmck0qbcGJiDHfrypnii0hQIiMvDBKpiG3GR7VVAxAmIyMnwyTtduhGzagpVcGg5WPb1ucQE5UKsYcE/EX7Gh3Q9Nfg0998gFvNA5BHxmJdYhS666vQOzqBuJwDOHw4D1W/KkLoW9ugKzkHfsJ+5MY4l5ZL6aJXLp5AWrwfUpNiXJrq5QYIU+ljLV0q/PLzGhx+9dsIC49a06culwQ862KyHtTW3mGVCfPyN7qU6/84710L984FEJzpN7nAzGYr3AR8CJi6oVoMC1Mt22wWmC12iEVUAmoqruZR9Romf0/vmopB4CwIzszOKr2mrrYaHR1t2LP3IOdeWKY5MlOMgWoQ3b0t6OlvhI2nQ2xqAPwCnaOKXY0A4X40hM2Oga4J9LSMQ+YRhsjQVISFxsBb6b+oqm6TFoQ+fPxnp5Dzd99B8Eg/6tvaYTKa0NbShpSt69F95BJM6WGAxQubd2yEv8S5uJnBgT7cqbiIAzvzoJDPkr3dCvWwGlqjBTy+AHKFAgrPafralQIIDrsNP/vwJkKjM5GeVQil0mdJXTjLtMSX/LEazSir2Bgfn4jQsIglf/5afuBiAQKD9stUi2E2URIHENbyCrvXd5rEUye/ZMQjzzp16XJMJ8l3YKgD9fV1UGu7IVFY4BfkCZ8AL4jcJ1MWnWmrGSBQ3xhng8EK9aARmiEHrBNeCA9KQUJSEnwUIS65rR4ACH/7DdhvlaFh3IGEIG/cKr2K5O3b0XW0BB67UmBsUyF5yw5E+3g6I0a0NNdjoKsK+3cUwt19lo/fqMKnvz2Gu8IoxHtMwCMoCns2pEAinIyvWCmAQIq2tLILlZ1uyC/YjJCQCFZC91lqZJ2qqb4NnU6H3Lz1ED9j419orltbmtBQPZ3FsND1M3/PAQRXpDV9LW9w+NkjSqJSoSdPfIGXv/Y6PJbIh7w48T99dxlNBpTdOI/qqkpEJSkQnewDDy8RBAI3lz6Y0x8n9rfJj9Uy8iBMv2M6i2FydibT86ZcDPcpmqZOJBTjb7fDarFDP25BW7Ue2kE3bNiwBevSNruY4nTPgvA/vw1ZUzk+/vxzdKqN8I7OxuG9eWj8rAqxPzwEXuV59MlzsT0t1KkFVF5WApF9GNs354A/O7DS0I+f/49foCP7W3hBXI/KUT5eTwX+7lQv9mxIxd1uA3ZmS/Dpv36FLpECO/dtg6/2Dj4paoVQIsee53ciWNOC3529A0h9UJgegvY7DWjXGOAu9kZWqgJ2z2A8lyHDZ8eKELHjIPbHkuVjVuU8hx09Axp8eHEYBQUbGKOl/Blz/VF8zrmzJ5GXvx6hoeEu7xenFsMavqiF0hzXEEBISX0KghSfNYBASLLubjV6eruYe4Frjy8B8puyegm9rSi9cZwFAWVuCIePn9djpbavdgvCA6DiHoixk+uhW4+GCg3cPdywZ9M7CPAPZnUeljLrwZVZu1J0EX5SEzYVZDz80bkHEM4MCRDpLUZy4Ra8EdSBb7/bhL0bs2D28sHBDH8MaCbQVXEJJROh+PHX1sOqHUJ7eREaPFKxM90XxGXRcOUs+gNy8XayFX/4r0V44yc/hH9HEU62CZAsHsH7Z5vw4k++hzfSKLDzYYCgGp3Ar070IL9gAwICg+/lkC9dpogrMlvpawlk3igvARVm2rxlBwuu49qDElitAEE/2Iv3Ttcga3MB8iM87scgcABhDa5gosIsLr6EwMBgjj3xMeePPuDqERU6OpvRO9AKg7UfPj4CCMUC8ERCePkp4KdYfNraWgQIUxwKxgkr+jv10Azw4CuNR2RYEsLDY+DlJV2SkyHJxlkuBmcAQs/6H+AHoe14v2QAbyXq8cPf1CAzYx1yNmbBb6gUn91wIMirHz2ieLy1PQHqoSH0N1RiSB4Lj/4+6KNDwK+vABI2PwQQ3rvYi7AgGTq7upD7yhtOAQRiN6X6A2uZZMaV7TU0OIDS0qvYuGkrR9r2CME9BBAcdmhVQzC6iWEbH4dF6guxfgjDYxZIlL7wFZqh1ZsxpjfDQ65EmLcAPZ2DmLDZofTxRoDYgqZeDfx8FRgbUWHcRGyidhaLExjgA7FlDCoLH8EKIUaHhjGkM0EkVyJKyUd//xC0Bgp2dMBqGEfLwBjSMuIR5yfiAIIrC3+1XavVjoJMrsSTTRSmXFucBKhwyu2qcnR3t0IeYIV/qARKPw+oW7vQ0GaATGrD8JgcWw5FQbK4VzxxoiRnXQwzS0pPAQTmEHEAhnELtMNWqHt5cEwEICU1A0mJ6Y/F0U7WGsqT9/HxRVhY5IKpls4AhGuOCGT7WSEKTsSbYf347nuNOLQzH706HrI8O/BZ6Tj8lGOwyxKwO8MXLS0DGB3ugHtUBiR9HWh3F0Og6kFgyga8McuC8OsrGrx+MAmXTl1G+P7XnAII3t4+CAmNeCYCiK1WK0pLr8BD7MFxssyjK2YDBIfVjOsnj6KDF4T+2lYo81Jgau6Cj0KIhoExRCjF6FS5IT5CgO5hPaK8PTBk90W0wohhowjbw8z4y49u4+C+Lejp7EKwYBQnq4cgV/pj997NCNfU4cSIN76WZMOZK+1QKN1R1aVDYVIAOga18LK6wU2sxrXbasiDgvDKwTzkRkg4gLBIfb8qbpsqfpKTm/9UlONcSaHSqZXoqVtbG1B1pwxuHuNIXBcApY8EAhEfPJ4d3VUt6BhxQ5hUj7J2D+w/5IvGixoE53mhu3EcKbkylP6iCgN2HpQpsdi3LRhNRbdRUaeDWRaEV1+LRve1elTWjYLnLsG6vXEwlDejqlMDm12MtH0hGD2qRfZfJGKouAu2hECkhngykl4HTKj+qgZV7ToIfENx8KVQ9Nxow60aNdzcHEjdk42kCKDuSBUqVFbIfL2xYXcAei53oKFfD5GXF1K2BEF7qxN1DWMQeEsQGq6EMsQT8dEC3DrXh/DcEHRVdqO7Rw+xnwx5O4IxerML1Y3jsFjckfl8ICwD4whLD4S1uhnV4lBszfCA2WiDetCMrjorFJII5GRvRkhwBKtN4KwlYGquLWYzmpob0NbaDKNBj6DgUERFxbJqpBTYRnnaM9u8AMFugWpwBBqjlX2MZUollAITutQmeMs9MTZhgczDDtWwDg4+j33EvNwdUKt1sPHcoFBK4WaawMiYATw+D1JPTyjcbegdHoPSzxsC0xhGDXb4yYRQq7UQyuRQsuSL+V0MzxJAGBzsx/WSq9i6fTeXcu0CQCDeg0sf/xJX+9yhtSqxI7wNVaZcvLM/FL/7t4/QZnGHMiIPP97vj4/f+xzlbRrwvUMQreTB7OmPb2WJ8J9+VYat2ygoVokd0k784Uf1CFD6IbswGyGaBlw2h2G7ezOuqAPxg+dC8e4/fYFbGh62H9iGwxtC4NFWjG//ogl+kRF446X1WB/FAYSV/CYt6bvIz0c5xjarDWnpmc/E6WQpBEjAwGg0or29AdV3b8No60N8eiBjP3zQr25HZ0UdSsuHIVbwYXPzwcadfij/bT14sUoExQQjK9Ub/VVNaO0cQ1WTDa/+xzx4qNRoru9CT4c78g4nwHN0GHWNaqh7RmDwD8ehfSEYqm/H8JgUKbl8HH27Fqn/PQINn7Yh4Pl0bIiTTQIE8yhKTw4hdrMMFefHsG6zHE01GiQXRMBzYhDFV0aQuTsUZb/uwbofRWLo5iCCkoIg0o2grnUCo92j4EWGY9c2L1T8/23wfTsOvkOjuFU6BCHfDkdEEMLEBgzohViXqUD/jXb0CTwg7hnDgAOwTdiRtCUQY61qyCOlaDk5iITvJiBUPF150myyo7d5Ar0tBgT7ZGDdunyEhkZBtAgGQYr9UKtVDCj09/eyufDzC2CmeX//QEYfTj+bFyAssEBWMothZgzCswIQiKOi+OplBu7WZea4DBaXYn+vlWfMtiAQQDj//r/iaDUP0WmJSOXVocKagW9vD8QHvzmJMQ8RzOIE/HC/Pz4/cgaNfXr4bXsNf/NSLJOzoLUIu396ClnZucgtSMJmYSN+/GEdfD284OWthNQwAn1UNvZIWnB22Bff2xmMX//v8+h3WJGcV4gXswPhrrqJn/yqeRIgvMgBhLWylubsJwVSUY6xr68fYmLjwONxgUALTSgRHLV3tKCxuQpmuwqhsXIEBEshlkwVUpr5BDt67rRBZZciMVmCkt/fhs+GeAxc6IVXuhTgeSE32oTPj6qRslGOyhIt9vwgCwqDESPDQ6g53wnv9akwN3RAEBMAt6FBDMEXu/cEPwAQPvlmBXzeDoFwyA55fhgyw70YkYmupQOVPW7IWyfGpTNaZGySo615Amm5IXA3aXHzahdjbrzdI8S+LV6oI4AQJkbNVRUC1gdirLYXE9IAbHkAIGhQW6uDv8KC5kEPREa5weBwR0qyDMPVXeixCSHs0cMU4AWhWgVDcAjChRPoa9ehW+CN5/d5g3+/AuVkDgQBVcO4DUPdRmj6hPCWRiI5MRchweEQCZ3jNpgpdXJxGAwGaEbVoNOoangIdoeDcQkEBQWjoaEOEQGCuYMUOYCw0BZYtt8T+CIuFqoHs3HTNlbng2uPlsBDLgabBZVFp9EjCoa1qRXdvpHw1bViVG+DR1ACgvVVOFZhRlKcEmLfEGwNF+BYeSf8pB5QhoRhc4gR/+tYLXZuL0B39zA2B+vx27J+eMu9kZWbzgoyXdbIsT9OgCvX7kBlcMDNPxpbo3koLW+AXRGC56L1+MWFfsgD/LFzYzKSA905F8NaXcRUrObmjetITc2AH0dhuuA00gm1qOgs6hrLEZ/ui9gUfwjdBfcqLM51ux291S2ouquFp9INE3oPZG/xR2vRKCK3KtFRrUFynAcun+uAV4AY/R0O7HtnHfS1begZ1mO434LUzQkYbWiB1i6EQTcGyf9h7z2g48rS+85fZVShCkAVUAiFnHNkAjObzc49nSZpNEEz8tqSfWR7bUtHXq3Xax/JPvauLXuPz4xnNbPyjEbjnqDOgaGbOYEEEYlA5JwzCpXTnvsAkOhuBgAkm1VAXR4eoFD33Xffd7933/994f/Fp3LoaCIzXYNML+nJr5Dz3j+5ROLvVxNnX8KVZpIqsnlsS9R92MKAU4UlTkZ3p4uCfanIF+ZY8MiJ8Czi0yegWphm0KkkxShjbMRBVnEc88NzyGN0LIwvYkpPYff+SBp/PkDsNzMxzlgZHPOQUxpB87uD6IvMTA/OIxe0q0tuUqoScbVOMuaWIXO5MO9KI1Vl59LHYyQ/n015mnpNierbSZJScJN4iDuXvPS22JkZUJCZVkZ0lBH5JoGrVLba78fn90kgYWRkGLGGwo3x7KFyDlSXbfgNNWxBeOBtsukOorJmTc0lKShRlJt/Ulkum76AL/nAu2Ux+H0+AsJ+GPDjl8mRiZ/+AHKZj6ZP3uLT2Uz+4PWdRGoEi2IAj9dLIOCT7gOFLICI/1AoZAiiLjl+vD4/MgTdMsgCPomuWSEP4BeUzv5lGma5zI/P68VPAJUYw+eTHJwKuWBcvMOkGM5i+JIV5GFPNzE+xs2WRvbtPYQucn0kMw97zlA+Xrzp3rrVws3W68jU86TlRpOYGoNCeW/Li2vJzuy0DW9Ahs4UjckgY2nOS0SMCpfNgyZSg31ymkWPArVCjSlJh21yDqvdj9KgJyFOi3vRysyck4BShUGvxRCtxON04fHJ0epgts9KZFo02F14NQqJ1EeM0dw0hTHHJAVFzg+O0j9n5OCRaJbEWHKZxKU+1D2NPsGARiVjbngOu1pPfpaGJasXeYQKQ6QanUGObcqFMlaD0uvF6Q4QoVPistpBrcK95MS65EGlVWGM1eBecLCw6CGgVBKXGIFzYp7GFislBy1Ea8XmdcfFIPRhtWKk2+VjYsDJRJ8fhcdMiiVHqv6mjxSljzfXRJXE2ZkZRsdGEKx8ImbA4XSwuyw1bEHYnEgfy1GS9aCvh97ebnbt3hu2HqxDyhtKcwwEsM3PMO/TkBRrWKZKXlOifD1Uy8tVTD8XKyNgwSpN810ql65lUgwDhHUsajB1uVF7VUJ7u3fvC6P1DSyMCEzs7Gzjas1pdEYvFXvTiInV3ceSsIHB79N1I2mOXpebJbuPSKMGEaLnti4xtyTHnBixsjmA1+XB7vCgNWgQRSNdS04cHjBEq5HLPvt2v5yZsPo4vz9R0mezGPw4l1zYnAGiYjXSW8rnAYKwHMyOOWm/vigBg/zcUiyWdMmqFRUVI73xb7QJS8Ho6DBNjXVS6qkIWszMzpFiEa5euXhvHoQHnChsQdjoSqyvv3B3njv7CckpqRKba9h68GC5bQggfG64J8GkGAYID17ToOkh3oZ/86tfsHffQdIzsoJmXqEyEYlW2OXiwtV36O8dIC1fT2p2DJHiYbumRPOjvJ6NAITlR7lowvAncQTffrzfJjRaw354+6EuKJNXeq7CgTupipsBCCvMi8t2gpW3lmXKYq/Xz9KCh8FbDqYH5eTkpZObtoeYGBOmWPNtYLCerAahz4LTw263MTU1QUd7Gw6nnfz8QgoKS6ViR6sPnfUEKXpsM4zO+Ukw6RgenSMuzYLCNsfEnE1yWUTHJRAltzEyPIs2NpYkg5eevlkiTTHE6gOMjc7j9vvQ6iOJN8gZG54HDThcPmJjo4gzqFbWxC+CMLZ9FkN/Xy83bzZw+PAxoqLDsQfr2TfCAGE9Unq0fbYN1bLYRN9797f87rd/H51us5n5j1b4oTiaMGGPjA5ws+UGVscEpgQZienRREWL9LpHG/S5VQCC1+1ncdbN5LAL64SGaH0SOVlFJMSnShYDnS5yQ2+QAhgMDfYzOTmOoOdVKlUSNW9yStpddXs9AGGy6R3+23EXv/9KAf/uv5zia//738d77STdtgjUC71Mxe7mhbR5/vrnl0l56nm+VzDD//njOiqOHGZHkpV3Lk4Rq3fj05p4bX88v/jRBWJ2FuKfHUGXVc7ffy4PnVJApjBAEAGlJ4+/T2FRKXn5hRuOCwnFfeNRzDkMEB6FFDc2xrYBCII90elwcOyZF8M35MZ05Au9JT4Ep43xsTF6+m9KBZlMiQqyCs0bKsZ0r2kEvF7GR+ZQGU3EGgToePK1GOY7h2kf8BCTYiQz24Baqjn1RSvFWqIk8a1tUVgMlrDPaImOTMSSmENKSjrGmFipRLRSuf7iVavyEsFtnR3tqFRqiSxJ1CzQaO6d/bAugND4Fv/m/+umrCSBT88N8Z0/+y6j585Q+twrpC1c4S/emeblCh0XW6YwxhqIsi7hSFCjcRlQesZpIYOXclQseeVUZCr56Q9PU/qdb1GwUM9b3Vr++bd3Y9aJZNTtDRBEEGlDww0pLfXYMy88FGHWQ97GIXd4GCB8+Uu2LQCC8Pe9+T9/xnPPvyxRLIfbo5GAAAoij3t8fJQLl04wPTvM3mOZJKXF3BeEzY5Oc6trhpJdOUTpPkvqIzkJHA5uXO4iMr+AohTVYwcI7iU75090UnSkkKS4ZVP4Z2IQ7Iucv+IgP0fOUNciCYWJJFs0t2Mb7sakGPAHGOi00l6zSHJiHjlZxZLuxSckSQ8FYf5fjyvhbisl5C5cDOsdY10Aoelt/vNbc7x6NIsf//wa3/iT32Xw7Cnyj7yKufdDftJu5FC8lR6/GYunjf/ZZeY/fjuGaxcXkDPPh+58fv2HZZJM5NYe/vTP3iXp+ZcodDVxwWrhj7+xE1NE2IIwNzvDJ6c+5qmjz4YzqTa4DW0EIHgcS7zzk//KiQ4PmthMvvd7x/DXX+SX526hScrkd1/fRefpc8yUv8Jr0cNcHPHwVI6XX7w/zKuv7abhzEkc8YX4uttIefYwpskepmWJPLM7tZ78tQAAIABJREFUGYVMBC+u6LIUsHgnkDEcpLjBRQ2G7iJ468L503zzd7636U05GK4jmOcgHljNzQ1cu34Wc4qCzAIjUSYtKvUX0yI9Ljd2h5dIg5KpDhumohj88w7cSiV6NUwNTFFf209ERiblRXHERMLixDxzDh/KCC0JSZG45hdZWHDjDfhQ6aOIjYLpYcGgqMekCzA2aEURYyBG42V20o7bD2qdCqNZg7XfQUS2HrnVgdMnQx+pYHHOjjZGi8/qwq+S4ZpzYPP4UaiVGOO0RGhkOBft9LRMEWGJIyNNi2xtYKOAFAFwO7zMT7vpb7OxNBlBZcVe0tMzMZniMERFPxH9Ww9AmO+9zHu1Hp6rTuXNd+o58r3Xiei+zFufNuJQGvjqd7+Dov083f44khUjnJmO4/d2BrheZ2d/hZGf/vYCM1Y35rQMXj9g4qd/+TG2xGS0Bj2vvVjN/uyoO6Wjt2kMgs/n5WZzE06nnZ279m7KehTMe8DjnpvgjGiqPc33vvkcqgdY3hzz3fxf/+kj9r68n/rj16h69WUyIl3Y7DYaL57Fm1rE/LUapnb/Dt829nNmxM8bpT7+8mcdVO9J4dTxGsq/+ga7F2/yowuzZKdpef6N59mdFrkMCO4BEETa5G9PtqGMKSYvv4AkS6oUDxSqbctbEASia25qkFK9qqsPhOo6hcy85xemab/VxOTUILKIRRKSIzFbolCp71gKFiam6epdIK8iio//aSMZ/6QAd+s08vxkMlXzNLcuMT89hzw6muhYI1V5Cq5emMCYGol1dAnTgTKiBm8xMAHGRBnjvT5KDybQ/E4z7MjnQJKbjz/sQ52dx9GdKhrP9zO54EGp1bLz+RQ6fjxA9r8qRdU8xKBTQ0VBJPUX+8jYm8liwxBjCx4m53xkZeuxLrpIyk8iN0dF0/vdLBqiKCiLxxwrXAN3XAwuh5epEQezY1789hji41LIySrFZDQTqTdsKjPhUS36+fOnMevvUc3xASfZVBbD0jA//flVcp5/jiMZmpU3LJEeth4LwgjVe/dJgErUYthK0f2CyKqxsY78giKSkpIf1fJum3FmZqY4/8nbfPXlQ8Sa7hfY6WOw9gT/9cQi3/16BSffPEPhsWr6Tl3Al5+Jr68VY8kOCSB0xFVwUD/DkCqe7+6EP/9PF0mvyMU+NUhC9fO8qO3m371zi/iUFL73rWMUJQhek3sDhCWbkzePt2LJ2Su5Ei3JqVKMUKg22eT00mo+V6hew33nLfy1ghwpPSOTtLTMLXmNwXZRwu0gcvCHhru51VWHTG2jsNKCMU6kRsr4LEBoIPkPc/G0z6IqTEE72YszNhPl3DgKcyJT3cNkJ8m5MpvAd16KZ+j0VS7qd7BH3o9HF0desYFrf3MWTVkR9pEJbG41BqMMXB7mRzXk74pgcNRBrFHN9Mg8yRUJ9P18+D4AYZDungWscYm8/mIiQy0j2JQ6ikqiqP9VC7HHikmPU66kRQYQroSpUQc9LQuo/HFYErNITsrCYklBr4+S4gQ260p4VOsqLAhxeueXx4PgczM7t4RGH0mk5CFazlpYP0DYz1akWhaMibOzM1Tt2I1WEHqE24YkINKtT596j6qiZEqLsu9xrJ/J7pv8/K//jusLesoy9HS1j5K/ZwfyoS6m9dGoHHMUVlQyea2GsfLX+HrMIFemFXytzM+/+ctaXvnOMaaaLzMbV4yh9ybKyjLkAx1oc3fx9QOpEuHSvSwIIxPz/OqTfsp3HCQ+Pin0LQhbHSDMzc3S1FhPWVklptjYDSlkuPPDSUBkPIjKg7U3rtB66xq5pSayC+NxLszT1bdsQTj+zzs5+MPdOC8PMB0djck6RMuoBq3CjjxCh90uZ1eZgrMn5qh+JY3uU11oXtyDqbuZCVsUJTkeTr4/T+VziSwsytHODtC0GMOR3TEM1YwgS9Tj0mgpSI2g6VwnmYez6P/5IIn/MA/lrVFGPBHsKo+m+Uq/ZEGwNY/hkMtoH3Fx+GAC493TaJMENbcO27QdtSkStUIAAz/2JS9djQuM93nJz6kkMzNPijOIiTGiUAjXigjKe/LtSwcIn/PLhgECEqPl++/+HVU7d5OWlhE0uvHktXP9MxBuzLobV3HMD/DCsb1EaO7GF+Kl88JJfnTDy598+yARKjkDTVc53eHka28cwqCQSa7BCLUSn1u4E7VEyt04vX4ilH4Wl9xE6tR4XXZ8MgUBtwu1Tk3A7ZQ+R0Yo7mlBEHvCJ5c7GZjTU1hSKdXXSExKlvaCUG1b2oIg3liGhgYQFRxFQY4wan8yairWYXRkiJras1jtYyQkK1Ho1KTnGuj8cJrMr6bj7ZvFptWSHCOj4VwbtfVjRKZm8PTL+SQZZIw2d1LbZsWYm87+nbF0X2mne8COVxEg/0glicwz41Fj8i/RPa8gP0vLdP8kETEG+poGmbQGMGWYKcjRM3ljmK4ZJ/i8jE0E2POVLCI9dozpJtxjVgJREfhGJmnqXCI61URxhZlIjYfumnGii1LQ+N2MD9oZ63YTE5lKUUGVZDIWtQ9Um6jO+LhX5XEBhIDPh9vlAIUStXKZ7vY2+9xdGejW62LYWhYE8WATJebnF+Y4duyFkPZJP25dfdD487OT1Fz+lIriNApz7+aC8jPVe4srowpe2puHUiFjdqiHmyMOqqoK0As9xXfnIb9GZyWGRInVbDXwcP1MiuJlqHtghlM1gxSV7iFCH0tsrBlzfGJIu8m2NEAQN2bHrVbsdjvlFTvCQUEPuvse8/d2xyIjwyO0d13D4Z7DnKwhLcf0hdRIv9tNd9sImuQU0uLW+vrFDSuse37Ge8bxaaNITNYiv02KJC5gA0RJXhedjbNEphuxiOyFNTTId2NStC26GelbYm5MhlYVQ0ZqCWlpWRhj4oiI0AbtRvC4AIJ7cZazF2rQZ1dSnWuSuOzDAOGLN5FIafz4w3d59fWvS3UXwm3zEhB7eldnOx1ttewuz6Ewb31xKo+TSVEEJnYPTHO+fhRjfC7JqRmSa1FYD0K9ANeWBggivVHQK4sSuDm5+WGz3ubvy0d25CqHwuBgLzdbr2F3TpNTGktCShRqQS4gWeUD+HwBBJezfOXz8l9XAIL4zecnIEMqqnKHNXGDACEQwOf1g0Kc5+5Uy2JDEjUTRnqsjHQ70UckkpleSHpaNiaTOaiBweqirQUIoiiN3eYU71DI5HIiItT43G7cXj8KlQpthKCH9mFbdOAFlGo1WrUCj9OB0+1BrlCgi1AiD3iYHh7inY9OE118gOd3pmNQB/C63ThcLqkQlRhb4fdIY0eoZTidbmSiMI7Xh1ojx+d04pEp0KllUpGd5XLPIkhx61gQXE4nly+fx2iKpaJiR3gPegQ7iSAK6+3ppLbmLMV5KVI8gjHagFKpuK9874AEof0rgYafsxbcCcpdC3ZXrAortRfEC4r4L4CBy+WmsX2Etr4FjAk5JFnSUCgUEjAQGQzi91BuWxogiOqN5899yu49+zGbw8g9mBRV3Ih2+5JUrKalrQaFzk5mfgxmi+H2m/iTZlIUDIgiXXKowwlePbkZFWRkZBIXl4hWpwtai8Hn11mk+Jp0Dg7trWBpboiTvzrFmZ5J0gp3caQ8hpamAVwBD3KtgUNHDlMYN8y//5O3WDQZSSzbybf2J3D5kyuMLHoJRETy1OHd6Gea+ZsT/UzPjKDQ6jEW7OQHz+TR33Cd2t4FfNYp4nccokwxyul+JT94Kom33r1ObHkWi93jVD9TRPebxxkseYp/8FQ8qoCfiWkrPzsxTnX1PumBKrIYQnmDFfo7PDxAe1urVM45zOD66HYgAdwnxkdoqr8slTmPjzUQHa0nWh8pVWe8W1umYF91I6wt3nTnb5/N2lkbjLjSX6Qzi/gjp5uZ+SWGJp1oNJGkZ+aij45DLlegVmuk7AXBkBrqbUsDhP7eHql6oyBIEosWbsEnAXFDCiDX3FJDa/sNYuKVFFYkYoiOQLZsPnjsREmfqcUQEKVc/cxOOelsnMPnVJOZWkp+XjlxsWaJ/TDUHlpXr1xAE5jh6UM7l0HNSCP/4sdneP57f0hEyzv89PIMZWkGpuet7Dj6Ii+bbvFH/+8gh/cmMy4z8Uz8OH/xi1bKilNYmpkiq6SY0es3SH3tq2g6LqPLzKDhFyfg6IskLg1SdfQwqdMX+Y8nHTxVFEnNsII/eDaFN39TQ/GrB7A3NqExGjj3YQcv/um3eCFFLm3crd0TnKp3sHNXNdHRMSEPEIQFs6G+VgKTosT8VkrZDIadROwdCwtz9Pd2MzU5waLVisPpXK62uJkWCDC/MI8o2hwVLcje7j6I+F6tVhEdpScqJhaDIer22ooYpMQEC3pD1JawFm1ZgCCU58TH7xMXH8/OndVbYrE2o/OhcowgkVm0znOt9jSjowMkZWlJyYwmMkoUg1q+U9e6GJY/r30LePhiTV6Pn4U5J0OdVqaHID0jjfyc3dINHxm5bNkIlsyE9ayrMIFOTIxx4dynJMVpePFYteRCWAsQdG3v8bcDcfzrb1YikyvQ6dQMn/gf/LC7gK+U2Li5ZOLZhEn+88lZ/uj3XiA1WonSMcF//+G7WF78CvKOy0RmZdH+m0vIjxzEuDBMxZEDWKav8sPzXg7kq/jowgBpFh09/Ut8/R+/QWxPI78938KAoZS/+he7MErMdH6OX+piZDGaopJK9HpDyAOEiYlxmpvqqaraRWyceT1LFu6zQQkIS4IoWDY3Oy39FDp/x/K4wcEI0Nvbg0wmlyyF97vXxXer/8VZFEolOm2ktM4iHimU9on7SWnLAgS7zcYv//avee31b4QpTTd6nzzB/uKGHxzqpr29GatzjGizjKQ0A1HGCPhM6eRHBxB8Pj/zM07GB+wsTiqI0iWRn1+CJTFdehMIRSY0kV7a29PFwECfxCkwPz3Is4crSDCbYLKD//r2Dfa+8jtk2Vr4yakOSrIS0OgMWExKai93kHHsKPETLdTbojlWFMkHH14lIi4Rc7SBgqJUHN31fNy0yNx4D0pDAqb0HF49lEHnjXrGnEoUc8NEFFSTKxvhwoCCbx1I4MPjDeQ+c4B0ax9/+deXsbz6Mv98j1ECBza7kx/9up7coj3EJ6ZIrJPJyamSyTYUm9DjK5fPS7TalVW7wgHSj3kRBTAQLksR8yF+F/K/E2i8zpMHArS3t0pxNnl5BQ98yAtLgrByiv0hIkInZcltprbKOmf3RLptWYDQcauNhoZavv6N74ScSfiJaEKQnVQQXI1PjNDV3crweBsJqRFkFsSh1anWFFJ+SAuCcG8suOhtm2VuPIDZmElmRiGpKekYomKkGz8U3wREtcDr165IptaCwmIJIFy5eBJLnIY9VUXI/R5mFh3oomLQyjzMzi/idPuQK1VSQKLDq8Acq8Njt+PwyzFolTgW51m0eyR5REXriVR6Ge7u5b2TF4gq2MtL+3MwqgM47EssLDmkuNEYUxQKtx2rO0CMTs6i1YFap2G2p50ffjzAd7//FEUxCvw+H5frB2jsnKV8z7MS85xgUhR1K0LVLD88NMiVK+d59rmXJV6McPtyJCABA1FLZSWzaSNnFfdLfV0tCqWCsrKqdeneqhUhVPX0QfLZkgBBKMnxj98nNTWdsvLKB8kg/H2QSmC1KJGgWD1z5mNmrL3sOpROnCVSelA9jIvB6/Ux1LVA89UJ4o05UoR5WnqWVH451GIMVpdPyGtudpZ33v4VWTl57Nmz/3Zg3OjIAJfPn+CFoztJT01c94rfj2o54PNis9mQq0Smw3IcwQPTHAN+PC4nVpeP6EiVlBrZNzTLe2fbKal6mkhDjDS3xMRkKVAxFAGaiD14951fU1xSTlFRaUhew7oVZAt1FM+N+rrrkgVB7Adb9aG/kSXbkgBhYWGek8c/4MWXX0ev129EHuG+QSoBl9vJzZbrNDffINaiIDFDK7kd1BGKNVUVxeTvzYMgXAlOu4eFGRFnYMOxqKKosILsjGLJdyjeXEPxgSSuWlhcBgb6aW1pJDMzR+L9WLvBiRiPG7XXGB/u4Mi+UiwJgrvhbkx0n1WATdViWCeTosfjZXhinssNY6gM6aSkLft9hVleRIGHIrHZcp7+LVrbmvnKV74aku6pIN0CHvu0wgDhiyLeggAhQH9fL7dutUn11reaT+ix3yVBfAJhApyZGae7u5fhiRYUWjuJqTrMSZHIRX69NPe7AwSPx8f44CITgy48Ng0Wcz65eXnExVnQaoOX5Gg9yyEA8a32VonWOjs7T6o7crfmcbtpb29hqK+FJLOBzHSLVPQmUhuBSnVvOti7M8x9Pjf88+Vv1+SZr8kfF5uwze5genaJ/pEZRqacKHQWLCkZUqaRCBATlOhxcQkhacmx2axcuXyBzKwcaS1CFXCuR++2Qp9VV4RYp3sBBNFnu67jlgMIgvO8seGGtKAiOGi7LuxWuHnvdQ3ibXh6ZpLBwW5utl1BY/BSvCMRQ4xGCmRczndegQsBP7MTdlprJ8AbSXpKEdlZ+ZjNAhhESEFwoaojYuOanJyg5spFzPHx5BcUS/zv9zONCpKZsdEBOtpbmJ+dIOBzS/1VqvsEAy4L9Ha66e3fJRkLoLD6/dp+a/6+0k9yQPj8Ul0ChUqHOtKM2RyHzhB7u+JdZKSehESLZEUIxXXp6GhjeGiAgwePotaEU6uDfR+yWq0SDfwqkd7nXQxOp5O2lmYqqlZShIP9gh7x/LYcQBALeq3mEhmZ2aSnh6s3PmJ9CarhxAPS63XzyamPuNl+lcqDFtLzRKEkmYQPnA4P7XUTdDROU1pYTXllleTb3gppSOJtp7+/h7NnPmFP9X7J171+n2mA+bk5RkeH8Ho8iE1SVMp77E2GREGrj9SjiVi2FqwFAWq1mpSUDCK02sc+lcdxArttCVFaOz+viKyc3MdxivCYj1gCgkfh6pWL7D9wBAFO1wIEoZu32lski/QLL736iM8cGsNtOYAwOzNNQ+MNdu7cQ3R0OHo4NNTw4WYpTODdfTdpqL+GVzZHfHoEbqeXiQE3Oo2JkqIqUpNzpZTF9T9EH25Oj+/ogPRA7+7qYHR0mMLCEsmcvdG3bQGuhEtifn4Wh92+nBa2WYKZh7jYZeuFSuKZMMWKOJDQrHwn5NnW2szI6DAHDz4VkvETD7GMIXuo02nnWs0VcnLzpBLtdTeuS66tisodCGvbyRMfUlhYTE5uQche48NMXDY1s7Rsi90irbu7k9GRYar3HkC8kYTb9pDA8gNvgYHBPurqL0kbdEF+JZakFKKijFsiWExc48T4GK2tzZIJPi+/kLg480OBnmU+eScej3uZZMa/1pXwOHVH5JAvgwONRiPFH4QyeBNsoJcuniM/v1CyXm4UsD1OSYfHvrcEhM4LMiuhfwWFRTQ01KGQLwOE8bFRamou8exzL0nEXduxbSmAIHybdTeuScCgrHx9eazbcdFD4ZoFCcn92r1IUIQOiNoDgv5UlPj+vBk7FK79bnMU19XT3UlDww3JaiDeeAQIelQPotVCNptIH38oka5lo3uogZ7gwUJ2LTebmJ6eYv+BQ2Fa9ye4Fhs9tVi7np4uiaq5onInLS1NEkAQ6fF1ddcljg7hwgtl8LpRmaztv6UAgkDxFy+co6S0TOJACLfQlcBmAYK44mvXrkiBc3uq94WuANbMXMQHiAfQQH8fu6v3k5IiGAZFGctwCwYJiH3n5ImP2LV7L6mpaY8MtAXDtW2HOczMTEsESTt37qa7p0sCCMISJOJ7du+plgi7tmvbUgBhZGSIG9drOHrseQyG7WkS2iqK/HmA4Pc46e3rQh1tIS0h9r40qk2NdSwuLnLw0FMhLQ7xdrO4sCBZDXx+n0TeEhsbF9LXtNUmL9ZIFGQS1oMjTx0LWw9CcIFdLheXLpwlLSOT+fk5CXyLSoxDgwMcfVowe4ZmXMyjWIotBRBu1NZgW1ri4OGj4TesR6EdT2wMPwujo9jRk2jRMNg0SkxxKkujQygi40mKjbovQBCcAMPDQxx75vkndgUPc+Ll7AwvQ0MD1NVek3gNRJZCpF4ffjt9GME+hmNFUPSnnxzn8JFjJCRu3zfNxyDaL21Icb+JuJ7BgT7izAn4vD6s1gWSk1MkNszt3LYMQBA+2pPHP5QCTbKywylGoa3UbtrPnKBtQkPJrmiu/KKd/X/2DZYar6GKL6YsM/ELAGEtmUlfXw/tbS28uJKaJHRjemqS+ITEkHjAiqp0nR23EBax3LwCsrJytvVbTLDqsgjsvHzpvJS6uW//oZDQrWCV5ZOelyAbe+etX5OaliEF7YqsHrGmoo7Jdm5bBiAIP9LFC2d59rkXJfNQuIWyBARA+ICLTdMk5enpOG/llT//7j0BggAHgmbYZDIRFRXN2OgINTWXef2Nb0hCEGV3T534iG9/9wdBb1laWlqSeDxARmlZBWZzfPjBE4SqLHROZEs1Ntaxb98hjCZTEM4yPKX1SkCs56mTHzHQ3y9l1eTlF7B7z76QZPNc7zWvp9+WAQitLc1MTI5z+PDT235R17Pwwd1HAIQzjJHKwaOxfPQfTlP8z17D2ngdVXzRFywI4ua+VnMZXWQkpaUVzM3N8MmpE3zjm9+WHq5Xr1xAPHifefbFoL1s8cYyPj7K2TOfkpqSys5d1Wh1jy5LIWgvPEQnJnLkRcaUeBkpLikL7zkhuo5rpz0yMsxP/+qHxMbF8ZVX3ggT7YnXlK3Ag+D1ejh39jSW5GQpBexRpX5tAZ0P0UvwMtZ+iwVM5Bbqaf64DcuzlTgH+1AaLKSYo7/gYhgY6JPM8nv3HpBqtH/w/tuSBcHvD/DxR++yd99BiQglGJsgKuof6EOUKM/JyaOkdHv7PYNljcS+IphZnQ6HRJqztoSwyFwQfuucnHxMsXEPSMp99FckAukElbNaLXgktFuC5+PRS2ljI4oqnD/+0X8hxmjija9+K1zob6sABKt1kU9OHefgwSOY4xM2phXh3kEpgY2mOdrtdi6cP0NaWrrEq/7O27+WCE7sNhu116/y4suvBmGEeYDZ2Rna2lrwuD0St0FycjiF8UkrpERINTZEb18fLvsCMpkPueyzGukR4MHhkKxWIi1ubbvD0bFaj0J8u8JHd5toYpWfbvXva/p8vu7FbSq7O8eIYfwBOQGZAq0hnvS0NOKT0m7XtHjSMgy184ug4J7eW5w89TZ6fRQH9z9HSnK6RPu9nV84t4QFYXCwn4b6Gzz/wlck/1G4bT8JSJHILc1SYN/Rp5/j/ff+jj179jM9M8WSdZF9+w8HVfyBmO/4+JhU+S81LV3KuxbkTmF+gyeru+JB0XKznrbmGxTnp5OWbMZg0KFWqfgs9cRaIq87ZLTLz//VIlYrFS2lglaiVJX4uVr1crmPBCbE325/v9LvLsesklmJ/n6/D5fLg83hYnDMStfgAtlFe6ioqg67OzaoQjbHAteun6e7p5WsEh0up4/hTrcUHLyj/DBGU6xEuLYd25YACFevXpIQvmC8CrftKwERffzpqeMSg+KNG9elbBaRhpaQkCQFHQVLE+ZqAWrPn/uUvXsPkl9QFAYGQbA4IttFFOupvXqGH3z7JZITzRue1fJDfC0wWPt59e/i5zIQkPqvHrMKCr4AJkRf0W0NyJB+Xx3Dz/jUIm9+1ExR1dPs3r0fxTbO3V/vogl5ClfRufMfMzZ7i+qn09EZlBK8m5mwcfVUP2ZjJvurj5Gckia5cbabNSHkAYIguRDRp1VVu0hOSV2vboT7bVEJNDfWMzc/i91mxxAVJfmORRBZfBC4nsTDQBCxdHW0MzU9Jc1LVBzdbptOMKqez+ulvf0mPR31vPDULhLiTZtalycBECSwEfAzPm3lg3PdZBcfoKxiFyp1RDCK+p5zuj+5+m0nzUNfk1gjh8NGT28rtzpbkGmnyS0zE2lQrVh1lsGYdcFJe90k3iUDOZkl5OeVSdaE7UScFPIAQRDiCNQvItS1IVom9qE1PjzAbQmIdNfz505Lm7u4yePM8ezcWY1Op3viUhLuj9aWmxLLpyi0JHKsw+DgiS+LNIGZ6UkunT/OrrJMSgqzNz2pJwkQxKT7hmc5c2OCij3HyMgqDJmHmQAHD7oX/I+kUEiAmdlJGhpqmFroIilTS2KqAZVaQWDVInPbWuPH7fIx1r/IaJ8bgyaZyvK9JCenBWE806ZV9r4HhjRAEDejYE90OBzsP3A47Ht7PDoSUqMKM7Hgw+jv75UIT4RlqbJq1xPdKEUKY3vbTams7N79h8jMzJKqMT5oQwwpwYfwZMU+Iui5HQuDHDtUhUYt3iQ31540QPD6fFyqH2HYamT/wacwmUKDmvvLAghTU+O8//EviTFDbmkckVEqRHiBWLe7AQQpGNTnx7ropLt5nol+H4cPvCAB/MjIrc9sGtIAQaQgnTv7ieRrzssLHh/z5raW8FGPSgKCT+Ct376J1+vj5VdeJ/sJMmsKkNLUWE9fX6/E6y6Ij8ItuCQgQOXl8yfISjFQVrR564G4qicNEMT5uwamqe2wk1mwm7z8kpBIgbwbQPDY5zh/6RLx+fspSzfxMBYEl8shVWq8ePk4ueVG8ssTUSiXrYyrsSD3AgjLwaR+CSj0tc/RfHWKkuIKdlY8JRVyUig+m8USXNr9cLORTc/a7oTgPtxYX/rRM9PT3LhxjR07dxMXt/GAoi99wuETfikSEBHev3rzZ1itSxIXQnz8l8+RL6wGM9NTtLQ0S5YCwW0gCi2FrQZfigps6CQijunCmY/ZVZpMZrplQ8d+vvOTBgjiYTY6ucCZujkS0stIS88kKSn5oa7pyzp4cqAVm89Mepafq7/tpejVcsa7uohMLCA9NmI1UXRD0/H5vIyNDdF08zqztl5yi80YTWrmZ5dw+0Ch1WI2q5Hdx4IgZOr3ebBa3Wh0KqyzDnpbrCj8MRTnV5OTXSRZE7ZiBlJIA4TBSWtJAAAgAElEQVSe7k6JVldQYgrSkHALS0BIYHpumL/7u1/gdrmo3nuYwrwqKbf5y3o4C4Kd7q5Obt5slDgZcnPzt4U5MlS1T7BsXjr3MUf3FkjBiQ/TggEgzMzZOHl9EpOlWLJYZWblhgQ/QtuV33CxZpKYlABd1/R8/89fpfPKFUx5h6lMM2wYIAhw0Nh8jZb2GuJTNaTnxqDVqZnoHqS5ZRKd30n9XDw/+HuZaB8AELxuF+OjVqLMBnQRMhx2N2P9Swy2u0hLLGfHzj1SttRWC2AMWYAgbsS6G9cl85ngrN+K6O1hNqrteuzk1DCfnHkLhc6G0RzBSI+d9KQSykr3Ehtrfux64nDYaW9rZWxsRKrAKCoxhnUzuLXRurjI5fPHeeZgMXGxMQ812WAACLPzNk5em8SYVCSxPKalZUmETsHeOq69R2uvnLR8P5ffnOOr//aVTQGE5WyhaerraxmauElOqZGk1GgUSjmBgI+RtgFmPTrydZP8xw9k/MH3E+m7NsjErAuVQU/5kVRsLZOQEkOaxU/zxzMkH41jpmcOU4oJo0G+7HTw+5mdcNDVuIhWnkRF2T6ysvLQarcORXrIAgSP283Fi2clqlNBNPNlvR0G+022nec3MTXEJ6ffRmd0UVBlRq6QMTa4wM2acTKSS6nec1QCCY/LZ7i4uMDVK5ckv6aopRB2KYSGNm5lgGCMjSMlJQ2DITroF6On/lNmvZlU7vbxy395jaf/9UsbBgginqS/v5vzlz8iMsZL8U4LkQb17edDwOemt6EXly6BPNUQ//59Of/4H6Yx1jxE/4CViaE5cp8rRtM1TNeMF2NsgPEuJYf/IIPRhnGS8i0kxgquhBWiq0AAl8NDb/siE10KCvJL2bnjINHRxi3xYhCyAEHkk9dcuUT1vgPExBiDXvnDE3y8EhgdG+D02XfRx7kpqEpApZKJsCLEhjE/ZaP23CjJ5kL2VR8lIdGyqZtXjCVKMYt0WqXyTqS7+PvQ0CA3aq9Km3FZWSW6SJFW+aDM7scrk/Do65PAlgYIphWAEBX8AMFlW8SHBl1kgJlhG1GWaJxLSygjDOikNMT7N6fTQV3DBTq6G8koNJCWbUKp+mwAoce2RMO5dkwVxWQ5uvmLd2V899Uo+nqsJKUZGG7oJao0G0XPOAsGPelpfpo+XqLy+6n3BAgigNHr9TM9Zqer0Uq0Oksiq0pPy5bSIUP55TVkAUJXZweDg30cPHQUtVq9vp0g3GvLSUCYEycnRzl36X20Rgf55fEoVDKJOEb8EyZFiTHN6qLxwhTmqDz27DosRR9v1PQv2A97e7qorNxFdEyMFLEuXAr9fb10dt4iv6CQ/PwwK2KoKdm6AEIggHVmgqZbQ3hlcmR+P36llqLiXBKi7sQ/BZuLwRhCAOFBcPpeAMHjdTM9NUlT83XGZlop2ZVMXKIB2RcGdHLrdCct3YsklyWjmxvlRKOfQ4cTcC45iNRr6G8ZIudgIYrBWWRZceRl+rnytxNkv5HEeMsUCdkJmI0CrNyxINzOfhD7gd1D2/VZvHYdJbkHyM8vISYm9rFZLR/3vRayAOHDD94hIyOT4pLykEZoj3uBt/L4YjPu6++SUpfMaZBVGIdKI/yDy8xyawGCP+BnYcZOd9MiKl8KB/Y9TZIlZd03rrAcfPrJCSllsqBQgAAFc3OztNxslNIpCwqKSEzanGViK69RKFzb+gCCj/7ma/z0RDdPHaxE7ZjiQn0/z3z9DYq0C9R2TqLQ6snNTke+OErrwLSkIzExBrw2K1aHG4Uqgsy0WBZmppmas6EzxVGYHsPs8CSLHidT807iU1PIiHTTM+kmPyMW68QINlU0KVonF2+OIVMoSElLJCNOi1y2tubDMh2ziLhfG4OwXoAg7qVQfNO1O+y0tdXT09eMLtZFZr5gRLzjUvis/s3y8b9vw/RaFoIdQjzkbSP9TJFCYb4a+5IbhT6CuJgI/A43AZ0SXUSA+TEX2ngVLqsbtU6NSrlSQ2OFKnstQJCsCR4/Y302Jvr9xOhSqSo/RHJyRkjWCQpJgOB2u/jJX/2Q3/md70m1u8Nt+0lAbGjd3e2c+vRdivcYSck0Il/Ja74bQFgOKvJis7ppuz6NfcrESy+9Skpq+gNBgkibPHH8Q8lSdejw09LP8bFRzp8/TWZmNkXFpeEshRBWwY0AhJ9dnOYffPtZIqxD/PK9y+w5upOWU+dYSt+JYaKeOWMxOd5hrjhM7NGP0rsUz/50GX/5N6d46nd/n0r1CB+12zhSYKSuron8PbuZraunX2OhzDBJzbSeFyriOHtzgX/y7X10nTnBgD4d3XAHp/2ZPB01xS27lm8+X0VqtCggtFLoScrn3zhAECRzXZ23mBgfp7yyKigoyderSoJj5ONT/5Ml+wz5lSbJaiCX388O4Waiy0ZUTgwiaVL881jnmXeqMcUKK/QKJ8IaJsXV4ltiT1ktliUskveyICyDBaQARtuih75WK1M9GvbvO0ZxcSl6w5eXTbVeOd6vX0gChPb2Vq5fu8r3fu/vhSTqfRQLt53HEDfq4GAvZ86/T15VJMkZyzEo4sYVloJ7AQThbhDfi42g8eI4jgUtzx79GimWnHuCBHGjd3a0cfXqZb7z3d+XNone3i4unDvNwYNPUVBUEtbBEFfGhwEIBela3jk/zd//V3+IsuE9fnnNRZFxnjcvdGPURbL/hVf4XpWP7/9vP+d3/+zfYGg9Sasumz84ksbxX7/FhC4V+XA33pJjfCd3in/31zcprUrjZvcif++ru+i7dJZBmZFbzYMc+EffYp+zi5+cGuCll6qpSBa1FtYPEIQui3gZj8fN4uIibS3NtLW3YDLGsnvPXjIys0IiHVKkEU9NTfHbt/8Kg0lB9dNZUvrietvtB71kAVg/UdJGAMIqM6MYf7TXTsPZBcpLd7J751PExyeiUCjXO90n2i/kAIJQ8A/ef1tS5oqKHU9UeOGTf/kSWI5S7qGu8QymZC8ZBWaUyuVSrBsBCG6Xh66mObzWaHZWPkNOVvEXQIK4yQXZUV3ddYqKy6R6DoJ7Q7gWRKElEZC4fN7QNM9++asXnGd8GIBQUZLMybMtVH3lNVRdF2l3JZEZGKZensHR+HEa+qP47uEY/ujPf8m3/9WfkzxwltMzOl4qiePahRpi8guZa6xjNLaUZ1NmeKvWxuHKBE5f7KK4KJmFwQHicnKY7OomYs8RdvoHuDro47XnK8kyiYfMgwBCLKZYs6Sj83NzWK2LEjgQZa2F9VUUCxPZNhuNx3ncK7n8MF5lplyhQg4EWFycp7PrJt39TcQly8kpSbh9/693Tl8mQBCuTnEl89Mu+m+6iCCR4oJqsjLziNQbHmi9XO81Pa5+IQcQxOb84fvv8MbXvimZdcNt+0hAbGotLY3U1p8lp1wvuRVEkZXVthGA4A/4cNo9DHdbmR3WsmfHMxTml3+G6MTtdtPcVC+ZC2OMJskUG2c2k5uTL31eWJhjcGBAYvEMVxINXT1cH0DwMzc2SG2fjerKPJTuBRpa+0nLzmC2r5VeqwaNzEdqbgGq2W7qhuwYIwIYLdlUJvr4zYkbVD3zAqneEWraRwXBPwFlBMU5MXzy64/oUmeyL1ONzGShPF5G06CdwzsymepqY1YdR5RrgrrxADFKDzGJSZRlmYhQ3DsG4eMr48gjk/H7fIhiA4IvRhMRQaQuUsr6MhiipM+rwFp64xX//Ss/A4FlamPp57J5ffU7yQq30l/0kUzunznOD37JKL9y/Oqxy+PcHlc6ZmXs1fNL5xHRQxI6WD7v6rn8PqZnxglopskuMi4HIt7XpXB3nXwSAEFcp93qYWLISV+dXOJMEHVixD4SzORKIQcQxCYtIsmfe+ErobsjhWe+YQkIy0FrSxNXa0+y7/lkIqMivuBv3ChAEP3FuBODdhrPLfLyi79LSXHlbZfBxPgYly+fJyoqmu7uTl548RWJLU1ETNdev8LwyBAFBcUS54HR+HAMfBsWSPiARyaBdQEE8bzy+/H6Aygl7v0APp8fuUIuPew9Pj8ymRyF9NmLx+uV5qdUyFHIArjdHhQqBYqAT/pOxLUIf7nCPc0vfvoB1rwj/C9HloNclTI/Xp8fpUJGwOeR3kBF6K3L40VGQDqHGHPVZ75a7nlZIMtBim8eb6dvzLHiN0cyaYsHkRhfshbIWP5dppDmIQIql7+TIZN+lyGXyZErFCs/xeflv9/+fmWsO/2WxxEPbTGWkIf4Kea79rP0++qxt8dYOwfR/8440vEyhQQmGhquMz7XzsHn8ogyaTelA48LIEzVdfPBhyOQbuHVr6YTLbipViwIYl08bi+dDVbari7y3DOvk5GRRZIllYgVoLapi3nMB4UUQBBvkLXXrxJjNFJYWPKYRRMePlgkIChTBTC83vApeZV6ElPvntO9GYAgFWHx+yXa1N5GPwerX6WosAyvx8Pbb/8aj8dDhCaCsopKXC43AytVIrOyciSmxEj91q/oFix68LjmsV6AsJ7zB0ua40eXR3HJTSwuLKDVRSL0VVi54mLNEi29IAsLxawFEZh4teYM3f0NFO2IJz7Z8BmuA1FQSeQ3CjCHADoBPx6vsKLIUKqUCHYUr8snWTcCchkqpcB3PikTyS+TIQp5+rziWFF/wYdfWEJ8y3FNkrVCuBMFBcqK1URUgmz+tI2ogmR8rgDmJDWjF3qxpVooK9QuZ1MFwLbgpvemDcecluqq5zCbE4kzJxARoQ3qdQgpgGBbWqK2tob8giKSkh6uqMp6bvZwnycvAWHmv3mzgfauq6QXarFkxCy/pd2lbRogSDe7n9H+JSa71eSl72Np0UZDww0JjCYmJklWBBGBnJRoIT4hUSJLCretIYGtCBBWqZajoo2oVGoWFhYQTJ8CGBiNRskSJmiYNSFYw8blstPZ1U5Lay1ao42sAjMGY4T08B9un0AZHcFkzxTG4gxkw8N0jjlRyGQk5qeTEmOj/vgYsgQ5DqeWHUdSsA2MMjBoxSFXUVFtYaZ9lqj0CMZ7plGo1UwPzWJdkpFcFoO73YHl9RR0U1YmF3ykZBgYbR1ElWohIQbmR+Zovz6GNj+V0kItHpeXsX4HE/1eYrRZ5OeWkGLJlnhUxLoEewspgDA1OU57exvlFVVERz8cZ3qwL0x4fsvm0tbWZs5f+pAdRxIxJ+qXTbr3aA8DEATSF+6G6TEXXde9LExBTnYu2Tl5WCzJkq9QoP1g9heGdWZzEhCBe5fPbc1aDIIHITklDZ0uUiL1mpmZYmJinKnJCSljQfB6ZGRmh0RJ6LWrK6x+c3PTXK/7lOn5Pop2WjCZNTR8WE/niI/YPAt7yvXUXBwlqzId1ewkjSMBdpYqqXt3lrJvZDF5upGFyp1QW0PfLHgXF8j76gFkNzqYRElSXjxFhUbmeofpvOmn4jUTTf+tlalsPZoFNxGpcRw6kkjX2RYiSgvISvRR/1Yn8wlxVJYbUcv8dDUu4JiKJis7l6y0YhISk0Oq8qNsZi40yj1LpDi9PZJyV1btDGq/zea2qfBRd5PA0NAA7733JkV7okjPjZPqKzxOgDDSa2eoSUluZpVUBCzJkrziP30Qz1t4/UJVAiKqXyrWdCCEijV5XdSePkejKofvHkwhQn4fHoTUNMkCJkHuQEDKYBCgaGR4iK7OTkTAbm5eAXl5BSFnGbPZFmlsquVm21WKdhiZ7h7DI5czNKvg8BETNbXzHDiag3x6nEttNsqKNLSetLHn+3mMf3SW1uQ9GAdb0GekEm9SojMp6Tw1gCpBydSCkupn03ENDtFe76fyDSM1/+EW+m+lox9dYM6rpmJ33BqAIKP30gDq8hS0dhddDYtoSKI4fzcWSwrm+ISQo14OGYAgEGNzU6MUpFNSVhH06SGhulkG47z7+/s49enb5JRrScsVtKWP3sUg9Gu408rgTSVFebulACJLcko4UyYYFeIRz+l+AEG4nnzCiSwqa4gAPYkEZ/nzclAfUrCiCPiXAu9k4nuv5LeWqH5FtoIUzS/6i+h/4Q5ftlYppAj85Uh/Aj58oq9fpMwGpHEDIpgxsDyO6CqOET5vhH/d76W7uZlehYWni2NRydYHED4vOjHm8PCQRPyVm5ePyRT7iKX7+IcT9+6tzgbOnzmL3TpK0bOZuJr6cZbko+zoYtCjIcLtQJuZTUm6lVM/7sVUFc30GFR/rQRHcweDs150hkjy95oZOj+GeXcsE1eH0O/KJdY+TnuDsCDEcP3/7iXtjwuIHpihf9JHYXksXedbiCjJJzMBRtummfVEMN3pJjkxi6LCKixJacTEmII61uBeqxQyAEEEqp098wl5eYWkpaeHC+E8/vsuaM4gWY/6eqitP01CJqTn3T1jYLMuBq/Hx0DHIlPdOvKyqsjMzJJMgYL3IBQDuYJm4UJkIvcECB4HtefPcrxtgXiNiyhzBkr3LF1zPqIDS1iKdlGZ4OJszRB+mZOIxDyeLk/ixuVL9C/60UUa8E2MMGAPkJZQSGH+IouOeNIY4TfXx/j6936H0rhlHoO5wU5+9sEN5EolAZ2Zr72YT8+FVm7NLyGPjuOlKgO/+EUd+792DPpvMRGVhGXuFm3qHL69PxnNOi0I97a+hTaXh9gj5uZmuHT5DDP2PrKzNOiTE9DLnIyN25GpVMQmxuBbGOTSb+bJfikRvd5AgkmJc8nO9JQNr09ObLoB/5ILlV6Fz+HAp9KgCbix2QJEmhRYRxyoLREoXG5cngBanRL7whIybQRum4vms5P4ZHGU5VeSmZ6POT5ecu+E6j4SMgBhaWmJUyc/4tix54mKDv7KZCGyN4bMNMWbjkg1vH7jNOnFKiwZRhSfczdsBiB4BDhoX2S0Q0lpYTXpGZkkJFjC4CBkNOPhJ3pPgOBa4tN33uXdQTlVUbMs+pORuSYZVJnJ9I6gMefhGm2lm1R2W3y0DbsoyjDSOebge99/FnfHCHOOfo53BPjH3zhE75V3uNgNgblRLg/a+eP/41+wzyIAgpfu6xf4yTUvX9+h4dPrU7zxejkdV7uZcCzSNevlW09Z+O//zwWe+v3XoPMmM5YcsibruKYt509ezkan2JwF4eGlFzwjCJBgty/R1FxLZ08TyTlqqaKjOuIOa6HbtsBwl4fkchOqR8SkKLIkpoZt9LXaMKgyKC6slKyPgqFSqVKFLDiQrGahEoPQ0FDH5MQ4x555PuxeCJ578kudibAi9fR0c/bch2SVRZCRH4dSuXmiJJfDS0/LPAsjkRTl7SI1LUOK7hYZCqGK+L/UBdkiJ7s/QHifC95UnreMcf6aDXAhK62m0ttC65AK11wvk/F7+cOnM5CrNEy31XCiw8s/+IevEzExzMBgG+/fCvDPvnWEtk/+lv9xfonndkTx28vD/NGf/q8SQPC7lzj563dp0ZfxUpqVDy+Osb9cz09/NsDzv5dLx81xvrI/iR/959Mk7S2HqQnidu0gd7o+DBDuooMixkJUXq25cQqF1kp+eRLRxjtZR4+SB0HsId0t8yxOKElJzCUnq5TERAuRkcHPkrie2zckAIJY0L/+6Y85cOgI+fmF67mucJ8tLAERqHri1G9IKVCSkSdoYpcDCDdiQfB6vHQ0zrIwoqe0aA9JickS6g/1+u1beNkf26XdHyC8zc+uTZCq95KavwtmOrk+6sas8lJ68FmqdUP8h3daSY41EJuax9HqVM698zZ9dj0luw9QFTXKeysAofX0rzgzHMcPdsn5lz+v4w/++J+yz+Km5dxZ/ssvr0JcAtEyB6PzMp4/ksG147dQZEahVEXzg2cs/Oi/XeKlP/omtNUxFJdJ1kTYgnA/l8mSbZ6rVy/QM9BA5f4U4pOjpXiORwUQ5qYc1J4eQ6+NpazoAGmpGRK3QSimjoZ0DML09BR/87Of8I/+6J9JqWbhFpZAT08XNbWnyCzRkJAaJYGE9QIEAQ762ucZ71JRUbIXiyVVSgUTKYxhy8H20y0BEC6dP86zX8hiCCB0xS2IdpChWmbVkVgTRbSgWqVEKQvgdItgwoDEMKhWKfB5XBLxjkKlQolPYl9UKeT4fW58AaSAQqfHi1qtRI6TS+98xDVy+EfPZePzuKk5f5UJXRKvVWciFwQ9gsBHCS6Xd5kUyO+V2BVlAS8+ZGgkYsc1LoY5GyevT2K0FGM0xpKyJothu62usCY0Nl3jRuM58spMJGcK/oFlJkmpnuMmijW5BbfBgJWuhiXSEssoLCwizpwosakKnomt1ILegiDQXt2N64yNjfCVV97YSrIPX8tDSEDc+B232mm4eYHkPDkpWcsxCfer5iiVe15y09s6x/ywltLiXaSnZUnERxrNMi99uG0/CSxZrVw8d5yj+wpIMD8cZfbGmRS9DHd2My43sTPbSMDnZbh/CKtCR0GqUQIIqw//1YfZctbDclXSuxVrmppZ4pMb08Qml0h1F7YzQBDaLLJDuntaaWqsQx45R3puDDFxWilleiMAQWSrLM46GeqyYpvVkJFcRHZWIbFxZingcSu+XMhm5+zLOTtB2pwuJyePfyhxH6SlZQTpLMPTehISECChv7+XyzUnScgKkFkgeBLElrm8qYp/osTzav32pUUnHQ3TYI8jL7uClJR0zObQy01+ErLeyud0Op2cO/0heyrSyEhNeqhL3ThAWElz/MLDfs3fV6wD6wUIQ2PznG9axJJRJj24UlLTb/MgPNTFhfDBIhVyfn6OlvbrdA/WkpptIi3biFyKX1wpCLWyBlIJrBUAtlxUMoDH42WoZ4HBznnM+gIyMnJJS82ULDQqtZrlBNit14IeIExNTXL58gVeeOHl8Fve1tO/h74isSFPTo7z/kdvkl2hIVW8hd0FIAiTb3PNGJ4FE6WFu4iPt0jkJaHKSf/QggsPcFsCAmheuXiSFHMElWV5DyWZJw0QxPm7Bqa53uEgLbuCiIjIbW9BWLugXq+HgcEePjn9AZZcBYWVCQ8ECD6vj1uNUwy3+6goryYh3kJqanpIMSJuVqmDGiAIZe/svMXY2CgHDx7Zcv6dzS5a+LgvSqC7q5NL146TVqgkKTMKhSi2IhVi8mG3uehonGZpIoKq8n1YLGkkJaUsV7ULt20vAbHPiHofC1O9HDtUSYRm8xz5TxogiEqRZ68PMW43kp2dj1qtliyvkXrDtl/nVQGINRoZ6+PTT06iMiySW27EEBOBfKV89qoFQQCDxTknXc1z2Gc0VJRVk5ycLtVjEVaD7dCCGiCISnoN9TfQReooLi7bkj6e7aBkX8Y1Cp4EASYbWy4Sm+4mNTtKRHExN22j6+Y0flsUJUW7SE3JJjbWHHLc81+GDLfzOWZnprhw9jil+RaqyvM3LYonCRCEObyzf4qzN8bJLtiJIToWhVJJVlbuloqs3/TifO5AEZza0HCNkelmYpMVpGRFo1QLrl5w2t0M9cwx0echJjKd/Px8khIzpZiO7VSPJagBgs1mo7b2KjnZeZKZLNzCErifBARIGBjo5dzFD0kuAKNZS8v1UfTqJHLSK7AkpxMbK7gTQpu8JKwFj14CwtLU3d1B3bXzvPj0LtJShOl54+1JAoShsQXeOdNBckY5SclpyOUKyQyenpEVtpbdYyldLhf9g13UNVwE9Sxl+xJx2D3cvDYOzhgy0/NIT8sjISFRyqDbalkKD9LwoAYIExNjtNxsZtfu6m0fZPOghQx/vywBEVw0ODjI+x++SUBhJdmSSW5GJQkJyZjN8dKmGW5hCdxNAiKQrbWliauXPuHlZ/aSlWmRTPQbCT97EgDB7fbQMzjDycu9xKcUk5mVI1lbxX8BDkSgYrjdWwJizxDlsI+f+i1jkz0S+2GCKZv83FIsScmYYs3bymqwVlJBCxBW4w/Gx8fYu3e/RGATbmEJrFcCjY11Uv6zSI3VqPQSdXI45mC90tu+/SRLQlcnTXWXidKryc5MItYYTZQh8p5Fwj4vLSkCfiW/fhm1is+SZ3s5NVH6ffmnVMhptWDT7e9W0hhvj7Gc0bBK8CNl6Ph9OJxuxqcX6R2eZ2rOTUJyHomW9NvVR6OjYyR+j62Yfvc4NNTjdfP+B28SGRnF3uqnUMiVREaGbh2FRyGjoAUIIv7g6tWLxEQbKS0rRyaVMQu3sATWJ4He3m7q62p59bWvheMN1ieycK8VCYgH8fzcNJ2dnYyO9OF0OAj4fRK5zvramszxlTS5O8d9Lqt8OY9u9cyfG/7zfSW0sYw5BFGSTE6ERoNGH4s5Lg6tTuTiyyVAoDdE3TaLr2/O4V7CgnTjxjUUcoWUVh9+oYCgBQiiONPJkx+xd+8BLJbksPaGJbAhCYQBwobEFe58Fwm43W5mpqeYmZlCxEOJB0iwNAECVCoVKsH+KV8GBaIJH7nBECWR9wifedh6sP4Vux9AWBHvugf7DO5b91HB1zFoAUJ/fx83amv4yiuvh/kPgk9vgn5GYYAQ9EsUEhMUga8Oh4PFhXmcTgfiszDvB1MTIEChUEqZCnqDAb0+atv6zB9mXR4lQJCsPEFNQbg+SQUtQDh/7oyEkPftP7i+Kwn3CktgjQTCACGsDo9aAoJQSfwPNoAgfB8i9U7sl2GLweZXPQwQvii7oAQIAqm//95bHDp0lMQky+ZXPHzktpVAGCBs26UPX3hYApuSwL0Agss2RV9nPzY/yOUxpBdEMdkxjDMgx5hRQGq0nPnpRXQxOubHx9Al5hCtCVsQNrUI6zloaGiA69ev8sorb6BSbQ/GqvXIJdxn/RIIA4T1yyrcMyyBsASQYkzuFqRoXxjg6smztAwvkl6wm6o9MdS++wnjMzMMGZ/iT7+TT/3Hl9AmGBgdt7PvxddJjgwDhMeiU8LHV1d3HREgtG/fwXAk6WOR8tYfNAwQtv4ah68wLIFHKYF7uxgCLIx1U9c8wY6j1fhHbvz/7L0HXF3Jlef/fYlHfuScQeSgABLKaqkldXZ3qyN9GrAAACAASURBVINDt7O9nuCd/9gzs2P/J+zk2Zn1zow9M16P7bbbdne7c1YrZwkJhAICISFyzjwevJz2UxeQUGohBBKgqm4EPO6tW/WrU3V/dc6pc9hX1kRAoJUPjvjyF/9zI6ff+QSL14M9opCnHy7BT/ogzOTQXKnLYrGwb98u8vIKSElJkza12YF5wdcqCcKCH2LZQYnAjCIwVYIwcvRnlKk2sCLoHH/9hp2//cvN1B84R8qyMI68eorib3ydRYFSgzCjgzNRWV9vD0eOHOSBjVsICQmZlWfIShceAsJvRaRzjYiIUhy2riUIJtOwclQtJiZWks6FN/yyRxKBO0ZABLiqqDihHBVdsmRyHAQvFmMPTa3DpOZl4DX1sOOdX9KojiRTk8WGzxXRXdNKZMYizM1lGMNLKYzzk6cY7nhEblDBhdoaWtua2bRpq3J0RxaJwFQQGBoa5MTxoywrXk5kZDRNTfVUnqzgyaeeUXIv7Nu7UzkCtnz5qqlUJ6+RCEgE7jMEBEE4WXECtUbD0qXFl4Pz3W4MhAnYFsQxxyGjZc6c1hQRzA4fPqBoDgoLl9xn4im7eycICJ+Vfft2K9HjFi9eSlNTA5WVFTz55DPY7TZe/uXPeP6zLxAREXknj5H3SgQkAgsUgQkTg8jXIgiCjKQIqrlEEIQa+NDBfYpzYlh4xAIVQ9mt2UKg+txZ2trbePDBrYiTMGMEYRvnqqqob6jjuec+P1uPlvVKBCQC8xwBSRCuH8A5RRDq6i5SX1/Hxo2b8fX1nefiJpt/txEwDQ9z4MBeVq9Zx/CwUSEIW7c+yu5dn7B0WTGpqel3u0nyeRIBicA8QUAShDlMEMTxxmNHD6PWqJXsjTIt7zyZVXOomcJEdfTIIfwDAhCZ7E5VlrN0WQlVZ8/wyKNPKKFoZZEISAQkAjdCQBKEOUwQLBYzB/bvJTMrm4yMTCnBEoFpIdDc3EhV1RlFhs6ePU1SYrLilbx8xUppU5wWovImicD9gYAkCHOYIPT09FB58gRr121QspHJIhGYDgIjIyPs3PExcfEJ1F2sJTY2jqzsXFJSUqdTnbxHIiARuE8QkARhDhOEc+fOKnbj1avXyXPq98mEnI1uClPVkcMH6evrpbOrg+zsXCVleFBQ0Gw8TtYpEZAILBAEJEGYowRBLOqHDu1XdntiQZdFInAnCLS1tvDhh+9iMpnYsGETxSXLlVgIskgEJAISgZshIAnCHCUIQi184MAeSktXExkZJSVYIqAgIFLrCvIonA9vp7hcTl579VcMDQ3x2ONPkpYmTi+oPrUKEQxFkAjhryCLREAicP8hIAnCHCUI7W1tnDlTycZNW/D397//JFP2+DICYpL29/fS1HiJ7p4+bDYbIsLZ7RahRbDarCQmJOE3BZlSqVQE+PsTGmogOSWD2Nh4SRZuF3R5vURgHiMgCcIcJQhlxw7jxUtp6RrpaT6PJ9idNF1oCcyjIxw+uJ2GhmbSk2NYlJ5IWEgQGo36hlULmUF8CQIhtAyKpkGQCS943Ir2QaMRmoPxvylE49prPYqGwuV20z8wQkfvMI0dJqIjwljz4DOEhUVKn5g7GVh5r0RgniAgCcIcJAhiEX/77ddZvrxUyd4oy/2HgDAltLQ0UVl+kLBgPZvWlWAIDrglEGOahUkEQXn5j3+N/3zlGnGdexJBmCALgiBcqUf8bBqxcPxMC42dFkrXPk5KWjo+PjKGwi0HRF4gEZjHCEiCMAcJQl9vLzt2fsS2bc/j73/rl8I8lj/Z9BsgIHbvwhxQdeYY2alR5Oem4aObmkPhbBCEMQ2DB4/bQ21DD9XNVrIK1pK+KFsG75ISLBFYwAhIgjAHCYJI7Wy1WpX4+cIOLMv9hYDb7WLPjrdJijWwtDALnW7qGTxnkyAIc4XQblVf6uZSh4N1Wz5HQKDh/hoc2VuJwH2EgCQIc4wgOJ0Oxdt8/fqNJEvzwn00Fa90VTgk7v74tzz/1GZCDIG3hcHtEgSvx6nUr5owS1xnhrhidpjwZ7BY7by/t5aU/K3kFyyWPjK3NULyYonA/EFArCcVIt2zzOZ4edBUxmHr7Z0hm8Hx7uzsULI3fubJbfj5ydMLMwjtvKnq1VdeIis5jPWrlyAUSHbzCH2DZoS3gHiV6wMCiQwNRPE1vKbcDkHwOO3U1dTiDIknNyEYjeLMOGZOuKqey34M4w6PHjcV5zoovzjCw098QTmGq9FMXcsxbwZCNlQicJ8joGgQKo6j1oh0zyVyMyBW4HtFEMRgnDt3hpGRUVauXCUX3ftwcgoV/t/81Z/yB998jqSEaMWJsKF8N68eHaIoP4nRrhb69Ml8cdtqQm/glnBbBMFhp+bsWRyhyRQlh6BVTZEgeD30Dozy76+W88hnXiApOVVJBCXNYfehwMouL2gEJEG4gYnhXhEEu93O8ePHSEhIJD09Y0ELnuzcjREYNhr5+7/7C/73X/0+/v6+CkGo3vNbfnnOwHe+vJGuE5/wTpM/f/DlB+iu2MUbu+vRZhbzvc+t4fzhXRyq7qZroJ/oVZ/h99eFU7H/IB8fbUCTkMHXH19Cy/HdvF3ZB24/HvrqE/icP4wtNI7Ok234JUDlRRMbCmNoah9kxcZi6spOYnRpGGjpZcg/hu9+cwUJenA6nfzFjw6wcevTJCWnEBMTh26KjpRy7CUCEoH5gYAkCHOIIIi8CydPlpOfX0R0dPT8kCDZyhlFoKenm//zv/+e//in747tyMcJwq/Oh/M/vrGZrmMf8ds6H760Us0//7SSBx5dRf2h/Tge+hNWdLxOHYvYltrB//h1E89/ppjyyiYWL82k6+RB7OnrKbKdodJmwN7YTuKzzxNR8wmWiCQu7izDVLCVz6V1897u89SPqHnhqVKqTjVSsiYTv6Ee3vi4gvzPf4VvFmnxejx8/4d7WbvhcRISEohPSMTPT564mVFhkJVJBO4xApIgzCGC0N7WSn3DJYqLlxMYKBPp3OO5cU8eP1WC8MXFDv7s5SoeeWwzySEagpJz6St7m3Z9Ls/mD/OdfzrOg1vyOXqmleXLi0gKVhEWEUrX8T1UOEJRN3dgXbGBZcaKywRB8+DzPB/ZwsvvVFDdZycrLYW4OD+8/T3oDCHUnL3A4he+eh1BiImJVTJFioyj0sxwT8RGPlQiMCsISIIwhwjC+fPVmEzDijOIj4/PrAy4rHRuI3AjglCz7w1+UxvOH391E13Ht/NmvQ9feyiZd1/ZjiM6k+SwYAo2rqbx/Z+xr1HLoqABTjrT+cPHM/loRxkaQyRJoQHk5ifRdngHh/t9cA1ZyH54M2GNh7BGJFL7yTE6IhaRFWJG7XJS1znKxkdW0XCwjLpBBxnpkfTUNVPwhS/xtcKrNQhC2xUblyD9EOa2aMnWSQRuGwFJEOYQQTh8aD8REZFk5+SiUt04lO5tj7C8YV4hcB1BwMvoQDcdozrSEsKxG/vosqhJjgtltLuV+h4zoCMhO4OqD37FOVMkpYuTiEhIJjtSS3dHB219I+BVE5ccg260l+Y+C/gEkrsoEnNfN26PmZf+9X1sxQ/yRI4/cWG+jJpthMdHYO7oYcDqQCwUOryEJcWTEOi9ysSgEITYBAwh0lFxXgmbbKxE4BYISIIwhwjCO++8werV64iOjpGCe58icD1BmBoQIvpi08UaRrWRZKeEo1NPysNwq1DLThPHj9RCeh6lCbpbH3MUxyAn+SBIgjC1MZJXSQTmGwKSIMwRgtDd1cmRo4d4/PGn0OtljPv5NpFmqr3TJQgTz7+dY45jyZxunYthIjbC5cRPkiDM1HDLeiQCcxoBSRDmAEEQu7/33nsL4ey1cuWaOS0wsnGzi4AkCLOLr6xdIiARmDoCkiDMAYJgtVr4l//zv/ja139HmhemLrsL8kpJEBbksMpOSQTmJQKSIMwBgnDp0kV27dzOt37nv6PRaOalIMlGzwwCc50g9FZXsq8vkK2lqfzT/x2LgyB9EGZm7GUtEoG5hoAkCPeYIIgB2Lt3F6EhYRSXLJ9r8iHbc5cRuBFB8LhduL1q1CovHi9otRrwuHG43KhQo9Wqcbs8oPLi9nrRaTWoPE6cTpdI3YBG3OfxoFF7cDlceJScC2NOjKJOrRpcLjdqDXhdTtweDyq1Cp14jMuF0+1SHBfF9e3HD/B2dyhffqSAf/mpJAh3WTzk4yQCdxUBSRDuMUEwmUzs3bODrVsfxT9ARqK7q9I/Bx92ozgIrefKOW+LIEk7TJcnnNWFcfRdPMexVhsBPioS4kJoPNlKYGoYJrOD3Nx06GuhbdCFS6MhXO+h0+FLcZyK42faUes8WDxaovw92DXBrMoJ50h5M2lFiQw2tGKxO3AHhrGuII7mCxdpMrqwD5uwaf2I1DlQhUayKj+Ov/+xJAhzUIRkkyQCM4aAJAj3mCC0tbYgAiRt2fqIjEI3Y2I9fyu6jiC4nZx46ye8NZBOjqcNe+pqvrDMh5//9CP8V20hpu8s5/pGadldxZKvvoBvzzm6HDq6LtajD4/GbhoQSgQsUdk8nWRmf7MPWaFDnDJH8ULuKO9Xevn644v4l58cJaM4DJcjmLXpaj460sqKVXlcOHOJzBVZ9B4vp1KdwtOh7Ry0xvL725bxbz+TBGH+SppsuUTg1ghIgnAPCYLI3Hfu3FlcLhfLlpVIgnBreV3wV9yMIPzF2y0UlW7gd761hYiu0/zZDw+x7fvfJvTCXl4+WMtwZR2b/+J/Et16gLcOXqDVouMP/uBrZBuctJ06yN+8Vkl0TC6/+8dbMB3dy8dD8fzh0iG++49H8Qb6MGT0YUmRnuislXx1jT//+eP9+KUkMtBl5cVvrqJz70E+MCfz9Yh6ftMeJgnCgpdE2UGJAIppUqZ7vloSVMMmq0h8P+tFZG+srCwnIjySzKzsWX+efMDcR0AQhB/886RkTW4nFe++xHvGNPLdzXQEF/CtTTH84pdv4sncRPjQBdwGHw7/YhcxWx7F4GonKDWD7rJTRK9YS3GSAVtHFW806HkqzcbuKgd5yV5q3In896Um/u92Ey8+ks6PXjpO/sooevuhMNxFRZuKbQ+ls/PjMgxpOQydPUVf6jK+HtHIax2hfOupJfyr8EF44IqTYoiMpDj3BUy2UCJwGwgIglBRflxxnl+6rAS1Wkb4vWsEQeRdqKysIDs7l9jYuNsYNnnpQkXgOoLg9TDQ1kC7K5g4XwedRsjOjMfR20T5pQH0gQayoyx87/d+TPYLX2FxSghLclNQDTRxqmkIvFrCQvU4NQEsitXRVt+PLlCDTRtIVpidug4HaXGBXKzvIyYtiqGmJnpHncSkJJMT60dnYxOXus1oNGr8I6PI0JtotuhYlBDCX/+HJAgLVQ5lvyQCAgFJEG5gYrhbGoTu7i5qqqtYvmIVQUEye6OcknAdQZgKKPYB9uw8Q/KqtWSEa8dPKIydOrgSBVGcXBCfebgSbXEGIilKDcJURkheIxGYlwhIgnCPCIKInlhbW8PAwAArV65Cq9XNSwGSjZ5ZBKZFECY14a6HWpYEYWYFQNYmEZhDCEiCcI8IgsfjZvv2j8jIWKSYGGSRCAgEJEGQciARkAjMFQQkQbhHBGFkZITXf/sbtj3zPKGhYXNFHmQ77jECkiDc4wGQj5cISAQuIyAJwj0iCGfOnOJSXR3bnnlOeobKCXkZAUkQpDBIBCQCcwUBSRDuAUEQ8Q/eevO3FBQUkZuXP1dkQbZjDiBwuwTBMTpETW0DvSYHvkFh5GTHMnKpifqhEfxCIilaFEJXSzd+MUmE2bu50O8lxuCl3+5DbkIQrQ0NeHS+9PaaSSlIxt3TjSbAQGy4HpUSjvmKc+MN0z1LH4Q5IDWyCRKB2UFAEoR7QBD6+/t5+63X+cpXv4GPj8/sjKysdV4i0NfXyz//09/yo3/4jnK08NOLh56Lp/nnd6v57JY0Pny3iq3PP45BZ8M+0MPOI1WUrF/KxUMVxGx4iiXGw/x7JWzKUnNyMIz/tsLJ3//nMUoeWU73jgraUwtIppeVW9dRkhz0qQRBBPf68x/uZ8OWJ4mIiCA2NgEZB2FeipxstETgpghIgnAPCEJ19Tmamup5/PGnpGhKBK5CwGwe5W/++s/42+99gxDDLY6+eh3UHj/E69Va/uzLGfzbP7zHsifXUf3yR1Q4bTidKj77uQdpOVqOvugBck2VvN3kz6ZsNceanUR2XqRBE8jKBx9gubmc33n5Iqu3PsDvPrWMCD9xRPLmGoSBITP//IujPP70i/j6+kqCIOVYIrAAEZAE4S4TBKfTyeHDB4iKjCa/oHABipTs0p0gICbkf/34X3hgVQHLFn9adE0v5sEu3nv9Q+q0STxdGsIbvz5C9rJ0juxuZfPXi7mw+xiL16+k4eBRhsIzSbQ2Uu2IVQjCe7vqKdq6kaiBk1hD0/DUVnPeL5IQt4MtD69haXLgzTUIHje1jX18eLCJ9VueRqvVEheXgMEQIsOF38ngy3slAnMMAUkQ7jJBENkbDx3az4rlpURGRc8xcZDNmQsInD1zkua602x74gF89TczQXloqinn1fdOkZCTRVSQhovV9egiIonW+6IJ0YPTTW52MgNt7QSl5RFvbeJYu5f0SDjf7mDdilR66moxebV0NpvJW5fO0MVGguISyYkPRKW6sQbBbnew+1gDJk8M6Zm56HQ+CkEIDg6WBGEuCJBsg0RghhCQBOEuE4T29jaqqs6yadNm9Hr9DA2jrGYhIWCzWXn/rZdYs7yQzIykm7x0PdRVlbH7tIltn9lAeICWc8ePcabHxeNbVmLwVaPyelGrvXg9bqUOldeF2+NRNAMerxet2ovH7VIiK3o9XjQalN9F9keVSjgn3oAgeD109Bg5fLKFmIxV+AUEo9f7Eh+fSGBg4EIaBtkXicB9j4AkCHeZIIjjjVaLhZWr1tz3wicBuDECIspmTfUZ2hqrWVdaQFRk6JR35rMZSVGQCKPJzIGKVixEkJqRjUajJSAgUCEIwhdBFomARGDhICAJwl0kCE6ngyNHDpOQkMCiRVkLR4pkT2YcAbPZzJnTFRj7WinKTSElKRa9rzh6+OllVgiC14PD6aSlY5Cqiz2YXCGkpGfh7x+gxPCIiIgiMjJKyfgmi0RAIrBwEBCblfITE9kci2XMHqFdNY3YZiXdc29vDydOlLFy5WoiIiIXjhTJnsw4AmJiWq0WGurruFhdDl43eTlpJMRGERYajE4nkjJdX8R9Y6YB902SNXnHkzWNJ3MS14nrxZdn/Ofx2AfCHDFqttLU1k/NpW5sdiehMdmERcTh5+enaDX8/P0V7cHE7zMOhKxQIiARuGcICA1C+Xi652Uy3bMyDrNGEKqrq2huauTBzVvx9fW7Z4MuHzx/EBAT1GQa4lRlJQ2XajAaTYg8Ht5b6xLGOun1IjRXOp1IBnat/uFaHjz++/g3xUkRFcHBAcTEpRAbG4+ff9Blc4dWpyU5OVXRJAiyIItEQCKwsBCQBOH68ZwVgiCiJx48sA9/f39WlK6SC+rCmkez3hu73U5vbzdDg4MI84OQp6kUEdDowoVaJSnY7foIiJe+IBbCmXYyARCmBEEKIqOiCAyUacqnMg7yGonAfERAEoS7RBCsViu7d33CkiXLSExKno+yItt8jxEQMTQsFjMjJhN2uw2X242YwGMhkG9cxD2VlScpLCxSyOn0igqhIFBrNOh99AQEBhIUFISPz9XEYXp1y7skAhKBuYqAJAh3iSB0dLRz5nQlD25+SB5vnKuzYR60S/gYiC+hGXC5nApB+BR+oBCJ/fv3snr1WoKCgqfVQ8V4oFIpToh6vQ8qlVpqwKaFpLxJIjC/EJAE4S4QBLGgn6w4oez4hIOiLBKBu4WAzWZjx46PeeCBBzEYDHfrsfI5EgGJwAJAQBKEu0AQhP14587tFBQUkpqavgDERnZhviAgCcJ8GSnZTonA3ENAEoS7QBBE9sb9+/ewefNWQkJC554UyBYtWAQkQViwQys7JhGYdQQkQbgLBEF4kTc01LF588MyvfOsi7R8wGQEJEGQ8iARkAhMFwFJEO4CQdi9ewfhYeEsWVosnbumK6nyvmkhIAnCtGCTN0kEJAKgOEHLQElXi8KMxkFwu1288sqvefjhR5VwtLJIBO4mApIg3E205bMkAgsLAUkQZlmDcOlSHSJB07Ztz8k41gtr7syL3kiCMC+GSTZSIjAnEZAEYRYJgoh2t3vXDkJDQ5XoibJIBO42ApIg3G3E5fMkAgsHAUkQZpEgmEwmPv7ofdZv2EhcXPzCkRrZk3mDgCQI82aoZEMlAnMOAUkQZpEgtLa2cPbsaSVITWBg4JwbfNmghY+AJAgLf4xlDyUCs4WAJAizRBCEeUH4HnjcbpYuK1HC1MoiEbjbCEiCcLcRl8+TCCwcBLxeDydOHFfeXzLd89i4zsgpBhED/+jRwyQnp5CevmjhSIzsyZxHQIT2nsi+KAjCzh0fs+GqUMsTyZ1kiuY5P5iygRKBu47AlfVBEITyCYJQXKLkYRFl8hpz15t3jx+oGhm13Tw93hQbNzgwwIny4wrrioqSxxunCJu87A4REBN3797dFBeXKFE7FQ3CJx/zwMaxXAxCZVhff0lJ45ySkirjctwh3vJ2icBCQ2B4eJimxgbyCwqVk3fXxkEYGRnhzJnTrF695r48mTcjBKGhoZ6mpkYlOVNAQMBCkyHZnzmMwPbtHympndevfwCRB2QyQTCbzZQdO0JySiqLFmXO4V7IpkkEJAL3AoHhYSOHDx9SMsCKTcVkgiA0kxUVJxgaGmLr1ofvRfPu+TPvmCAo2RtPloMXlixdhlarveedkg24fxDo7enmvffe4QsvfBGNRnsVQWhvb6f2fDUrSlcSHCyzO94/UiF7KhGYGgJC61hWdpSkpGRFyygIwYQPgsVi4cMP3mP1mrXK3+/HcscEweVy8cknH5OfV0BqWtr9iKHs8z1EQBDU119/laVLl5GYmMzOHdsVE4M4SSMcZ4V8CtOXJK73cJDkoyUCcxQB4WBfVXUG8b2wcDGnTp1UCMLSpcWK6eFs1VkeeeQx/Pz85mgPZrdZd0wQhA1n+/YPeeSRxxUVjSwSgbuNgCACg4ODFBcvZ9/e3QpBEA5HBw/sZ+myYhITk+52k+TzJAISgXmAgNhgtLQ009jYQEnJCmpqzikEoahoCYcOHVBSBhQWFt23/kt3TBBOVpTT29vDQw8/el86ccyDObDgmzgw0M+xY0eUCX687JhCEJqbm2houMSjjz6BXq9f8BjIDkoEJALTQ8BkGubwoYMsKy5R1g1BEBISEpW15MHNWwkKCppexQvgrjsiCIJ9vfTz/1IcPLJzchcAHLIL8xEBoR4UmoOYmFiEw+y69RvYu2c3BYWFZGdLuZyPYyrbLBG4WwiI005HDh9UzJAqtQaNRo3dZldOQa1dt/6+3vjeEUHo6+vjN79+mf/2rd9VPMllkQjcKwTOnjlDf38/RuMgaenpClF48slt0vfgXg2IfK5EYB4h0Nbayr59e0hNTcPusDNiMlFcsvy+dU6cGDrVyKh9mnEQvErUKWFeePzxJ+eRKMimLkQEuru6OH78GL19PYSGhLEoM5PFi5cuxK7KPkkEJAIzjIDT4eDNN3+raA1EiYqKZu26Dfetc+IdEwRx5nz7xx9QXLJCOoHNsLDK6m4fAZvNyq5dO6goP0F6egZPfOZpwsLCbr8ieYdEQCJwXyIgHBRf/+0rhIaGs2XLQ+Tm5d+3zonTIgjC50B8eTxuenp6OV52lI2bNuPr63vPBEpEv1JsRyrVfW0rumcDMIceLIKcfPThe6xevY7NWx66r+VhbJ56lONb4ms+Fo1arTiMqdTqOT+WbrdrfA2SeWhmUtYm3jkTcix+n63icNj5t3/9AeHh4Tzz7OcIDg6+40eJ95OQYfFdvKMmwsLfccV3qYIpmxgsllG6u7oZ6O9CpHYeMQ0jolCFR0RMcfKOD+zl8b12oCf/7lUCL10pN79Wq9Wh1/vi5xdITFwykZGR+PoHzruBuEvjvWAfMzJi5NTpck6cOEJe3hJWlK7CEBSGTgTuUt1feRhMw4N0dnYxONiLxTyK0+lQiP2dlVvNX1H7Nc9Qfv20eT7Rohu3TQS+8tX74esfQFRMEtEx0co8n0uLrMC1p7edquqTGAwh5GQtIcA/UAnaJcudIWC1mOnq6mJgoFt53wgzgNicTl+Sr5Xhq+VTjGVbaws6nZbo6BjUStLBa99FN5PZT5FhXz98ff2Iik0mOiYWf//5k+14SgShp6eLUxXH8LptREcEEhIcSECAH1qNmluvO17Ef3iFbUd8H/9i0u/KkHvG/qaM2eS/jX+u/G3surHFTmgzPDicLiwWOyazg+4hFz5+YSxdsYHIyJg5tZDc2VSRd38aAs3NjZRXHsDq7iXA4MUyCm6LH+nJheTnFyl5GgSDX+hFBIWqr7/I6YojRIQHEx0eTIghEF+9z7TmgjJvJ+bstT9PzMfL8/JG1wrEr5nnN7lvYk5PXgOUuW21M2x20Wt0odIZWLn2IcLCI+bEUAoNTWNTHYeP7UDtZ8RpVxEakMriglISE1Pw8fGZE+2cj43o7+ul/MQhcNmIiggi1BBIgL/vtDIFX5HjMf+CMRmbeA9d8+65/K4al93J8n3tfZdffmMyflmGx58h3k9OIcM2ByOjDnqMbtT6MNY88ChBQXeunbgb4/qpBEFhxz3dfPLxe2SmhLO0KBtDUABqjRr1FHZlVwAbJwg3evErxGASwAro459N/HyZWAhV6cRAjBEHMQjiS6SaNo5YOFPbTfeIPxsefIyIiKhpLYx3A3j5jDtDQCzOwyYjR47toqGhjqQcX+LTDPj6q3Ha3fR0jtB4zkSQPpaSktWkp2Up8RBma/c5vXqF/N4ZDhN3C3JwruoM586cYM3ybFKS4vDz9bms2rzdKrIj8wAAIABJREFUp1w3dy8vrBNEfmKRvZoAjN036Zpr5/C1m4XJC+vE+jA+38fmtleZ28OjVk7VdFLX6eWRJ54jNjZu1sZyKlgJlfelS7UcOLKdmHRIyjBgtTqpPdkHtnBWlW5UMtvKGBxTQfPKNWK8u7o6+eC9NyjISmBpUSaGIKGRGVPR3265QjzH5fTyu2ScLFyW1avlWrnvGnkcIxXXbmzHPrsyX0Q945qJ8XfTZBmuONdBbZuTp555QTmWPZ0+3S4Gd3L9TQmC6JQIIPHOW69RkBXL2tLbjyZ1xwThOs3D9QThyqCNDbDd4eRgeSP99jA+8/TnESYIWWYeATFXbyXcY/bDmX+2IAe1tVUcLtsJulGWrkvEP3BsnMVLRSGReLFZHFw43UdH4zDZqSsoKV1BTFTCrMiEWj29xWum8Glra6HsyB7WrcghLTnujkGfOkG4mhBcRxButKjeYJG9ekGe0CJOLLZjGwaPx8uR081UNbl5+tkXCA+PvON+TqcC0dbq8xUcLTtAUp6OxLRgUI0RJqvFwZmjndgGDaxbv4asRYsV9fKt5sp02rEQ7xFHld9/57csyU1k1QqRYfH259VkXK4nCOOypcigKBPE4NMIwmSt9o0JwtUb1ysEYUyDNqG1GNvIHj7ZTE27iqee+TxhYXNDG3YzWbopQRBON4cP7sJh7ufhB1ei97n9F+29IAhiIRkZtfH+/lpik/NZteEJ1GrpODTTi8m9IAg2u5WO9jYqzxzFbO8lJkVPfKoBjU41pk26hiCISet2uRnss9BUO4TL4s+ilCXk5S5WfFVm0k48nYVspgiU1Wpmz453SYozULI4Z0ZiP8xFgiBk2OlycbCiFa9fMivWbEHve3fjr4yMDFNWvpe6plNkFkYSmxSMSjOmyRTy5vF6sFmd1J/rY7DLQ1HOaooKlhNsCJUk4RaLkN1u5fixg+gws37VYnTaO1+35xpBmNB67zrWiCYoneWrN6PXz908D6pR843jIIj4Bnt3vs/jm0uIjAid1vvlnhAE4aPg8dDZa+Kn71Tz+S9+U0niIzxJZZlZBG60KzL1tdFudJCRmopOc2fsf6K1QmPQ199FReURuvqaiYzXEpschN5Xh0oNap0K1U0IwtjCDQ6Hi/5OM62XzHgtoRQWFZKbtUTJHzIjBNLrweUac6BSqYQJDtwez5hnu0aDRq3C7fSg1qnxuD3jz5wZ9cqFC+c5cXgHn9u2BUPwzDhAzVWCIF7CnT3DHKkeoWj5VlLT0mdWqG9Sm8BDhPQ+dGQ3A6MN5BZHYwjVg/qKmXOCIHjx4HK66Gw20XbBwaLkZZQUryY0NEyShE8Zre7uLk6XH6J0aTpxMTOzs56LBEHISUf3MIfPmVi26hGSklPmrFzclCCUHTuEqb+Fzzy8ZtqNv1cEYcIm9It3zxAWm8OaDVsICjJMux93ZQWahw9RqSz0tloJTQrB0m1EExGKd6idVqNLIQg+d0gQhPyIkzIXamuouVSOr8FBamY4hjBfjr93hAGbDwPOIJ58MZMg1Y01CBMEQXwf7DLSb3ThdUFPi5XwoCQK81aQnpaJv3/AHciHh6GOWg7uPUJzl5W4/DzSQnU0NLXi9GqIz1rC8sUGDv+kirwXi2irbiatYDkxwTPj6f7OW68SH+nL+lVLZ+zAxlwmCGaLnQMVrehCcygpXa9EcZ1tFb7wxTpStgeHqovMxZH4BWjH/J8Up+mxr8kEYcwvykN3m/CFsRAfXsDKlWuUADwys+iNF7uLF6rpaqlWtAf+fjNzdH6uEgThfLvneAv+kQUsKV5JYGDQrMvwdF4xNyQIAlRxnjwuTM2a0qLp1Dtudpk4eTBNJ8Vp+CBMdnA8faGbA1VWJV1nQmIyOt3tm0mm3fn74EaV6hy//ss6Hv6rzZz7r90EPvsQaUMXOdXlZlVxMf4+09cgCCew8xfOKMcWVfoRMgoiCY8OUJyVPG4zZR/Wkpofxdsf9fHZb+dgPNnEpaYR1IEBFK5LJdBlouOSi4RlgfSeHERXGIavcYQRh4rIGH/FkbH14jDd9S5ioxaxauV64uOFf8L0Xtpejxub5Txv//A86/7oaSIGLvHOjkMMDJnAkMK2bbm89wcv4d6wmJzcYtYW5+B3hwRKiJjA6Wf/9e88/fAKkhJiZkzq5jJBEA6Zx0630WOLJDd/KSkpaehm6cSAwOFiw1n27dpHZKqHRflR6P20V4jBpxAEQR6E9svYb6XqWD8GnxQ2bXqQxISMacvZjA3wHKzozOkK7MOtrCldjHYGzAtjpv9rnGmVDycc48Uvd9cHYeIEhdvl4vCpVvrs0WMynJo2J99PNyQIIkriu++8yfL8OPJy0qYtSvdSgyAGoqtvhJd3dLBx44NkZmXNq/On0wb9Lt6oUp3l7577Ebb8GIwNGp79wR+RO3yRig43a1csJ2AaBEG88ES45LKyQ7T31JK1OJK45BB0PprLZ/ndtiYOfeimZL0fv3yth+d/Pxd11yCd3WYGW/owRcRTnGKn4n0j2U9G0PBuJzFfziasq58ei5rMnDB8NOLl6mHU5KC+yshgp5dlRasoKiomLDTythdwsYN1Oy/yxg/OseE7m6l7dycDi7LJUpm50DJI6bpEPvzTPWR+cylDfWoeeGAVofo7N3uNjIzw8kv/l9//2hP4+c5c1sq5TBAEGTtZ08WFbl9lcY1PSCQsLHzGJV/Ej6iqrmT/gY/JL40mMS0MjVYc7RbaqnHNwS0IwoR2wWF3cb5iAK85nA1rHiUtLfO2ZWzGOzjHKjx8cC8hfnZKluTM2G56rhIEIcMV1Z3U9fiTlVukmBmECWqulRsSBKvFwjtvv8H6FeksSkucdpvvNUHoN5r56QetrF27nrS0dCIio6bdF3nj9QgIgvCL713gsX94iLP/sYPAzz1GxlDttAiCWIwHhwapb6jh/MVT+BtcZC2OJTD4yktvQp4Gyg5zyp3DhiwHP3m1h+e/lUXH/houdtuxD1sIzFrEyhwHu35cjz43gMEaJ6XfX0r4NQRh4ny0UAX3tJtpqDYS7BdDXvZyMtLyMASHTHkRVwiCq5GPf3aR0q+uofHQQbrwxdc+wqBFzabNWez/wWlW/Ml6Wo7WkLRsDWkRd65GHRoc5JVf/4w/+t1nZ2xRvWrnNflc+LVHGC+fJb/iAT6bpxjGJHBMG3nqfBfV7Tpy8pcSERFJbFzcVb4koh2joyOKP4ifn99t+yCNjo5SXXOacxeOklEYQmyS4fIEmA5BELJmtzq4dNaI0xjG8mWbyMrMUdp2O+YRoZGw2WyIqH/BwcJ/ZuHE99i35xNiw9QsLcyaseV2rhIEIcMnazo536knM7uQ6OhoYmPjx4MzzVj377ii+4YgiDOngqXJMnMIqFStHH6ji8XPFdK65xy+K4uIMnfSNOghMz0NvfbWJgYxgUdGTJw9d5KW9oto/EaITw0hPCpQ2a1NLl6vi/5Lnez/1TG8ywpI8Rllb5mJjc/mYG9qx6b3w2k0og5NZHG2i6rdVkq+HMP5XzQS8FzGdRqECYIwZksGq9lJb5uZoW4Pek8CuTkFZGXmK/bBWy3EYpH3eq30d5gxJETASB9Nbd241D6EhEYSFa5noGWEkNQI7CYTGt9gAmZAgyAJwlKCDQYSEhLR6a4EJhKaqOrqc4gkXsGGYMV8JOz/UwkLPzDYTVnZUQbNTaTkBBEZE4Rq0nG76RIEr9eN3eaivX6E/iY9uZnLWLZsBSGGiFuSBIfDoSTG6+rsxDg8hJ+fP8uXly6oYEz3M0EIDQ2dk2bwaREE+6iRPR9t53B1Ny7Axy+EjU88xNq8OPST1vS5pEEQu4y09IyZezvKmlCpvDjtHrR6DR6nG7Qa1F4Pbi9jO7YpHPIXxxY/2P4GfsEu0vNCCYnwQ+dzYz8A8QI++asajEujSdGNPcsx2EF5XQhbHg7BbLTj0agJDgogMNCNacCNIc6H0Q4L6hg/dDYHdrdXiZmgHo+VMBGRc+w8wVhQHpvVTX+nlfozVqLDUlm/bhPJSRmfugu9nV3ghOiMzY87K5IgLCUoKIiEhCR89FdrmywWC0ajkdbWZhrq6xXTQF5+PoWFwsZ9YxkbGOzltTd+TliMmqzF0fgHXh+F8k4IgiCl4ujtUJ+Ni+VmkuMLeHDD44SE3Fi9LPognHSrqqoUs0ZGRhZJSUmIF4qIxjcdubsziZu9u+9ngiC0QWIDO9eib06LIFiNPbz5zi6iC9exsSCat378I5xLn+KpJVEMm6zK0qsPDCZY56FvcGQ8PLIaP181llELHpWaoAA/NDgwW0V8bQ/BIcGoHRZGrE48HhdutY6YED0jI2Z8/PwIdJvptkJYoIYBo3nsqJhOQ5jBn7GN2GRnk7GfJ5sYRM4IEdnsZkVMerHrEN+lM+PsLQKiZqfTick0xOHjOzhxvILSjWlk5EUpDoifVrxeG+feacLv6SzSJ0JuG9v4eD9sejIOsX+cHChp4uU/9uofj3g2QQwUO/KVkN0TBOEKYfDisLmpOT7AYJ+D1cseoSCvRFmUhXzM5sIs5FCox0VgIKGCFs+bSPZyLT43Iggel4OBgSHMThWhEWEYfG/f8XIu+yBca2IQGh7hh/BpUQuFY2NTU6OSYE4cVxSpwDOzcggxGPDRC8lRMTDQx7sf/gZDlIei0gQ0N3GUu1OCMOaX4GZkyMHZI0MkRhbx4AOCJIQq648wIQwPD3G+poZL9XUKeSgtLf3U9Wt2Z+zdqX3/3h3XmRi8Thu9A0ac6ImMDB1f66fenvliYljwBMGRu4m4wfPs7/Ul089IizeejRm+vPZxGYZA6DcG8fgj2Rz8eA+m1LU8kxNEa2czbm0g1o6L+GSuItXSwL6LVrJSfDjdZOGZJ0qpKz9F6vJVrLUc48/L/HliaSCfnBuiKFpDQ/cIGzavZkVaoLIjHNuxXgnTPBWCIFR3QsU9ODiA0TisqCDz8wtm9QUwdfFeWFcKItg/0EN9wyUaWk+h9rGSWRhDkGFqtvgrO+4JJ7HxF/xEaN4ZJggKmXG46G230n7JTLAuWfFNyMjIJTIialYiMopnCifh2vM1SshZcYRPqNCFE55IXx0QEHiVueNGBGG46Sz7TzVx/HQj2Y9/ls8V+NPRYcSp9SU2JhTv6AgWlwuTxUFQSBgxYYG4rUO0dgzj9QskMSYMrddJb08vww4t8XGh+HqsdHQN4tJq0Dpd2Fwie6FaOY7mo3UzbLKg0uqIigpBYzXRa9EQH+3HcG8/g6P2y/EhDCF6LAMjOLRq9G43ds/4nAVCoqMwYGHA7MRf61U2AuLcpsbHR8kB46dsBK74IJSLUypJ6fj5BxAZGTUlYi9Il1DVt7Q0YRo24e/vR1xcHFqdjobWc4TGuskqivlUsjpTBEFIsSAJ9VWjBHgySE/NxTQ8TG9fryIDQkuQlJRCRETEbftQzMeV49zZk2SnhLGkMHO8+V4GL5bzw7ePMGwO5kvffpGCcOjt6cdkdaFSzHd6RgZGFE22RhdMTJSO/t4hHG4VodGxGNRW+gdHsbkcOFR6UmIMOM1GHPgSqLbS2mfGYAhgdNiIw+UlwBCCH3Y8Ol+C9R56ekcJjwzCahygf8QJXjXh0f6MdA/j0Kjw8XhweMaOuGr9A4kP9cE4OIgmKIQgbHT2mXC6vYTHRhPuOzkE+dU+CAueIJgTl9B68gwZT7/I0zGd/OPLlWRlJ1Jd10ZJUQjHd3bz2d/dzIkP3sW4+tt8Megsbx5p4pEnNuGp/ohfnPWlJGKESmME330mjV/85EN8S9ahvljBgDaMJGcb5+zx5ES6MSXk8P+tDuOVV3ejzyrm6RUxaESo09sgCGbzKM3NzbS3tSrR2YKDggg2hCgR9oS9UpaZRcBsGaGqqpLauioCwz1ExvkSERNwU3PCjZ5+LwjCRD4Am9nFQLeNoS4VGkcU2XmZFGWvISBwdrILisx1I6MjDAwMMGw0Kqpyi8VMaFiYspMUTk3CjHMjgmDpP8N779VRPzRKySOfYVWIkbMX2jl9vomEZaWEd57h5GAA8RFeBh0BbHsgkxM79mEOTcc92k9U0XqW6OrZcbKHiBB/DBnZ+Lccp6xPT4y/Bj12yk9VE5q3liVhDs5d6iYyLZbRxgtELV5DnreFnx8x86UvLeXsO7s43GQhZ3EKttZO4oqXEO00cvZiE9bAFGJtDXR7A/EMDpH40BNk9VWwq8aIIUCDJiySwKEO6p3BfO6pUhYpfoJXCMKR6lHCIuOVbK5i9625jSOqIlJsT3c358/XKIQrJNSA2m+EFZuSb0lYZ5IgCPlqrzdz/qgTg380Q0ODGEJCyMrKUQih0GzcL6WlqY5l+YksKRgnCG4bx7d/zIGBIKKM9fgsf4wnM7y8t/0oBAVwqbKFFc8+jPHkES56InmwKAeVvYlLPV4CbZ20+2fxcKaGj3bWEp0aTnNLF6VbHiKs/xTdxOLbU8u7Z/t59rNPoB/tYri1ngpzLMsiRunVxbA6zcvbOzr47FOF1B47RrPDl75LnWQ/vJ4oUxen65pxBqUQOXqRcz1uQhYV8Ey+jnfeLSN743qiR1u40Ofg0qU2Cp7cxudydZMSRd1nBMGRtpz200cxrPkCjwXV8dIRI2uWRFN2fpBnNwTzkx+f5PlvPsHpHe8pBOHr4dX8Zv9FNmxah/HQm5zQ5FGgbePjGjXffCqZ1944RP7Dj2CpriQ8p4gSayX/URVIQbyTZv9F/PflAbz6zlEy1q9jY5bhlhoEkQEuOTlFUS+eOXOa+kt1SqrqoqLFxMUl4Ofnq+wIb6bKvV8m6a36eTt2c2Uh9Xrp6+tl1+6PGHV0UrgyDkOYH1rt7SdfuR2CMJGP4XKgpCmYGMS1LodT8aHQ6tQIB/ExB8Yx8inC6Ir4CX3tdi6Um4kOT2fTAw8ru7zpxk+YCt7C5CA0XYLU1tae50LtecXUUVxcomgX3nr91/zx7z13Wevl9drpaWpl+ye76Et7lOdizvPD/zxM08gIpdu+QO7gCU75r+GbK3349cdVbC0y8P0fbicwPAKNy0rkpi/zFd/9/NX7rRhiMvnSF9ZQ9fobJD7zIpszQtCY2vn7f/kVSc98lwd1tfzyUDdf//wG2so+5ORoKp/fEs7P//o99KVL8bZc4HzPMEazC40rmC1PJVOzvZqmETO5z3+drSN7OOWJxVPfgL14FaqDOzjWaUflE8N3//whktqq+f5vzqDxDSRnaT7fejKXEK1XOcVQ1aYhK2cxgYGBxMULE8OnZ08U+weRLthisXLiRBlNjQ2kpKaybFmJgt3e/TsYcbSwakv6p8rnTBEEoc3o67BSW2YhO62U2Jh4bHY7nR3tDA4OkpuXz+LFS5QgXiKU92yatW4lh3fj74f27yE+Unv5FIPdNMCrv3kfTdZyEgZOsHMgg+88FMVLL/2WM11WHKNJ/OWPX6R/74cccObx/YeTeP03bxBR+ijLfC/xt7++xBObU9hztJvnn19L9Ydv0hi/kc0B5zlWZ8cy0M3pTiu/9+0v0XZ4BycudJD1xJd4IqaTl7Z3sCTRS5Ujju8+lsL2197gveph7KYQXvzjXE787ASNo2byPvsNNvV/xCvVDiIWZZEy3MSBukGWryvGp6OJ7NJMPnjrMK2uQBalxPDckyUsTQxEdc0phgWlQXCYhymvrCY4MYu8RAMVe3fhTi4h16eD13acweTUsOaRx8nVdfPGznIGRl0kFqzludUhHNlXhnnRZh5LslJVUc6+0y1oAsN54rE1tB38gNeODhAbbyAkI5+vrI6i4nQ9kWkZZNkv8XajHxsLgti9/ywt/VYyi/LYsjyFIK1Q8dzYB+E/3mqgsLBQSbsp7Lqj5lHi4xLIyc0nMiL8SuKtsZ8un7Uf8x+b+Gws2cZlO7WSInwiEdGkay5nphvf6IzfceXeK59fV/8kNbny43XtGXdoG2/XRFsu+7ldDjV8xfFt4oV6+cV6uQ9XAoiI+8UeZewlONHjq/ur3D/xt/GX/lgzxrPtKe/P8Sybl/8+1g6jcYiTpw+RmhtCfnEC+mnYwycWp9kiCMbOISw+/gTaTZTva6HPomHR6mQKcwJQCV+Hy2Mz4bPgxS78E8qMGDt8yM0sVvLHzxZJuHZxttltNDRcoqW5WfFmV+Piz7/7pcvBZfrra3GFRFC+/UM+sObxQOebjOQ/gavlGCNJ68gbKueYqoRvrNHz+q4LPFYSyT/+dD/Pffd7bF3kp6jbL+x4me2Dqbz4YAZmm4sdP/sZYY+8yNa0YLTOHn7wb78m+fk/4UFtDT/Z0cKXX9xEx5H3qPJk88XHltD0wU/5u92jLC1OQm0yk7mxhNG9+3i7apQtj5RC73m6s5/gEdNuKj2xuC/VU9GvZtWyeGpOnaNzJJjf+eNHiWs+w39VjvLQqiT27mzii7+znsIIn6uOOQaOOynezAdBECyr1UJ3dzcNDfV0dHQojn7i5RsefuUEgdVqZceuD+g1XmDJ6kSCQsQRxOtfjTNBEISjYneLheZzLhYlFZOcnK4cW4yPj1c2KkrY4dOnlA2N0GimJKcoRzlF4qeFuom51kmxs6aMH/3mMCpDKL7OERo6vHz2a5torawmd30eh/7P64Q8/3XyTOXscxXwF48m8sovX8VQ/AiL1ef5wQf9PLUphg93t/DkM6s5/8m79C56mDXOMn59wsNXNofwz6/X8O0//jZLY1SoLu7j2x8O86df3sDBNz7kxKCVR599jqezNWx/fx+e9Ay6PjzAjk4bW7eswjtYhzHncR7ofp9fnXPgNDlJWZpHhKkWZ0weurZLpC7LYscHR0l5fBsRLWfRJaTz7LokNCxgDcJU2eRtnWJw26k6doyKoRCe35JHgO4G6WS9t87meJUPwpCZv/v5SYKDgzGZRoiMjFA8RcWOQ9hPL7MD5Q059pq8XCatDMoaceWfK0o/kdFwsgrw8mIy6dMb3SfuGft/jJRM1DJpMZpcr2iKEuP/hs+ayKo4doXS1GufeV0bxh90+dtVDx5v1bV9GH/+xD0qsaMRn6nH+iJ+n+iX0oCx+8XCXNdwDp8gK4kZQUTGffqRQfuoBZtLg17jxOJQYwjU0NVmxOaC4IhgwsM09NWO4gq0YXPpiI0PQqdy0ds2yKhHR3RcAJjteP11aNx2TEY71lEHTo8HjU6Dn58O33A9ATowD9vR+usYbupiyD+c5DAPdo8aW0sXle1aHtgUhVZ9PUEQzosDXTa6Gt1gDSMhJkMJciJeVGohV7NUhAZjxGSir68PkfVOqMmFLPf1dPJn33nhsp26t+4wByqN9Dk8FK/dgG/9LvY3ecBmJK6gFN9L+/mkPYSlWUFoQ+J5ck0mNXs+4bgpiMTQIBYtLyHV08YH+6tBbyBveRH61goON9qIiY1nRXYoO7fvJXrD8+TZzvGTt8+QlJOMymwku3QNqzLDsbSf5c//1w5WPLEJ7UA7vS4tLouHiBAvA8MecI5iKNlMieUkdZ4wPO2dtAQk83S+hv2VbahdVsyqAHxtJlqGnUSHB6ILDufZBzMw6JgSQRDOfkJ71dbWqoTs1mq0REXHkJiYqJgkbnR0VWhpjpbtpbW7moz8cKLig6/LKHinBEEETWq5YGKgVUt64mKSEtIIj4hU/CgmkxzxHGFiEid9hN+EcO4V5geR6loQ0oCAgFmStHtT7dUEwUNdRRmnB3zZsnEJwfZe3nh7D5r4XLw9dRjdavqH/XjucxswXyjntDuVr6xNpOrEUU42j6C2mQjOW0+Rvo5/famc5Lw07G54aOs6aK3gwmgEj2S4+Kd3qtny0FrsHc0M9vcwGJ7DlzakUPnxB7x6ys63v/McOb5mDuw5Qs2gh9ERDdmpXlo7XXido4Su2MrSoSPsanThVBv4zKYMmk+W40ouJGqkibOtI3R0DaGLjCE2UEdJcSb5C12DMFXxuS2CgAeHCADiUeGv1yo7tyupnMf9C26XIBjN/OiNOrKzczCbzbjcbgyGEDIzM5Vc3OLctPJiGycDYy+5y2/YK1zhMkG46oexl/F1H93cZngt0ZiM49U7levruPN7b23LnEwsbjTGN8Jm4rqb3SscE8XiXHvhLDV15QSGqcguirnh8TEx3t01DTT36QnQDGPShRCnGuFsp5voILC6fchfbuDQ/19O4LZ01ENWwgtSSaCP09WjeHESmhaNf6cRZ7IIrdzHoNsPP5WZMx8NkPZ0IvpuG+r8CLIiNDSc7MOQFYGnpYW24ERWZGrpb+jlZFkvgRnxlJaI/B1XCIJIvjTcb6e5xoLTqiE1tpj0tCzFRCVU/rOhQRBzSJgXRC4AsfsdHOgnICCImNgYRYaFduqtN1/hT64yMTgZEaeJNDoC/X3xuuyYrU5FWHVqFwfeeIVTvqX83qNZ+Oh98ffV4XVYGRbXoEbv74+v2quQO+HsFRDgg9rtxGyxgUarxG+wWa2ofXzou3ialw938/nHVxARrMfPT49OA8a6Mv7mtQa+8OXHyApT43S5EZm1/HzAZhPP8aLV++LjteMU09vtxqPR4q92Y3V60OBWUreLRitmIq8HnY8Of1+Nop6dHCjpRhoEcWqhvPw4vT09ys5b7MKFo6dwQr5VTAsRhKji1CHO1hxhUUEUCamhMxYHQcTaqDttxGLUkJ+5mpjIRCKjohVNxs3kR8whu8PO0OAQnZ0ddHd1KgF1Nm0SmQBnLnrmVNf12bruWg2C0y5kQ5x+0yljbrHY8IrMvG4nDrcHlUZPcIAPLoe4TkuArxaX04HIc+DxqvALCGDgwkH+/YM2nnh2K1nRfgT5++B22HB71fhqPIqjrq+vDpfdhtPlQefrS4DKzM53PuKELZnvfqEEf7UHm8WCzelRZDjAFywWhwKD1tcXH7cVq8uLsEkG6NU4bHZho1QcfcfaMrYNVGtUylxTwrssZBPDVAXk9gjCFRX1ZS3AHeYwivU9AAAa1ElEQVRimHyKQdhqRWS8ltZmujo70PnoSUpMUo5HhYSE3BdewlMdt9m4zuly0tPdwfGKgwwMdRGX4auErvX1m5wfw0vn2Rp2f9JL8KJoikpi6TjfTkROBhkRcLa8keDUQCr+so6VP15PwKUGys3hxLVWcKIzgPAAN0GZ8UQPDVDV7iAyOZz8VQlEh4zy0feaKfn7HEz7G6lsMSsaBJtVw7LHUlE1NtEcnMKaXC1tFa20O/QULA3H31eE1R0LqWsedtHeYGaoU01MWDqLFmWTnLAIQ0iocnZ5Zu3DXsWLfWhoiLbWVrp7upSz85FRUSQnpSiOihMJim47DoLXjbG/H4smmLiwm6eZndoxRw8Oi5n+EQeRYUEKMRi7z4NrZJBWk5e4SAO+2glt4A20gpePmo7na7lslpswGwppnBw7//pIiiIOQnxC0jW7b4+y+xZaAzH3b0UKrpV5p8tBbW0VlaePEJehISkzfJKPx+2HWhZ3WEbsXDozgnckmtzcPCLC44iKihrXZkwt7LYgCyLKo9B0iMBPCylL7WzEQXBYTPQY7YSHh3B5qblVLga3k/7+Qexaf+JCx09YjSfjUvI4XD4xd7U8T8j+Fbv1uAwr/GDihN2VeyZHUhQyKnyZ5lwcBLPl+nTPIjiHEmp5+XwJtSziF4z5IIjgPWPJOCbFQVi3XjkqNBEHQXiDNzU1UXfxIharhbi4eLKyshS13UKacLPxop+JOmsvVHO4bCcq7Sj5yxMwhIlsfGMsu/PsJZoH/PBz92MkBK1tEH1GBoWxKs5WtBKVZ+DYn56k4B83E9jUwHlNDClDF+gLXcSKZaFoVA4ufHQJZ2YkPj3dWAyxFOR72f79CYLQzmhmOAVRWmqPdGHIicR9mSD4YO4dwarVEBrqo2iHhDq4q9lMw7kRDD5p5OXlKVqDqMgofP1mJ4+7UI2fPlVJY2MjhhADmZlZJCYmKY6013q1CxLx65d/xne/te2WcSRuZ+ymRhAmnxy64p9xxR/oJoTgBovsmJ/L+OKriMLNCYKIY195vovaLj3ZeUsuB0qa6d208F2oq7vI9p1vk14YyKK8KNSaaeZicLipOtyPxhFLQd5SRZsxpnmam1n8bkdWZura/Xt3EmVAcVK8ke/HdJ4zV+MgeD3CB6GDiz1+ZGQVKP4nwoleEoTr4rdP7A7uQINgt3Bgxz6aw4t4oTQKrerTCcIYofMqNj0R/6ClpYWOjnaFHCxalElOTu4M7winI9oL9x7hST5sMnL2XDk152swRDtJz4nCEOrLYFMn3WZ/EsJsNPd4SAxXUXaiA6GhjkyLo7DIh/e/eRrDZ0Pw2P0oWp1GmNdE+aEmjHYt6csT8O8z4UkOJ9RjpmdERWqGjpO/7Cbrq0lYzvRjTQgiJURDa/UAAUkGPF1ddPvHkJ+sZrBlkFGVLzGxega6rLRdtKJy+pOZtozU5DESKWy/s0kkxYvJZBpWZFCYLj7tWcKx7uc//U++9vkthBqCZkxo5jJBuJzN0R5FSlrWrBEERXfh8Shq/e073yQoyklWUSy+t5nNcajPwpkjvUQGZZCbvUTZ+Qs/AmHumFnN04wN/z2pqOzYIXy8w5QW56GZoRwTc5UgCBk+cqqVfmcsSSkZSjj3+U0QhA3IbMZktit2GH9h23Q7sdqcqNQaAoKCCNB5GBoaxeHx4h8UTJBejXnExIjNiU7vg8dqwa2oWnwIDBSueTr0KjtDZifBhkB81GM7EmEjGjKNKC8FnV6HIVCLeWAEq8eL3s8Hkb9ncNhKYJAfbrtNOX526fRZug0ZbM0LQTMFgnDtDBBak8bGBqWPJctXyIl7l5aI/oF+Dh/ew9BoB5GJWiUpzo3C206QOhjigz+qo/R/FxMxnsr1yimDO4+k6HK6GR6w0d1sZ6hLTULMIvJyC4mNSRg7ay9CSM+hIhbA137zCwoyYyhZmjtjLZvLBMFmc3DgZAtOfSox8SkKiRK5GGZagzAZzMHBfj7Z/TaaABMZeZH4BWrHj8COZ3Uc136ItWgi06Mgen2dZhqqTIT4J1GUX6poDgRBmM22zpgQ3OWKas6dob+rjvUri/Cdocykc5UgCBneV96CJyCd6NgkJQDa/CYI9lEO7trLkR5I0JrwNSRiGepmQBdMkKWfuMIVpGm6OVFnJUBvxRGQxNqccMqOn8Su80XlUOMyddFs1lKYWkBEaBs2VRwhxjrerzXz4leeJSd0TM3YU1fFL3ZfICLIB5s2lG1bM6gvr6fFOILN18Bji/342a+q2PL8A5hqaxgKjyO0p5aOiAI+v2JqGoSbyb4QKMnq7+7KIFTqjU0Xqb1YRb+pmcR0AwmpYUqK58llbLK7GGy2Epjij3YmCYLXi2nITtulEUYH1YQHZpC5KIvEhFSFGIgFfa7KReXJE1w4d4IXnn0YvX6yT8f0x3EuE4S+wVH2nuwmNDYfEd9EqGcFQZhN9azAo7u3gyNlOxk0tVOwIo7gUP2VtM/XEAShJetoNNFaZyYuIpP05AKio2MJDw+f1XZOf8Tv/Z0iaF31mWOsXZ5NeFjIjDRorhKE3oFR9lR0E5lYQEhouKIFEz4Icy3Mv2rKPghWIx+8/iavnOwlysdL4bLlDLfXcKbbTpBHxaZH19F4Yj+VnV6i/Z0MqiNZkRXDsFvPN774AN7OfpoaT/FJWwB/9vnVHN/xOpXNHgY62jk/quN73/9dlkUJgmCn5uBeXrkYyPNFsLtyiGefzePAT/dRPmTCFRrLHz4ayw9+WM7z336KoZPl9MemEtlaSUPcKv7wwXh06lubGGZE+mQlM4aAmMjCU7uxsY4DB3eCzyhL1yQp/gkT5XbiIEzOs6BoHz4lUJLb5aG1fpgLlYPERieTs2gpaSlZ44v53CUGE7gMG4f44O1fsWp5AblZqTNCZOYqQRC+Rucu9XD2/7V3ZrFtXtkd/5OUKFEiLYmiJGqlRG22FsvyHseWs9ieYJxO0k5T1zODFlO0QIFiMAWmT33oW4G+9qHzUBQdNEiTzjiJM4ljy4viJfEmyZZsOdo3a7M2khL3RSSLcynKcizb2ihu5wMMyxb5fff+7uXH/3fvOf8z6IK+cjfkSYrF/XzyD1h7zYm1TmCL1YS7d5vR0n4Zh07ooc5JWQpkFcW+/D74/F4MfG9AT6sVu+sOoLCwBEWFxTFXnnmt7F71epvVgmvfXEBpQTrqaso3dx7/ML5F/JuO5f45izEzQT+b52JilsXJLD6cLM+0W0uQ4v3OcXSOeKHfvkcEzKsz1CJgPtJWKNcoEL5Cf9EhvJPRjXPnJ2BxuKD/4C9QMtqE1iEp7NO9ULx2Gv/wZoGozd55vRGNQxL89c/ehNJhRd/D2/hqTIl/+fkhXD/z3/jddy781fEM/M/1Kfz6N38vBIJ7fhpffHIWvdmv4cc5Jly6Z8RBnQv/fsaFX/1TBVruTuAnBzLwb/96GZ7sdHjtXhz50wZox1ggvOoDGC2/pxWFq1ev4FF3M7bv1iCvOE2kIj21GNh4LQa/zy/qLFjnPei5PwfTE+DQoaMo0ZVBq6U4A2W04BLtpIp/PY+a8dbhXdBkZmw4yCsSBYLX68PEtBlnrgyivGo3crR5IjuBbKcpNkR4m2zR0dx8C80PrqBqvxrqbDJUChT/cjk9GO42obvFjKOHT4gUS4o3iLXKi6HCPNDfixtXL+G9dw4iJ2vjW3oRtYLg94Lm8IzJho8v9KGyZi+ysrVhm8OrGcPVCwSXFd9euYaW+SQUy+chScmFdWYcZlU20hwGZJXXQmsbwoUBN+r1GqjUWmiVbty4/QAqTT4ylCpkJpvQMp2MX57YiftXz+PhnBrv7fDht1dG8MHp91GZ4Ub7jRv46PIgduyuhIo82/vmsKcuEx2t8yiuS4fNIcPJPen45EwX3v7zBli6OzGXmYuM6W6MZ9bg1L6sVQUprgYOvyZ8BCg4bOhxLx4+bIfNPQWVxi/iE1Kp/K7wuAq4OAYtlYNulaup5ujxeGGYtGNmzAm7QYFsTRGqd9SJLxky1SInu2g7KIamteUOzIYx1NeWIk+rgWID+7iRJBBoTC02J/qGZ9DSaYI6txS6Yr24sdKqgV5fJtI+t/Igb4r2h6141HMTWUVS5JWo4LS7MdhpgnUmWaxCFRXphPkRBaBF6vbUVjJbzbUoeE9k8PR1oLo8HxWlRVCpKMvp1T4uK50/UgQCZS2YrQ70Dc/iVscscnXbxZYCzWHaGisuLhGW2pF2rCgQKDKa0hyP7ClBRVlRoM1+H6xmM4wWByTSBKSlKeF12WGxuyGVJUGdmYYUiQsTsxRc6EdiUgoy0lPgmDeKylvKDDVS/HZYPRJotiXDbpmD25+IbfIFTM05kaFOQ5LMjsYz59HuLcTPXi+A1+3CrW/vQarT440yDRaoFLM8ERlKGYxGO1TpSvicdngTEiDz2OGWJUOdIguYLNGe4awFv7swjoaGo2K5+GXlniNtYLg9gUwTm92K8dExdPXfw5ShH8WVGhSWZqxLINCHdM7gQO9DIzw2KfKyKlCsq0BRYYkw0Np8P4OtG0ViRQG2PT2dGOppQ2JigvjsklCg7IaEF5QuflkLg3UslpZhl5ZVl1elWykX/BXpjcFMpmXLvM/eyAP3GyqiZpqzo29kFo/HjfAnKJGWVSqeumgplr40yCyKvoTX6nOwGSNDXhX9A124cecrJKu8cNo9SJJoUK7fhWJdKTSaLM5UWAdoEglUbbOroxVOuxl6XS6KCrTIzKCVxJfX2/jh5VYWuj/wMljaSni6hRCwsF/uv7E454Nz9pn3BDwOnr7n6fynOTxndqB3eAYjEyb4ZKrFOUzl7YNzWIusrJywzOFXDY/EZncv8xcOvJzU8dmzZ1BfmY2d1WWvOscLf792oyQf3C43vJBAkUj+wuQi54RfIkUS2U+t0Umxo3cKF+9ZcaThKNLS0lggrHskw/tGmkdujxvdPQ/wxZefIis/Ca8d0yNRLizJltVKeHEWA61IjPTNoe27JyjT7UJ1VS202jzxwaTAoPU+oYSXzPNXF657Tgfu3rmF1uabeDI1I1L1Nt6/5YU6XtzrYA2R1XF57tbz7Nv8fsgTZCgt1aG4tBZqUfY4Yakv9AVMDokb79vqWrvyE6oPUzNj+PDj/0BJcSkOH/gxZDK5eCCJtP3k9fdy698pYpJcTnR+/wh3bl3D6OgYnC73Bsd6eT2bl/dp0+ax3w+pRILq7ToUlNRBTfMi4en9hsQtidxInSsrCgQanKbLFyD3m3HirQPrnh1rFwg/KNm8QSfFc9f7MGlToa5+v4gS5RWEdQ9lxLxxfn4ejZfOwjg3ifxyOXIKU6FQJi4WnHpWINATsMuxANOsA8NdZjjnk1C7Y69YkiZPfvIzCOeXSyihUhwH2TNT+WDz/LywGY+mg1aU6aZJxahoG2G5HTr9mwQ/pQvK5eGxGiafCofdIdwt6T535cpFsWRMtu70BDw0OAh9KVWFDH3gZDSN61rbKlJFZ6YxOzsDs9ksRMNSgbq1nmyLXx+YwwlQKBTPZCfQXKb/JwffwBxe26rIVnZjRYFADRgc6EPL7W9w6r2j685JDadAMFud+O3v76Om/jBytPliCbmkRL+VbPlaISJAT8R9/d3o6mmDwTIMTV4S8nQqJKVQbnpgeY/iDKbHLZgctsNtS0K2ugSVlRXI1RaJaPLYv3EHajiQLa/FQjdWtyjuROyi8QjGG5C5EAWQUtBfOFPCHj8exkB/H147dFjc4JcLBBJmFxvP4y9P/4L9DjZhspFIsNE8tppFqe7gPH6a1bQJF9mCUzydwwpRZI0eWiM93umFAsHpdOD8l39AmU6DffU71vWkFS6B4PP68M3dAQxN2FG7/0fiSYSUGlkq8xEbBOiLjuITxsaH0dbeDINlEFV7tdBoFbDOu9Bx9wkc8wkoLqyCrkgPna5k6UslVlcNVl4C94sbKj3V0o02WgUCZSiQqKM/wb3bcM5ko9GI1pZm1O/eLSp5NjVdEisIZIvd3tYGg3FWFFOK1KXjcLJbz7Xpu4TmbmAeB4RutAkECQXVyiJnDq9mHF4oEAj+4+EBXDx/Fn928ggK83NWc75nXhMOgUAGJd2D07h0ewS79r2BVFW6EDcUUUwfZD5ijwBF8Dffv4q29hYkKtxwWALBa9tL9wkDHaqUF8nLeLE3IrHfIwpQpDgPbW4e9PrSJYFA0ejXrjahvKISZWXlsQ+CexjTBF4oEKjX9MTR2tqM3s57OHKgGnpdPuTy1aeAbbVAcLs86Bsx4Gb7JLKLqkUxFBIHKYoUYWOZlLxYmSumhzQ+O0dzbeLJYwwM9AVEgTpXPG0Gqx7GJxXudagI0BPsgwftcLuc2FW/G9eufSNWEEiM3r79Hd5667hYQuaDCUQzgZcKBOoYLel0dz1Cx4NmaNIVqCzXQaNOgzKFAi+eBg+9aHlTOE0Fgw2XV3FbzEgI/m4ppWp5WU2xn7wYXCWqvdHPi0WdKK3E5xMixmJzYHJmHj1DM5iZ9yErv1LEHdAXBBk2UeU9Cibi5b5onqrcdiYQWQTGxkZFzv7hIw1obr4jBALFfRgMs3jzzbfXtS0bWT3k1sQ7gVcKBAJEanl0ZEh8COwWE5LkMiTJE18pEAJf5nSGYDpTUCwE/y+YdhK0uFwcjqV862WvWzpPMN0qkN7m9fpFwSiHWwJ5SjrK9MVIVga2Emj1IG1bmlgGpOAmPpgAE2ACm0WAtrYunD+H2p11GBoaEI6Jk5OTKCgoQFVVzWZdhs/DBMJGQGJ3PO+DsFJr6EndaDBgdGQYFosVTpcTHs9C2BoevLBMJhVf/gpFMuTy5CWzCVotoDQSTVY2m5WEfZS4AUwg9gjQttbt2zdhMpqEERXdhyh48UjDG9BoNLHXYe5R3BFYtUAQz/J+Pxx2O0xzJszPzYnth0iLJKVUEsqdVmeqRWojbyvE3ZzmDjOBLSMwOzODs2c/gyZLA4/bA6VKhWPHjofNn2HLOs4XigsCaxIIQZFAf3s8HricTjhdLlDmQLgPCSSQJQRMKUjJLzdWCXfb+PpMgAnEJgF6QPr8szMYGXmMpGQFXn/9MOrqdsVmZ7lXcUdgzQIh7ghxh5kAE2ACLyHQ0fEQn3z8EQoKC3Hq1GmRycAHE4gFAiwQYmEUuQ9MgAmEhQBZWnd3d+Hs55+KuhAn3/2JKBfOW5thGQ6+6CYTYIGwyUD5dEyACcQ+AXLxvNz0BW591wyJxA9yeoTED7fLizR1Et5/7xRqq/ZFZIW+2B8d7uFmEWCBsFkk+TxMgAnEPAG73Yb+gW40t96EX25CWVUW1NoU+HwLlHQNp9OF8aE5DHxvQnnRXuzbewh5uYVxUPsj5oc+LjvIAiEuh507zQSYwFoJkDi4c/db9I+2QleZDm1BGhISpfD5vfD5F+Dze0TANv1sszox2m+G16zGkYPvQl9SzsZJawXOrw87ARYIYR8CbgATYAKRToAKBLU9uIOOnpuorM9EmjoFVM5XFBFaQSCQSHB7PBjpscBhSMXPf/orKBTKSO8mt48JPENA4lilURJzYwJMgAnEKwFyTbzU9EfI1bMoKleL1QCfzw/LnAMDnVOYM9qRppGjsHwbUlRSsd1AIsFhd6Pt+izeOfw3qK6q5VWEeJ1AUdpvFghROnDcbCbABLaOwMSTcZxv+gg1B7OgSksW4mB0wIibl/owNW6hpQRAAmQXpOLA8TzkFCoWtx0WMNJrQd9dCX7zj/8MpZJXEbZu1PhKGyXAAmGjBPn9TIAJxDyB1nt38GioCXsO6yCVSWG3unH9fA96HkzC5w3WmgGkUglKa9Px+sl8yBJ9YvvB5XThy/8cw9/98teoqqrmzIaYny2x00EWCLEzltwTJsAEQkTgj199Brd8CFW788QVDNM2NP6hA1Nj5ueuqMlV4O0PiqDMkC3GJ3hw6aMJNOx/Hw0Nb3DhuBCNEZ928wmwQNh8pnxGJsAEYozAx//3IVJyDCivyQkIhBkbGn//MoGggzIjmOHgwfXPJ1FTcgzHj5/gbYYYmxux3B0WCLE8utw3JsAENoXA5SsXMOt8iJ0HCsX57DY3rn/dg572SRGPEDwos6FsZwYOv5sPaUJgi8Hr8+Dcf43h+NGf4uDBg9i2LW1T2sQnYQKhJsACIdSE+fxMgAlEPYGu7ke42fYF9jbokCiXCVEwPmTCrSsDmHligd/rg0QmQaZWIYIUs/KTF4MUvbDMOdH44SR+cfpvsWP7diiVqqjnwR2IDwISh9PzVP7GR5+5l0yACTCBNREwGg04d/F/oatJgiYnkIngXfBhZtKCsUEj7HYnFCkyaItTkZ4lBySBNEfPwgJ620xwTGpx4thJ6HTFouIsH0wgGgiwQIiGUeI2MgEmEFYCLpcTTde/hmVhADt25UKWIBXtIaMkj8eDBa8HEokXkNK2ArkqBv4Yp+3ovGvEvuo/gV5fgYKCQi7kFNaR5IuvhQALhLXQ4tcyASYQlwRICIyODePrxk9RVp8ibJYppfGFToq+BTgcLnS1GpEq0aN2x35UVFTy9kJczp7o7TQLhOgdO245E2ACW0iAxMCj7x/g2o1GFFYkIys/FakqOaQJQbtlD8iS2eV0C2fFiUEnfDY16mr2Q1dUjNzcfHZS3MLx4kttnAALhI0z5DMwASYQJwS8Xi9GRoeEUDCYByFNckOVLkdCogRenxd2qxPWeSc8dgUyUouh15eiqKAY2Tk5XNExTuZILHWTBUIsjSb3hQkwgS0hYLPZMD0zgYH+Pgw/HoR7wUVOy0hNVUGdkQmlMg2azGzk5xdCpVKxONiSUeGLbDYBFgibTZTPxwSYQNwQoG0Hh8MOo9EIp9MB+AG5XI4MtVrEG1BRJz6YQLQSYIEQrSPH7WYCTIAJMAEmEEICEif7IIQQL5+aCTABJsAEmEB0EmCBEJ3jxq1mAkyACTABJhBSAiwQQoqXT84EmAATYAJMIDoJsECIznHjVjMBJsAEmAATCCkBFgghxcsnZwJMgAkwASYQnQRYIETnuHGrmQATYAJMgAmElAALhJDi5ZMzASbABJgAE4hOAiwQonPcuNVMgAkwASbABEJKQOJ0efwhvQKfnAkwASbABJgAE4g6AiwQom7IuMFMgAkwASbABEJPgAVC6BnzFZgAE2ACTIAJRB2B/wfCa1PtA5UScQAAAABJRU5ErkJggg==;" vertex="1" parent="1">
          <mxGeometry x="-1090" y="-1170.5" width="990" height="779" as="geometry"/>
        </mxCell>
        <mxCell id="yXWUyt9PTgUI9yi-nkLO-5" value="" style="edgeStyle=orthogonalEdgeStyle;rounded=0;orthogonalLoop=1;jettySize=auto;html=1;" edge="1" parent="1" source="yXWUyt9PTgUI9yi-nkLO-3" target="yXWUyt9PTgUI9yi-nkLO-4">
          <mxGeometry relative="1" as="geometry"/>
        </mxCell>
        <mxCell id="yXWUyt9PTgUI9yi-nkLO-3" value="" style="ellipse;whiteSpace=wrap;html=1;fillColor=#000000;" vertex="1" parent="1">
          <mxGeometry x="450" y="-1040" width="28" height="25" as="geometry"/>
        </mxCell>
        <mxCell id="yXWUyt9PTgUI9yi-nkLO-68" style="edgeStyle=orthogonalEdgeStyle;rounded=0;orthogonalLoop=1;jettySize=auto;html=1;exitX=0;exitY=0.5;exitDx=0;exitDy=0;entryX=1;entryY=0.5;entryDx=0;entryDy=0;" edge="1" parent="1" source="yXWUyt9PTgUI9yi-nkLO-4" target="yXWUyt9PTgUI9yi-nkLO-89">
          <mxGeometry relative="1" as="geometry"/>
        </mxCell>
        <mxCell id="yXWUyt9PTgUI9yi-nkLO-106" style="edgeStyle=orthogonalEdgeStyle;rounded=0;orthogonalLoop=1;jettySize=auto;html=1;exitX=1;exitY=0.5;exitDx=0;exitDy=0;entryX=0;entryY=0.5;entryDx=0;entryDy=0;" edge="1" parent="1" source="yXWUyt9PTgUI9yi-nkLO-4" target="yXWUyt9PTgUI9yi-nkLO-104">
          <mxGeometry relative="1" as="geometry"/>
        </mxCell>
        <mxCell id="yXWUyt9PTgUI9yi-nkLO-4" value="Наявний обліковий запис?" style="rhombus;whiteSpace=wrap;html=1;fontFamily=Helvetica;fontSize=12;fontColor=#000000;align=center;strokeColor=#000000;fillColor=#FFFFFF;" vertex="1" parent="1">
          <mxGeometry x="377" y="-990" width="175" height="105" as="geometry"/>
        </mxCell>
        <mxCell id="yXWUyt9PTgUI9yi-nkLO-8" value="" style="shape=link;html=1;" edge="1" parent="1">
          <mxGeometry width="50" height="50" relative="1" as="geometry">
            <mxPoint x="-530" y="-190" as="sourcePoint"/>
            <mxPoint x="-480" y="-240" as="targetPoint"/>
          </mxGeometry>
        </mxCell>
        <mxCell id="yXWUyt9PTgUI9yi-nkLO-9" value="" style="shape=link;html=1;" edge="1" parent="1">
          <mxGeometry width="50" height="50" relative="1" as="geometry">
            <mxPoint x="-530" y="-120" as="sourcePoint"/>
            <mxPoint x="-480" y="-170" as="targetPoint"/>
          </mxGeometry>
        </mxCell>
        <mxCell id="yXWUyt9PTgUI9yi-nkLO-34" value="" style="edgeStyle=orthogonalEdgeStyle;rounded=0;orthogonalLoop=1;jettySize=auto;html=1;entryX=0.5;entryY=0;entryDx=0;entryDy=0;" edge="1" parent="1" source="yXWUyt9PTgUI9yi-nkLO-14" target="yXWUyt9PTgUI9yi-nkLO-37">
          <mxGeometry relative="1" as="geometry">
            <mxPoint x="745.1428571428573" y="-860" as="targetPoint"/>
          </mxGeometry>
        </mxCell>
        <mxCell id="yXWUyt9PTgUI9yi-nkLO-14" value="Вказати логін" style="rounded=1;whiteSpace=wrap;html=1;fillColor=#FFFFFF;" vertex="1" parent="1">
          <mxGeometry x="700" y="-915" width="90" height="20" as="geometry"/>
        </mxCell>
        <mxCell id="yXWUyt9PTgUI9yi-nkLO-36" value="" style="edgeStyle=orthogonalEdgeStyle;rounded=0;orthogonalLoop=1;jettySize=auto;html=1;entryX=0.5;entryY=0;entryDx=0;entryDy=0;" edge="1" parent="1" source="yXWUyt9PTgUI9yi-nkLO-15" target="yXWUyt9PTgUI9yi-nkLO-37">
          <mxGeometry relative="1" as="geometry">
            <mxPoint x="630.2857142857142" y="-860" as="targetPoint"/>
          </mxGeometry>
        </mxCell>
        <mxCell id="yXWUyt9PTgUI9yi-nkLO-15" value="Вказати пароль" style="rounded=1;whiteSpace=wrap;html=1;fillColor=#FFFFFF;" vertex="1" parent="1">
          <mxGeometry x="580" y="-915" width="100" height="20" as="geometry"/>
        </mxCell>
        <mxCell id="yXWUyt9PTgUI9yi-nkLO-39" value="" style="edgeStyle=orthogonalEdgeStyle;rounded=0;orthogonalLoop=1;jettySize=auto;html=1;" edge="1" parent="1" source="yXWUyt9PTgUI9yi-nkLO-37" target="yXWUyt9PTgUI9yi-nkLO-38">
          <mxGeometry relative="1" as="geometry"/>
        </mxCell>
        <mxCell id="yXWUyt9PTgUI9yi-nkLO-37" value="Перевірити коректність даних" style="rounded=1;whiteSpace=wrap;html=1;fillColor=#FFFFFF;" vertex="1" parent="1">
          <mxGeometry x="630" y="-860" width="120" height="60" as="geometry"/>
        </mxCell>
        <mxCell id="yXWUyt9PTgUI9yi-nkLO-44" value="" style="edgeStyle=orthogonalEdgeStyle;rounded=0;orthogonalLoop=1;jettySize=auto;html=1;" edge="1" parent="1" source="yXWUyt9PTgUI9yi-nkLO-38" target="yXWUyt9PTgUI9yi-nkLO-43">
          <mxGeometry relative="1" as="geometry"/>
        </mxCell>
        <mxCell id="yXWUyt9PTgUI9yi-nkLO-55" style="edgeStyle=orthogonalEdgeStyle;rounded=0;orthogonalLoop=1;jettySize=auto;html=1;exitX=0;exitY=0.5;exitDx=0;exitDy=0;entryX=1;entryY=0.5;entryDx=0;entryDy=0;" edge="1" parent="1" source="yXWUyt9PTgUI9yi-nkLO-38" target="yXWUyt9PTgUI9yi-nkLO-53">
          <mxGeometry relative="1" as="geometry"/>
        </mxCell>
        <mxCell id="yXWUyt9PTgUI9yi-nkLO-38" value="Дані вірні?" style="rhombus;whiteSpace=wrap;html=1;fontFamily=Helvetica;fontSize=12;fontColor=#000000;align=center;strokeColor=#000000;fillColor=#FFFFFF;" vertex="1" parent="1">
          <mxGeometry x="630" y="-780" width="120" height="60" as="geometry"/>
        </mxCell>
        <mxCell id="yXWUyt9PTgUI9yi-nkLO-52" value="" style="edgeStyle=orthogonalEdgeStyle;rounded=0;orthogonalLoop=1;jettySize=auto;html=1;" edge="1" parent="1" source="yXWUyt9PTgUI9yi-nkLO-43" target="yXWUyt9PTgUI9yi-nkLO-50">
          <mxGeometry relative="1" as="geometry">
            <mxPoint x="690" y="-580" as="targetPoint"/>
          </mxGeometry>
        </mxCell>
        <mxCell id="yXWUyt9PTgUI9yi-nkLO-43" value="Авторизація" style="rounded=1;whiteSpace=wrap;html=1;fontFamily=Helvetica;fontSize=12;fontColor=#000000;align=center;strokeColor=#000000;fillColor=#FFFFFF;" vertex="1" parent="1">
          <mxGeometry x="645" y="-680" width="90" height="20" as="geometry"/>
        </mxCell>
        <mxCell id="yXWUyt9PTgUI9yi-nkLO-45" value="Так&lt;br&gt;" style="text;html=1;resizable=0;points=[];autosize=1;align=left;verticalAlign=top;spacingTop=-4;" vertex="1" parent="1">
          <mxGeometry x="700" y="-710" width="30" height="20" as="geometry"/>
        </mxCell>
        <mxCell id="yXWUyt9PTgUI9yi-nkLO-48" value="Ні&lt;br&gt;" style="text;html=1;resizable=0;points=[];autosize=1;align=left;verticalAlign=top;spacingTop=-4;" vertex="1" parent="1">
          <mxGeometry x="600" y="-770" width="30" height="20" as="geometry"/>
        </mxCell>
        <mxCell id="yXWUyt9PTgUI9yi-nkLO-50" value="" style="ellipse;whiteSpace=wrap;html=1;fillColor=#000000;" vertex="1" parent="1">
          <mxGeometry x="450" y="-620" width="28" height="25" as="geometry"/>
        </mxCell>
        <mxCell id="yXWUyt9PTgUI9yi-nkLO-109" style="edgeStyle=orthogonalEdgeStyle;rounded=0;orthogonalLoop=1;jettySize=auto;html=1;exitX=0.5;exitY=0;exitDx=0;exitDy=0;entryX=0;entryY=0.5;entryDx=0;entryDy=0;" edge="1" parent="1" source="yXWUyt9PTgUI9yi-nkLO-53" target="yXWUyt9PTgUI9yi-nkLO-104">
          <mxGeometry relative="1" as="geometry">
            <Array as="points">
              <mxPoint x="560" y="-760"/>
              <mxPoint x="560" y="-937"/>
            </Array>
          </mxGeometry>
        </mxCell>
        <mxCell id="yXWUyt9PTgUI9yi-nkLO-53" value="Повторити дані" style="rounded=1;whiteSpace=wrap;html=1;fillColor=#FFFFFF;" vertex="1" parent="1">
          <mxGeometry x="470" y="-760" width="120" height="20" as="geometry"/>
        </mxCell>
        <mxCell id="yXWUyt9PTgUI9yi-nkLO-72" value="" style="edgeStyle=orthogonalEdgeStyle;rounded=0;orthogonalLoop=1;jettySize=auto;html=1;entryX=0.5;entryY=0;entryDx=0;entryDy=0;" edge="1" parent="1" source="yXWUyt9PTgUI9yi-nkLO-60" target="yXWUyt9PTgUI9yi-nkLO-77">
          <mxGeometry relative="1" as="geometry">
            <mxPoint x="145" y="-812.5000000000002" as="targetPoint"/>
          </mxGeometry>
        </mxCell>
        <mxCell id="yXWUyt9PTgUI9yi-nkLO-60" value="Ввести пароль" style="rounded=1;whiteSpace=wrap;html=1;fillColor=#FFFFFF;" vertex="1" parent="1">
          <mxGeometry x="100" y="-917.5" width="90" height="25" as="geometry"/>
        </mxCell>
        <mxCell id="yXWUyt9PTgUI9yi-nkLO-74" value="" style="edgeStyle=orthogonalEdgeStyle;rounded=0;orthogonalLoop=1;jettySize=auto;html=1;entryX=0.5;entryY=0;entryDx=0;entryDy=0;" edge="1" parent="1" source="yXWUyt9PTgUI9yi-nkLO-61" target="yXWUyt9PTgUI9yi-nkLO-77">
          <mxGeometry relative="1" as="geometry">
            <mxPoint x="245" y="-812.5000000000002" as="targetPoint"/>
          </mxGeometry>
        </mxCell>
        <mxCell id="yXWUyt9PTgUI9yi-nkLO-61" value="Ввести e-mail&amp;nbsp;" style="rounded=1;whiteSpace=wrap;html=1;fillColor=#FFFFFF;" vertex="1" parent="1">
          <mxGeometry x="200" y="-917.5" width="90" height="25" as="geometry"/>
        </mxCell>
        <mxCell id="yXWUyt9PTgUI9yi-nkLO-76" value="" style="edgeStyle=orthogonalEdgeStyle;rounded=0;orthogonalLoop=1;jettySize=auto;html=1;entryX=1;entryY=0.5;entryDx=0;entryDy=0;" edge="1" parent="1" source="yXWUyt9PTgUI9yi-nkLO-63" target="yXWUyt9PTgUI9yi-nkLO-77">
          <mxGeometry relative="1" as="geometry">
            <mxPoint x="345" y="-812.5000000000002" as="targetPoint"/>
            <Array as="points">
              <mxPoint x="345" y="-800"/>
            </Array>
          </mxGeometry>
        </mxCell>
        <mxCell id="yXWUyt9PTgUI9yi-nkLO-63" value="Ввести логін&amp;nbsp;" style="rounded=1;whiteSpace=wrap;html=1;fillColor=#FFFFFF;" vertex="1" parent="1">
          <mxGeometry x="300" y="-917.5" width="90" height="25" as="geometry"/>
        </mxCell>
        <mxCell id="yXWUyt9PTgUI9yi-nkLO-70" value="" style="edgeStyle=orthogonalEdgeStyle;rounded=0;orthogonalLoop=1;jettySize=auto;html=1;entryX=0;entryY=0.5;entryDx=0;entryDy=0;" edge="1" parent="1" source="yXWUyt9PTgUI9yi-nkLO-67" target="yXWUyt9PTgUI9yi-nkLO-77">
          <mxGeometry relative="1" as="geometry">
            <mxPoint x="36.500000000000455" y="-811.9999999999998" as="targetPoint"/>
            <Array as="points">
              <mxPoint x="36" y="-800"/>
            </Array>
          </mxGeometry>
        </mxCell>
        <mxCell id="yXWUyt9PTgUI9yi-nkLO-67" value="Повторити пароль" style="rounded=1;whiteSpace=wrap;html=1;fillColor=#FFFFFF;" vertex="1" parent="1">
          <mxGeometry x="-20" y="-917" width="113" height="25" as="geometry"/>
        </mxCell>
        <mxCell id="yXWUyt9PTgUI9yi-nkLO-81" value="" style="edgeStyle=orthogonalEdgeStyle;rounded=0;orthogonalLoop=1;jettySize=auto;html=1;entryX=0.5;entryY=0;entryDx=0;entryDy=0;" edge="1" parent="1" source="yXWUyt9PTgUI9yi-nkLO-77" target="yXWUyt9PTgUI9yi-nkLO-78">
          <mxGeometry relative="1" as="geometry">
            <mxPoint x="195" y="-690" as="targetPoint"/>
          </mxGeometry>
        </mxCell>
        <mxCell id="yXWUyt9PTgUI9yi-nkLO-77" value="Перевірити коректність даних" style="rounded=1;whiteSpace=wrap;html=1;fillColor=#FFFFFF;" vertex="1" parent="1">
          <mxGeometry x="135" y="-830" width="120" height="60" as="geometry"/>
        </mxCell>
        <mxCell id="yXWUyt9PTgUI9yi-nkLO-85" style="edgeStyle=orthogonalEdgeStyle;rounded=0;orthogonalLoop=1;jettySize=auto;html=1;exitX=0.5;exitY=1;exitDx=0;exitDy=0;entryX=0.5;entryY=0;entryDx=0;entryDy=0;" edge="1" parent="1" source="yXWUyt9PTgUI9yi-nkLO-78" target="yXWUyt9PTgUI9yi-nkLO-84">
          <mxGeometry relative="1" as="geometry"/>
        </mxCell>
        <mxCell id="yXWUyt9PTgUI9yi-nkLO-87" style="edgeStyle=orthogonalEdgeStyle;rounded=0;orthogonalLoop=1;jettySize=auto;html=1;exitX=0;exitY=0.5;exitDx=0;exitDy=0;entryX=1;entryY=0.5;entryDx=0;entryDy=0;" edge="1" parent="1" source="yXWUyt9PTgUI9yi-nkLO-78" target="yXWUyt9PTgUI9yi-nkLO-83">
          <mxGeometry relative="1" as="geometry"/>
        </mxCell>
        <mxCell id="yXWUyt9PTgUI9yi-nkLO-78" value="Дані корректні?" style="rhombus;whiteSpace=wrap;html=1;fontFamily=Helvetica;fontSize=12;fontColor=#000000;align=center;strokeColor=#000000;fillColor=#FFFFFF;" vertex="1" parent="1">
          <mxGeometry x="135" y="-750" width="120" height="60" as="geometry"/>
        </mxCell>
        <mxCell id="yXWUyt9PTgUI9yi-nkLO-88" style="edgeStyle=orthogonalEdgeStyle;rounded=0;orthogonalLoop=1;jettySize=auto;html=1;exitX=0.5;exitY=0;exitDx=0;exitDy=0;entryX=0;entryY=0.5;entryDx=0;entryDy=0;" edge="1" parent="1" source="yXWUyt9PTgUI9yi-nkLO-83" target="yXWUyt9PTgUI9yi-nkLO-89">
          <mxGeometry relative="1" as="geometry">
            <mxPoint x="30" y="-930" as="targetPoint"/>
            <Array as="points">
              <mxPoint x="-50" y="-730"/>
              <mxPoint x="-50" y="-948"/>
            </Array>
          </mxGeometry>
        </mxCell>
        <mxCell id="yXWUyt9PTgUI9yi-nkLO-83" value="Повторити дані" style="rounded=1;whiteSpace=wrap;html=1;fillColor=#FFFFFF;" vertex="1" parent="1">
          <mxGeometry x="-70" y="-730" width="120" height="20" as="geometry"/>
        </mxCell>
        <mxCell id="yXWUyt9PTgUI9yi-nkLO-86" style="edgeStyle=orthogonalEdgeStyle;rounded=0;orthogonalLoop=1;jettySize=auto;html=1;exitX=1;exitY=0.5;exitDx=0;exitDy=0;entryX=0.5;entryY=0;entryDx=0;entryDy=0;" edge="1" parent="1" source="yXWUyt9PTgUI9yi-nkLO-84" target="yXWUyt9PTgUI9yi-nkLO-50">
          <mxGeometry relative="1" as="geometry"/>
        </mxCell>
        <mxCell id="yXWUyt9PTgUI9yi-nkLO-84" value="Реєстрація" style="rounded=1;whiteSpace=wrap;html=1;fontFamily=Helvetica;fontSize=12;fontColor=#000000;align=center;strokeColor=#000000;fillColor=#FFFFFF;" vertex="1" parent="1">
          <mxGeometry x="150" y="-680" width="90" height="20" as="geometry"/>
        </mxCell>
        <mxCell id="yXWUyt9PTgUI9yi-nkLO-95" style="edgeStyle=orthogonalEdgeStyle;rounded=0;orthogonalLoop=1;jettySize=auto;html=1;exitX=0.111;exitY=1.014;exitDx=0;exitDy=0;entryX=0.5;entryY=0;entryDx=0;entryDy=0;exitPerimeter=0;" edge="1" parent="1" source="yXWUyt9PTgUI9yi-nkLO-89" target="yXWUyt9PTgUI9yi-nkLO-67">
          <mxGeometry relative="1" as="geometry"/>
        </mxCell>
        <mxCell id="yXWUyt9PTgUI9yi-nkLO-98" style="edgeStyle=orthogonalEdgeStyle;rounded=0;orthogonalLoop=1;jettySize=auto;html=1;exitX=0.5;exitY=1;exitDx=0;exitDy=0;entryX=0.5;entryY=0;entryDx=0;entryDy=0;" edge="1" parent="1" source="yXWUyt9PTgUI9yi-nkLO-89" target="yXWUyt9PTgUI9yi-nkLO-60">
          <mxGeometry relative="1" as="geometry"/>
        </mxCell>
        <mxCell id="yXWUyt9PTgUI9yi-nkLO-99" style="edgeStyle=orthogonalEdgeStyle;rounded=0;orthogonalLoop=1;jettySize=auto;html=1;exitX=0.733;exitY=0.971;exitDx=0;exitDy=0;entryX=0.5;entryY=0;entryDx=0;entryDy=0;exitPerimeter=0;" edge="1" parent="1" source="yXWUyt9PTgUI9yi-nkLO-89" target="yXWUyt9PTgUI9yi-nkLO-61">
          <mxGeometry relative="1" as="geometry"/>
        </mxCell>
        <mxCell id="yXWUyt9PTgUI9yi-nkLO-89" value="Реєстрація" style="rounded=1;whiteSpace=wrap;html=1;" vertex="1" parent="1">
          <mxGeometry x="-0.5" y="-960" width="335" height="23" as="geometry"/>
        </mxCell>
        <mxCell id="yXWUyt9PTgUI9yi-nkLO-101" style="edgeStyle=orthogonalEdgeStyle;rounded=0;orthogonalLoop=1;jettySize=auto;html=1;exitX=0.733;exitY=0.971;exitDx=0;exitDy=0;entryX=0.5;entryY=0;entryDx=0;entryDy=0;exitPerimeter=0;" edge="1" parent="1">
          <mxGeometry relative="1" as="geometry">
            <mxPoint x="319.95348837209303" y="-937.174418604651" as="sourcePoint"/>
            <mxPoint x="319.95348837209303" y="-916.9418604651162" as="targetPoint"/>
            <Array as="points">
              <mxPoint x="320" y="-937.5"/>
              <mxPoint x="320" y="-937.5"/>
            </Array>
          </mxGeometry>
        </mxCell>
        <mxCell id="yXWUyt9PTgUI9yi-nkLO-107" style="edgeStyle=orthogonalEdgeStyle;rounded=0;orthogonalLoop=1;jettySize=auto;html=1;exitX=0.75;exitY=1;exitDx=0;exitDy=0;entryX=0.5;entryY=0;entryDx=0;entryDy=0;" edge="1" parent="1" source="yXWUyt9PTgUI9yi-nkLO-104" target="yXWUyt9PTgUI9yi-nkLO-14">
          <mxGeometry relative="1" as="geometry"/>
        </mxCell>
        <mxCell id="yXWUyt9PTgUI9yi-nkLO-108" style="edgeStyle=orthogonalEdgeStyle;rounded=0;orthogonalLoop=1;jettySize=auto;html=1;exitX=0.25;exitY=1;exitDx=0;exitDy=0;entryX=0.5;entryY=0;entryDx=0;entryDy=0;" edge="1" parent="1" source="yXWUyt9PTgUI9yi-nkLO-104" target="yXWUyt9PTgUI9yi-nkLO-15">
          <mxGeometry relative="1" as="geometry"/>
        </mxCell>
        <mxCell id="yXWUyt9PTgUI9yi-nkLO-104" value="Вхід&lt;br&gt;" style="rounded=1;whiteSpace=wrap;html=1;fillColor=#FFFFFF;" vertex="1" parent="1">
          <mxGeometry x="602.5" y="-946.5" width="175" height="18" as="geometry"/>
        </mxCell>
        <mxCell id="yXWUyt9PTgUI9yi-nkLO-110" value="Так&lt;br&gt;" style="text;html=1;resizable=0;points=[];autosize=1;align=left;verticalAlign=top;spacingTop=-4;" vertex="1" parent="1">
          <mxGeometry x="573" y="-958" width="30" height="20" as="geometry"/>
        </mxCell>
        <mxCell id="yXWUyt9PTgUI9yi-nkLO-111" value="Ні&lt;br&gt;" style="text;html=1;resizable=0;points=[];autosize=1;align=left;verticalAlign=top;spacingTop=-4;" vertex="1" parent="1">
          <mxGeometry x="360" y="-966.5" width="30" height="20" as="geometry"/>
        </mxCell>
      </root>
    </mxGraphModel>
  </diagram>
</mxfile>
